<svg width="256" height="94" viewBox="0 0 256 94" fill="none" xmlns="http://www.w3.org/2000/svg">
<g filter="url(#filter0_dd_8_588)">
<path d="M44.0858 33.2656H24.8202V27.125H44.0858V33.2656ZM46.8045 19.4844H22.3827V47H16.2889V16.4609C16.2889 16.0391 16.367 15.6406 16.5233 15.2656C16.6795 14.8906 16.8905 14.5625 17.1561 14.2812C17.4373 14 17.7655 13.7813 18.1405 13.625C18.5155 13.4687 18.9217 13.3906 19.3592 13.3906H46.8045V19.4844ZM62.5142 16.4609H56.4205V10.9531H62.5142V16.4609ZM62.5142 47H56.4205V21.6641H62.5142V47ZM104.708 19.4844H91.2786V47H85.1848V19.4844H71.7317V13.3906H104.708V19.4844ZM133.168 27.7578H119.457C118.629 27.7578 118.004 27.9688 117.582 28.3906C117.16 28.7969 116.949 29.3984 116.949 30.1953V47H110.855V30.1953C110.855 29.1484 110.988 28.2109 111.254 27.3828C111.52 26.5547 111.871 25.8281 112.309 25.2031C112.762 24.5625 113.277 24.0234 113.855 23.5859C114.434 23.1328 115.035 22.7656 115.66 22.4844C116.301 22.2031 116.941 22 117.582 21.875C118.238 21.7344 118.848 21.6641 119.41 21.6641H133.168V27.7578ZM166.667 38.6094C166.667 39.4531 166.518 40.3672 166.221 41.3516C165.925 42.3203 165.44 43.2266 164.768 44.0703C164.112 44.8984 163.245 45.5938 162.167 46.1562C161.104 46.7188 159.807 47 158.276 47H147.284C146.44 47 145.526 46.8516 144.542 46.5547C143.573 46.2578 142.667 45.7812 141.823 45.125C140.995 44.4531 140.3 43.5859 139.737 42.5234C139.175 41.4453 138.893 40.1406 138.893 38.6094C138.893 37.7656 139.042 36.8516 139.339 35.8672C139.635 34.8828 140.112 33.9766 140.768 33.1484C141.44 32.3047 142.307 31.6016 143.37 31.0391C144.448 30.4766 145.753 30.1953 147.284 30.1953H158.276V36.0078H147.284C146.456 36.0078 145.815 36.2656 145.362 36.7812C144.909 37.2812 144.682 37.9062 144.682 38.6562C144.682 39.4531 144.94 40.0781 145.456 40.5312C145.987 40.9688 146.612 41.1875 147.331 41.1875H158.276C159.104 41.1875 159.745 40.9375 160.198 40.4375C160.651 39.9375 160.878 39.3125 160.878 38.5625V30.0547C160.878 29.2578 160.628 28.625 160.128 28.1562C159.643 27.6875 159.026 27.4531 158.276 27.4531H144.893V21.6641H158.276C159.12 21.6641 160.026 21.8125 160.995 22.1094C161.979 22.4062 162.885 22.8906 163.714 23.5625C164.557 24.2188 165.26 25.0859 165.823 26.1641C166.385 27.2266 166.667 28.5234 166.667 30.0547V38.6094ZM201.689 47H185.165C184.322 47 183.4 46.8516 182.4 46.5547C181.4 46.2578 180.47 45.7734 179.611 45.1016C178.767 44.4141 178.056 43.5312 177.478 42.4531C176.915 41.3594 176.634 40.0234 176.634 38.4453V30.1953C176.634 29.6172 176.697 29.0078 176.822 28.3672C176.962 27.7266 177.173 27.0938 177.455 26.4688C177.736 25.8281 178.095 25.2188 178.533 24.6406C178.986 24.0625 179.525 23.5547 180.15 23.1172C180.79 22.6797 181.525 22.3281 182.353 22.0625C183.181 21.7969 184.119 21.6641 185.165 21.6641H201.689V27.7578H185.165C184.369 27.7578 183.759 27.9609 183.337 28.3672C182.931 28.7734 182.728 29.3984 182.728 30.2422V38.4453C182.728 39.2422 182.939 39.8516 183.361 40.2734C183.783 40.6953 184.4 40.9062 185.212 40.9062H201.689V47ZM241.774 47H232.985L220.703 35.1406C220.016 34.5156 219.695 33.7344 219.742 32.7969C219.774 32.3594 219.883 31.9531 220.07 31.5781C220.274 31.1875 220.547 30.8594 220.891 30.5938L232.024 21.6172H241.774L227.43 33.1719L241.774 47ZM218.195 47H212.102V10.9531H218.195V47ZM33.3945 61.1953L30.582 76.9453C30.5195 77.2578 30.3789 77.5273 30.1602 77.7539C29.9414 77.9805 29.6758 78.125 29.3633 78.1875C29.043 78.2422 28.7383 78.207 28.4492 78.082C28.168 77.957 27.9453 77.7617 27.7812 77.4961L22.2031 68.332L16.6133 77.4961C16.4805 77.7227 16.2969 77.8984 16.0625 78.0234C15.8359 78.1484 15.5898 78.2109 15.3242 78.2109C14.957 78.2109 14.6328 78.0938 14.3516 77.8594C14.0703 77.625 13.8984 77.3203 13.8359 76.9453L11 61.1953H14.0938L16.1094 72.293L20.9141 64.6289C21.0469 64.4023 21.2266 64.2266 21.4531 64.1016C21.6875 63.9766 21.9375 63.9141 22.2031 63.9141C22.4688 63.9141 22.7148 63.9766 22.9414 64.1016C23.168 64.2266 23.3555 64.4023 23.5039 64.6289L28.2852 72.293L30.3008 61.1953H33.3945ZM49.1211 73.7227C49.1211 74.2461 49.0547 74.7188 48.9219 75.1406C48.7891 75.5547 48.6133 75.9219 48.3945 76.2422C48.1758 76.5547 47.9219 76.8242 47.6328 77.0508C47.3438 77.2695 47.0391 77.4492 46.7188 77.5898C46.4062 77.7305 46.0859 77.8359 45.7578 77.9062C45.4375 77.9688 45.1328 78 44.8438 78H39.3477C38.9258 78 38.4648 77.9258 37.9648 77.7773C37.4648 77.6289 37 77.3867 36.5703 77.0508C36.1484 76.707 35.793 76.2656 35.5039 75.7266C35.2227 75.1797 35.082 74.5117 35.082 73.7227V69.5977C35.082 68.8164 35.2227 68.1562 35.5039 67.6172C35.793 67.0703 36.1484 66.6289 36.5703 66.293C37 65.9492 37.4648 65.7031 37.9648 65.5547C38.4648 65.4062 38.9258 65.332 39.3477 65.332H44.8438C45.625 65.332 46.2891 65.4727 46.8359 65.7539C47.3828 66.0352 47.8242 66.3906 48.1602 66.8203C48.4961 67.2422 48.7383 67.7031 48.8867 68.2031C49.043 68.7031 49.1211 69.168 49.1211 69.5977V73.7227ZM46.0742 69.6211C46.0742 69.1992 45.9688 68.8867 45.7578 68.6836C45.5469 68.4805 45.2422 68.3789 44.8438 68.3789H39.3711C38.9648 68.3789 38.6562 68.4844 38.4453 68.6953C38.2344 68.8984 38.1289 69.1992 38.1289 69.5977V73.7227C38.1289 74.1211 38.2344 74.4258 38.4453 74.6367C38.6562 74.8477 38.9648 74.9531 39.3711 74.9531H44.8438C45.2578 74.9531 45.5664 74.8477 45.7695 74.6367C45.9727 74.4258 46.0742 74.1211 46.0742 73.7227V69.6211ZM62.8086 68.3789H55.9531C55.5391 68.3789 55.2266 68.4844 55.0156 68.6953C54.8047 68.8984 54.6992 69.1992 54.6992 69.5977V78H51.6523V69.5977C51.6523 69.0742 51.7188 68.6055 51.8516 68.1914C51.9844 67.7773 52.1602 67.4141 52.3789 67.1016C52.6055 66.7812 52.8633 66.5117 53.1523 66.293C53.4414 66.0664 53.7422 65.8828 54.0547 65.7422C54.375 65.6016 54.6953 65.5 55.0156 65.4375C55.3438 65.3672 55.6484 65.332 55.9297 65.332H62.8086V68.3789ZM79.707 78H75.3125L69.1719 72.0703C68.8281 71.7578 68.668 71.3672 68.6914 70.8984C68.707 70.6797 68.7617 70.4766 68.8555 70.2891C68.957 70.0938 69.0938 69.9297 69.2656 69.7969L74.832 65.3086H79.707L72.5352 71.0859L79.707 78ZM67.918 78H64.8711V59.9766H67.918V78ZM94.7773 73.7227C94.7773 74.2461 94.7109 74.7188 94.5781 75.1406C94.4453 75.5547 94.2695 75.9219 94.0508 76.2422C93.832 76.5547 93.5781 76.8242 93.2891 77.0508C93 77.2695 92.6953 77.4492 92.375 77.5898C92.0625 77.7305 91.7422 77.8359 91.4141 77.9062C91.0938 77.9688 90.7891 78 90.5 78H85.0039C84.582 78 84.1211 77.9258 83.6211 77.7773C83.1211 77.6289 82.6562 77.3867 82.2266 77.0508C81.8047 76.707 81.4492 76.2656 81.1602 75.7266C80.8789 75.1797 80.7383 74.5117 80.7383 73.7227V69.5977C80.7383 68.8164 80.8789 68.1562 81.1602 67.6172C81.4492 67.0703 81.8047 66.6289 82.2266 66.293C82.6562 65.9492 83.1211 65.7031 83.6211 65.5547C84.1211 65.4062 84.582 65.332 85.0039 65.332H90.5C91.2812 65.332 91.9453 65.4727 92.4922 65.7539C93.0391 66.0352 93.4805 66.3906 93.8164 66.8203C94.1523 67.2422 94.3945 67.7031 94.543 68.2031C94.6992 68.7031 94.7773 69.168 94.7773 69.5977V73.7227ZM91.7305 69.6211C91.7305 69.1992 91.625 68.8867 91.4141 68.6836C91.2031 68.4805 90.8984 68.3789 90.5 68.3789H85.0273C84.6211 68.3789 84.3125 68.4844 84.1016 68.6953C83.8906 68.8984 83.7852 69.1992 83.7852 69.5977V73.7227C83.7852 74.1211 83.8906 74.4258 84.1016 74.6367C84.3125 74.8477 84.6211 74.9531 85.0273 74.9531H90.5C90.9141 74.9531 91.2227 74.8477 91.4258 74.6367C91.6289 74.4258 91.7305 74.1211 91.7305 73.7227V69.6211ZM111.23 76.4648C111.23 76.6836 111.191 76.8867 111.113 77.0742C111.035 77.2617 110.926 77.4258 110.785 77.5664C110.652 77.6992 110.492 77.8047 110.305 77.8828C110.125 77.9609 109.93 78 109.719 78H102.828C102.453 78 102.051 77.957 101.621 77.8711C101.199 77.7852 100.781 77.6484 100.367 77.4609C99.9531 77.2656 99.5508 77.0234 99.1602 76.7344C98.7773 76.4375 98.4414 76.082 98.1523 75.668C97.8633 75.2461 97.6289 74.7617 97.4492 74.2148C97.2773 73.668 97.1914 73.0508 97.1914 72.3633V65.332H100.238V72.3633C100.238 72.7617 100.305 73.1211 100.438 73.4414C100.578 73.7539 100.766 74.0234 101 74.25C101.234 74.4766 101.508 74.6523 101.82 74.7773C102.141 74.8945 102.484 74.9531 102.852 74.9531H108.184V65.332H111.23V76.4648ZM125.609 68.3789H120.289V78H117.207V68.3789H113.246V65.332H117.207V61.1953H120.289V65.332H125.609V68.3789ZM158.305 64.2422H151.59V78H148.543V64.2422H141.816V61.1953H158.305V64.2422ZM169.895 68.3789H163.039C162.625 68.3789 162.312 68.4844 162.102 68.6953C161.891 68.8984 161.785 69.1992 161.785 69.5977V78H158.738V69.5977C158.738 69.0742 158.805 68.6055 158.938 68.1914C159.07 67.7773 159.246 67.4141 159.465 67.1016C159.691 66.7812 159.949 66.5117 160.238 66.293C160.527 66.0664 160.828 65.8828 161.141 65.7422C161.461 65.6016 161.781 65.5 162.102 65.4375C162.43 65.3672 162.734 65.332 163.016 65.332H169.895V68.3789ZM184.004 73.8047C184.004 74.2266 183.93 74.6836 183.781 75.1758C183.633 75.6602 183.391 76.1133 183.055 76.5352C182.727 76.9492 182.293 77.2969 181.754 77.5781C181.223 77.8594 180.574 78 179.809 78H174.312C173.891 78 173.434 77.9258 172.941 77.7773C172.457 77.6289 172.004 77.3906 171.582 77.0625C171.168 76.7266 170.82 76.293 170.539 75.7617C170.258 75.2227 170.117 74.5703 170.117 73.8047C170.117 73.3828 170.191 72.9258 170.34 72.4336C170.488 71.9414 170.727 71.4883 171.055 71.0742C171.391 70.6523 171.824 70.3008 172.355 70.0195C172.895 69.7383 173.547 69.5977 174.312 69.5977H179.809V72.5039H174.312C173.898 72.5039 173.578 72.6328 173.352 72.8906C173.125 73.1406 173.012 73.4531 173.012 73.8281C173.012 74.2266 173.141 74.5391 173.398 74.7656C173.664 74.9844 173.977 75.0938 174.336 75.0938H179.809C180.223 75.0938 180.543 74.9688 180.77 74.7188C180.996 74.4688 181.109 74.1562 181.109 73.7812V69.5273C181.109 69.1289 180.984 68.8125 180.734 68.5781C180.492 68.3438 180.184 68.2266 179.809 68.2266H173.117V65.332H179.809C180.23 65.332 180.684 65.4062 181.168 65.5547C181.66 65.7031 182.113 65.9453 182.527 66.2812C182.949 66.6094 183.301 67.043 183.582 67.582C183.863 68.1133 184.004 68.7617 184.004 69.5273V73.8047ZM198.875 78H190.613C190.191 78 189.73 77.9258 189.23 77.7773C188.73 77.6289 188.266 77.3867 187.836 77.0508C187.414 76.707 187.059 76.2656 186.77 75.7266C186.488 75.1797 186.348 74.5117 186.348 73.7227V69.5977C186.348 69.3086 186.379 69.0039 186.441 68.6836C186.512 68.3633 186.617 68.0469 186.758 67.7344C186.898 67.4141 187.078 67.1094 187.297 66.8203C187.523 66.5312 187.793 66.2773 188.105 66.0586C188.426 65.8398 188.793 65.6641 189.207 65.5312C189.621 65.3984 190.09 65.332 190.613 65.332H198.875V68.3789H190.613C190.215 68.3789 189.91 68.4805 189.699 68.6836C189.496 68.8867 189.395 69.1992 189.395 69.6211V73.7227C189.395 74.1211 189.5 74.4258 189.711 74.6367C189.922 74.8477 190.23 74.9531 190.637 74.9531H198.875V78ZM216.277 78H211.883L205.742 72.0703C205.398 71.7578 205.238 71.3672 205.262 70.8984C205.277 70.6797 205.332 70.4766 205.426 70.2891C205.527 70.0938 205.664 69.9297 205.836 69.7969L211.402 65.3086H216.277L209.105 71.0859L216.277 78ZM204.488 78H201.441V59.9766H204.488V78ZM231.195 69.5273C231.195 69.9492 231.121 70.4062 230.973 70.8984C230.824 71.3828 230.582 71.8359 230.246 72.2578C229.918 72.6719 229.484 73.0195 228.945 73.3008C228.414 73.582 227.766 73.7227 227 73.7227H221.504V70.8281H227C227.414 70.8281 227.734 70.7031 227.961 70.4531C228.188 70.1953 228.301 69.8789 228.301 69.5039C228.301 69.1055 228.172 68.793 227.914 68.5664C227.664 68.3398 227.359 68.2266 227 68.2266H221.504C221.09 68.2266 220.77 68.3555 220.543 68.6133C220.316 68.8633 220.203 69.1758 220.203 69.5508V73.8047C220.203 74.2109 220.328 74.5273 220.578 74.7539C220.836 74.9805 221.152 75.0938 221.527 75.0938H227V78H221.504C221.082 78 220.625 77.9258 220.133 77.7773C219.648 77.6289 219.195 77.3906 218.773 77.0625C218.359 76.7266 218.012 76.293 217.73 75.7617C217.449 75.2227 217.309 74.5703 217.309 73.8047V69.5273C217.309 69.1055 217.383 68.6523 217.531 68.168C217.68 67.6758 217.918 67.2227 218.246 66.8086C218.582 66.3867 219.016 66.0352 219.547 65.7539C220.086 65.4727 220.738 65.332 221.504 65.332H227C227.422 65.332 227.875 65.4062 228.359 65.5547C228.852 65.7031 229.305 65.9453 229.719 66.2812C230.141 66.6094 230.492 67.043 230.773 67.582C231.055 68.1133 231.195 68.7617 231.195 69.5273ZM244.332 68.3789H237.477C237.062 68.3789 236.75 68.4844 236.539 68.6953C236.328 68.8984 236.223 69.1992 236.223 69.5977V78H233.176V69.5977C233.176 69.0742 233.242 68.6055 233.375 68.1914C233.508 67.7773 233.684 67.4141 233.902 67.1016C234.129 66.7812 234.387 66.5117 234.676 66.293C234.965 66.0664 235.266 65.8828 235.578 65.7422C235.898 65.6016 236.219 65.5 236.539 65.4375C236.867 65.3672 237.172 65.332 237.453 65.332H244.332V68.3789Z" fill="url(#paint0_linear_8_588)"/>
</g>
<defs>
<filter id="filter0_dd_8_588" x="0" y="3.95312" width="255.332" height="89.3164" filterUnits="userSpaceOnUse" color-interpolation-filters="sRGB">
<feFlood flood-opacity="0" result="BackgroundImageFix"/>
<feColorMatrix in="SourceAlpha" type="matrix" values="0 0 0 0 0 0 0 0 0 0 0 0 0 0 0 0 0 0 127 0" result="hardAlpha"/>
<feOffset dy="1"/>
<feGaussianBlur stdDeviation="1.5"/>
<feColorMatrix type="matrix" values="0 0 0 0 0 0 0 0 0 0 0 0 0 0 0 0 0 0 0.3 0"/>
<feBlend mode="normal" in2="BackgroundImageFix" result="effect1_dropShadow_8_588"/>
<feColorMatrix in="SourceAlpha" type="matrix" values="0 0 0 0 0 0 0 0 0 0 0 0 0 0 0 0 0 0 127 0" result="hardAlpha"/>
<feMorphology radius="3" operator="dilate" in="SourceAlpha" result="effect2_dropShadow_8_588"/>
<feOffset dy="4"/>
<feGaussianBlur stdDeviation="4"/>
<feColorMatrix type="matrix" values="0 0 0 0 0 0 0 0 0 0 0 0 0 0 0 0 0 0 0.15 0"/>
<feBlend mode="normal" in2="effect1_dropShadow_8_588" result="effect2_dropShadow_8_588"/>
<feBlend mode="normal" in="SourceGraphic" in2="effect2_dropShadow_8_588" result="shape"/>
</filter>
<linearGradient id="paint0_linear_8_588" x1="10.043" y1="43" x2="245.043" y2="43" gradientUnits="userSpaceOnUse">
<stop stop-color="#5175BF"/>
<stop offset="1" stop-color="#726DBF"/>
</linearGradient>
</defs>
</svg>
