<svg width="20" height="20" viewBox="0 0 20 20" fill="none" xmlns="http://www.w3.org/2000/svg">
<circle cx="9.58333" cy="3.74999" r="2.08333" stroke="#DFE6ED" stroke-width="1.5"/>
<path d="M8.61776 9.65576L9.36404 9.73039L9.36404 9.73039L8.61776 9.65576ZM9.85461 14.92L9.21965 15.3192L9.21965 15.3192L9.85461 14.92ZM11.3654 18.7325C11.5858 19.0832 12.0488 19.1888 12.3995 18.9683C12.7502 18.7479 12.8557 18.2849 12.6353 17.9342L12.0003 18.3333L11.3654 18.7325ZM5.25328 10.9436L5.98542 11.1063L5.98542 11.1063L5.25328 10.9436ZM4.26786 11.9206C4.178 12.325 4.43295 12.7256 4.8373 12.8155C5.24165 12.9053 5.64228 12.6504 5.73214 12.246L5 12.0833L4.26786 11.9206ZM14.3918 11.0361L14.1546 10.3246L14.1546 10.3246L14.3918 11.0361ZM15.2372 11.5449C15.6301 11.4139 15.8425 10.9891 15.7115 10.5962C15.5805 10.2032 15.1558 9.99085 14.7628 10.1218L15 10.8333L15.2372 11.5449ZM10.4846 8.33761L10.4309 9.08569L10.4309 9.08569L10.4846 8.33761ZM12.0164 9.73209L11.2887 9.91399L11.2887 9.91399L12.0164 9.73209ZM11.9492 9.48119L11.2365 9.71466L11.2365 9.71466L11.9492 9.48119ZM6.12741 8.69994L6.5967 9.28497L6.5967 9.28497L6.12741 8.69994ZM12.1058 10.0626L12.8144 9.81683L12.8144 9.81683L12.1058 10.0626ZM14.0649 11.1381L13.8919 10.4083L13.8919 10.4083L14.0649 11.1381ZM8.75 8.33334L8.00372 8.25872L7.87148 9.58113L8.61776 9.65576L9.36404 9.73039L9.49628 8.40797L8.75 8.33334ZM9.85461 14.92L9.21965 15.3192L11.3654 18.7325L12.0003 18.3333L12.6353 17.9342L10.4896 14.5209L9.85461 14.92ZM8.75 8.33334V7.58334H8.50724V8.33334V9.08334H8.75V8.33334ZM5.25328 10.9436L4.52114 10.7809L4.26786 11.9206L5 12.0833L5.73214 12.246L5.98542 11.1063L5.25328 10.9436ZM8.75 8.33334V9.08334H10.2249V8.33334V7.58334H8.75V8.33334ZM14.3918 11.0361L14.629 11.7476L15.2372 11.5449L15 10.8333L14.7628 10.1218L14.1546 10.3246L14.3918 11.0361ZM10.2249 8.33334V9.08334C10.3704 9.08334 10.4047 9.08381 10.4309 9.08569L10.4846 8.33761L10.5382 7.58953C10.4454 7.58287 10.3463 7.58334 10.2249 7.58334V8.33334ZM12.0164 9.73209L12.744 9.55019C12.7145 9.43241 12.6909 9.33618 12.662 9.24771L11.9492 9.48119L11.2365 9.71466C11.2447 9.73961 11.2535 9.77284 11.2887 9.91399L12.0164 9.73209ZM10.4846 8.33761L10.4309 9.08569C10.8023 9.11231 11.1206 9.36087 11.2365 9.71466L11.9492 9.48119L12.662 9.24772C12.3564 8.31501 11.5172 7.65972 10.5382 7.58953L10.4846 8.33761ZM8.50724 8.33334V7.58334C7.88489 7.58334 7.35084 7.58206 6.91764 7.63463C6.46414 7.68967 6.0362 7.81162 5.65811 8.11491L6.12741 8.69994L6.5967 9.28497C6.67562 9.22166 6.79665 9.16032 7.09835 9.12371C7.42034 9.08463 7.8477 9.08334 8.50724 9.08334V8.33334ZM5.25328 10.9436L5.98542 11.1063C6.1285 10.4624 6.22246 10.0455 6.33045 9.73969C6.43164 9.45312 6.51778 9.34828 6.5967 9.28497L6.12741 8.69994L5.65811 8.11491C5.28003 8.4182 5.06814 8.80949 4.91604 9.24026C4.77074 9.65174 4.65615 10.1733 4.52114 10.7809L5.25328 10.9436ZM12.0164 9.73209L11.2887 9.91399C11.3281 10.0715 11.3592 10.1988 11.3972 10.3085L12.1058 10.0626L12.8144 9.81683C12.8038 9.78633 12.7914 9.73995 12.744 9.55019L12.0164 9.73209ZM14.3918 11.0361L14.1546 10.3246C13.9691 10.3864 13.9233 10.4009 13.8919 10.4083L14.0649 11.1381L14.2379 11.8679C14.3509 11.8411 14.4749 11.7989 14.629 11.7476L14.3918 11.0361ZM12.1058 10.0626L11.3972 10.3085C11.8037 11.4802 13.0312 12.154 14.2379 11.8679L14.0649 11.1381L13.8919 10.4083C13.4341 10.5169 12.9685 10.2613 12.8144 9.81683L12.1058 10.0626ZM8.61776 9.65576L7.87148 9.58113C7.73555 10.9404 7.64109 11.7909 7.8352 12.617L8.56532 12.4455L9.29544 12.274C9.17174 11.7475 9.21817 11.189 9.36404 9.73039L8.61776 9.65576ZM9.85461 14.92L10.4896 14.5209C9.70941 13.2798 9.41914 12.8005 9.29544 12.274L8.56532 12.4455L7.8352 12.617C8.02931 13.4432 8.49263 14.1626 9.21965 15.3192L9.85461 14.92Z" fill="#DFE6ED"/>
<path d="M7.5 14.5833L5 18.3333" stroke="#DFE6ED" stroke-width="1.5" stroke-linecap="round"/>
</svg>
