<svg width="19" height="17" viewBox="0 0 19 17" fill="none" xmlns="http://www.w3.org/2000/svg">
<path d="M6.55144 14.3937L7.02542 13.8125L7.02542 13.8125L6.55144 14.3937ZM9.08333 2.83377L8.53426 3.34467C8.67614 3.49716 8.87505 3.58377 9.08333 3.58377C9.29162 3.58377 9.49053 3.49716 9.63241 3.34467L9.08333 2.83377ZM11.6152 14.3937L12.0892 14.975L12.0892 14.975L11.6152 14.3937ZM6.55144 14.3937L7.02542 13.8125C5.82075 12.8301 4.41791 11.5449 3.32255 10.141C2.21298 8.71897 1.5 7.27788 1.5 5.96849H0.75H0C0 7.78201 0.961785 9.55381 2.13995 11.0638C3.33234 12.592 4.83022 13.9579 6.07746 14.975L6.55144 14.3937ZM0.75 5.96849H1.5C1.5 3.7312 2.52873 2.26342 3.79855 1.73514C5.04795 1.21535 6.81117 1.49281 8.53426 3.34467L9.08333 2.83377L9.63241 2.32288C7.60563 0.144627 5.20218 -0.473446 3.22238 0.350209C1.263 1.16537 0 3.28 0 5.96849H0.75ZM11.6152 14.3937L12.0892 14.975C13.3365 13.9579 14.8343 12.592 16.0267 11.0638C17.2049 9.55383 18.1667 7.78201 18.1667 5.96847H17.4167H16.6667C16.6667 7.27789 15.9537 8.719 14.8441 10.1411C13.7488 11.5449 12.3459 12.8301 11.1413 13.8125L11.6152 14.3937ZM17.4167 5.96847H18.1667C18.1667 3.27992 16.9037 1.16528 14.9443 0.350144C12.9645 -0.473485 10.561 0.144635 8.53426 2.32288L9.08333 2.83377L9.63241 3.34467C11.3555 1.4928 13.1187 1.21531 14.3681 1.73508C15.6379 2.26334 16.6667 3.73111 16.6667 5.96847H17.4167ZM6.55144 14.3937L6.07746 14.975C7.12642 15.8304 7.8977 16.5015 9.08334 16.5015L9.08334 15.7515L9.08334 15.0015C8.53517 15.0015 8.19646 14.7674 7.02542 13.8125L6.55144 14.3937ZM11.6152 14.3937L11.1413 13.8125C9.97022 14.7674 9.63151 15.0015 9.08334 15.0015L9.08334 15.7515L9.08334 16.5015C10.269 16.5015 11.0403 15.8304 12.0892 14.975L11.6152 14.3937Z" fill="#3381D1"/>
</svg>
