<svg width="408" height="108" viewBox="0 0 408 108" fill="none" xmlns="http://www.w3.org/2000/svg">
<path d="M0 12C0 5.37258 5.37258 0 12 0H396C402.627 0 408 5.37258 408 12V96C408 102.627 402.627 108 396 108H12C5.37259 108 0 102.627 0 96V12Z" fill="url(#paint0_linear_2247_2253)"/>
<path d="M30.5 35.5H25.5M30.5 35.5C30.5 34.7865 30.5 34.4297 30.5381 34.193C30.6609 33.4296 30.6824 33.3815 31.1692 32.7807C31.3201 32.5945 31.8805 32.0927 33.0012 31.0892C34.5349 29.7159 35.5 27.7206 35.5 25.5C35.5 21.3579 32.1421 18 28 18C23.8579 18 20.5 21.3579 20.5 25.5C20.5 27.7206 21.4651 29.7159 22.9988 31.0892C24.1195 32.0927 24.6799 32.5945 24.8308 32.7807C25.3176 33.3815 25.3391 33.4296 25.4619 34.193C25.5 34.4297 25.5 34.7865 25.5 35.5M30.5 35.5C30.5 36.4346 30.5 36.9019 30.299 37.25C30.1674 37.478 29.978 37.6674 29.75 37.799C29.4019 38 28.9346 38 28 38C27.0654 38 26.5981 38 26.25 37.799C26.022 37.6674 25.8326 37.478 25.701 37.25C25.5 36.9019 25.5 36.4346 25.5 35.5" stroke="#3381D1" stroke-width="1.5"/>
<path d="M28.7856 24.5L26.6427 27.5H29.6427L27.4999 30.5" stroke="#3381D1" stroke-width="1.5" stroke-linecap="round" stroke-linejoin="round"/>
<path d="M45.89 34V21.4H51.2C52.544 21.4 53.726 21.664 54.746 22.192C55.778 22.72 56.576 23.458 57.14 24.406C57.716 25.354 58.004 26.452 58.004 27.7C58.004 28.948 57.716 30.046 57.14 30.994C56.576 31.942 55.778 32.68 54.746 33.208C53.726 33.736 52.544 34 51.2 34H45.89ZM47.69 32.434H51.092C52.136 32.434 53.036 32.236 53.792 31.84C54.56 31.444 55.154 30.892 55.574 30.184C55.994 29.464 56.204 28.636 56.204 27.7C56.204 26.752 55.994 25.924 55.574 25.216C55.154 24.508 54.56 23.956 53.792 23.56C53.036 23.164 52.136 22.966 51.092 22.966H47.69V32.434ZM60.5091 34V24.46H62.2371V34H60.5091ZM61.3731 22.624C61.0371 22.624 60.7551 22.516 60.5271 22.3C60.3111 22.084 60.2031 21.82 60.2031 21.508C60.2031 21.184 60.3111 20.914 60.5271 20.698C60.7551 20.482 61.0371 20.374 61.3731 20.374C61.7091 20.374 61.9851 20.482 62.2011 20.698C62.4291 20.902 62.5431 21.16 62.5431 21.472C62.5431 21.796 62.4351 22.072 62.2191 22.3C62.0031 22.516 61.7211 22.624 61.3731 22.624ZM69.4784 34.108C68.5544 34.108 67.7264 33.904 66.9944 33.496C66.2744 33.088 65.7044 32.518 65.2844 31.786C64.8644 31.054 64.6544 30.202 64.6544 29.23C64.6544 28.258 64.8644 27.412 65.2844 26.692C65.7044 25.96 66.2744 25.39 66.9944 24.982C67.7264 24.574 68.5544 24.37 69.4784 24.37C70.2824 24.37 71.0084 24.55 71.6564 24.91C72.3044 25.27 72.8204 25.81 73.2044 26.53C73.6004 27.25 73.7984 28.15 73.7984 29.23C73.7984 30.31 73.6064 31.21 73.2224 31.93C72.8504 32.65 72.3404 33.196 71.6924 33.568C71.0444 33.928 70.3064 34.108 69.4784 34.108ZM69.6224 32.596C70.2224 32.596 70.7624 32.458 71.2424 32.182C71.7344 31.906 72.1184 31.516 72.3944 31.012C72.6824 30.496 72.8264 29.902 72.8264 29.23C72.8264 28.546 72.6824 27.958 72.3944 27.466C72.1184 26.962 71.7344 26.572 71.2424 26.296C70.7624 26.02 70.2224 25.882 69.6224 25.882C69.0104 25.882 68.4644 26.02 67.9844 26.296C67.5044 26.572 67.1204 26.962 66.8324 27.466C66.5444 27.958 66.4004 28.546 66.4004 29.23C66.4004 29.902 66.5444 30.496 66.8324 31.012C67.1204 31.516 67.5044 31.906 67.9844 32.182C68.4644 32.458 69.0104 32.596 69.6224 32.596ZM72.8804 34V31.426L72.9884 29.212L72.8084 26.998V20.644H74.5364V34H72.8804ZM83.054 37.6C82.598 37.6 82.154 37.522 81.722 37.366C81.29 37.222 80.918 37.006 80.606 36.718L81.344 35.422C81.584 35.65 81.848 35.824 82.136 35.944C82.424 36.064 82.73 36.124 83.054 36.124C83.474 36.124 83.822 36.016 84.098 35.8C84.374 35.584 84.632 35.2 84.872 34.648L85.466 33.334L85.646 33.118L89.39 24.46H91.082L86.456 34.954C86.18 35.626 85.868 36.154 85.52 36.538C85.184 36.922 84.812 37.192 84.404 37.348C83.996 37.516 83.546 37.6 83.054 37.6ZM85.322 34.306L80.966 24.46H82.766L86.474 32.956L85.322 34.306ZM96.517 34.108C95.557 34.108 94.705 33.898 93.961 33.478C93.217 33.058 92.629 32.482 92.197 31.75C91.765 31.006 91.549 30.166 91.549 29.23C91.549 28.282 91.765 27.442 92.197 26.71C92.629 25.978 93.217 25.408 93.961 25C94.705 24.58 95.557 24.37 96.517 24.37C97.465 24.37 98.311 24.58 99.055 25C99.811 25.408 100.399 25.978 100.819 26.71C101.251 27.43 101.467 28.27 101.467 29.23C101.467 30.178 101.251 31.018 100.819 31.75C100.399 32.482 99.811 33.058 99.055 33.478C98.311 33.898 97.465 34.108 96.517 34.108ZM96.517 32.596C97.129 32.596 97.675 32.458 98.155 32.182C98.647 31.906 99.031 31.516 99.307 31.012C99.583 30.496 99.721 29.902 99.721 29.23C99.721 28.546 99.583 27.958 99.307 27.466C99.031 26.962 98.647 26.572 98.155 26.296C97.675 26.02 97.129 25.882 96.517 25.882C95.905 25.882 95.359 26.02 94.879 26.296C94.399 26.572 94.015 26.962 93.727 27.466C93.439 27.958 93.295 28.546 93.295 29.23C93.295 29.902 93.439 30.496 93.727 31.012C94.015 31.516 94.399 31.906 94.879 32.182C95.359 32.458 95.905 32.596 96.517 32.596ZM107.871 34.108C107.055 34.108 106.335 33.958 105.711 33.658C105.099 33.358 104.619 32.902 104.271 32.29C103.935 31.666 103.767 30.886 103.767 29.95V24.46H105.495V29.752C105.495 30.688 105.717 31.39 106.161 31.858C106.617 32.326 107.253 32.56 108.069 32.56C108.669 32.56 109.191 32.44 109.635 32.2C110.079 31.948 110.421 31.588 110.661 31.12C110.901 30.64 111.021 30.064 111.021 29.392V24.46H112.749V34H111.111V31.426L111.381 32.11C111.069 32.746 110.601 33.238 109.977 33.586C109.353 33.934 108.651 34.108 107.871 34.108ZM122.276 31.696L122.312 29.482L127.802 24.46H129.89L125.678 28.6L124.742 29.392L122.276 31.696ZM120.872 34V20.644H122.6V34H120.872ZM128.162 34L124.418 29.356L125.534 27.97L130.286 34H128.162ZM131.824 34V24.46H133.48V27.034L133.21 26.35C133.522 25.726 134.002 25.24 134.65 24.892C135.298 24.544 136.054 24.37 136.918 24.37C137.698 24.37 138.382 24.52 138.97 24.82C139.57 25.12 140.038 25.576 140.374 26.188C140.71 26.8 140.878 27.574 140.878 28.51V34H139.15V28.708C139.15 27.784 138.922 27.088 138.466 26.62C138.022 26.152 137.392 25.918 136.576 25.918C135.964 25.918 135.43 26.038 134.974 26.278C134.518 26.518 134.164 26.872 133.912 27.34C133.672 27.808 133.552 28.39 133.552 29.086V34H131.824ZM148.162 34.108C147.202 34.108 146.35 33.898 145.606 33.478C144.862 33.058 144.274 32.482 143.842 31.75C143.41 31.006 143.194 30.166 143.194 29.23C143.194 28.282 143.41 27.442 143.842 26.71C144.274 25.978 144.862 25.408 145.606 25C146.35 24.58 147.202 24.37 148.162 24.37C149.11 24.37 149.956 24.58 150.7 25C151.456 25.408 152.044 25.978 152.464 26.71C152.896 27.43 153.112 28.27 153.112 29.23C153.112 30.178 152.896 31.018 152.464 31.75C152.044 32.482 151.456 33.058 150.7 33.478C149.956 33.898 149.11 34.108 148.162 34.108ZM148.162 32.596C148.774 32.596 149.32 32.458 149.8 32.182C150.292 31.906 150.676 31.516 150.952 31.012C151.228 30.496 151.366 29.902 151.366 29.23C151.366 28.546 151.228 27.958 150.952 27.466C150.676 26.962 150.292 26.572 149.8 26.296C149.32 26.02 148.774 25.882 148.162 25.882C147.55 25.882 147.004 26.02 146.524 26.296C146.044 26.572 145.66 26.962 145.372 27.466C145.084 27.958 144.94 28.546 144.94 29.23C144.94 29.902 145.084 30.496 145.372 31.012C145.66 31.516 146.044 31.906 146.524 32.182C147.004 32.458 147.55 32.596 148.162 32.596ZM157.254 34L153.708 24.46H155.346L158.496 33.1H157.722L160.998 24.46H162.456L165.66 33.1H164.904L168.126 24.46H169.674L166.11 34H164.454L161.448 26.116H161.952L158.91 34H157.254ZM174.491 30.022C174.491 29.554 174.569 29.146 174.725 28.798C174.881 28.45 175.073 28.138 175.301 27.862C175.541 27.586 175.799 27.334 176.075 27.106C176.351 26.866 176.609 26.632 176.849 26.404C177.089 26.164 177.281 25.912 177.425 25.648C177.581 25.384 177.659 25.078 177.659 24.73C177.659 24.154 177.431 23.686 176.975 23.326C176.519 22.966 175.889 22.786 175.085 22.786C174.365 22.786 173.741 22.906 173.213 23.146C172.685 23.386 172.235 23.74 171.863 24.208L170.549 23.272C171.053 22.636 171.695 22.144 172.475 21.796C173.255 21.436 174.167 21.256 175.211 21.256C176.075 21.256 176.825 21.388 177.461 21.652C178.097 21.904 178.589 22.27 178.937 22.75C179.297 23.218 179.477 23.788 179.477 24.46C179.477 24.964 179.399 25.396 179.243 25.756C179.087 26.116 178.889 26.434 178.649 26.71C178.409 26.986 178.151 27.244 177.875 27.484C177.611 27.724 177.359 27.964 177.119 28.204C176.879 28.444 176.681 28.708 176.525 28.996C176.369 29.284 176.291 29.626 176.291 30.022H174.491ZM175.409 34.108C175.073 34.108 174.791 33.994 174.563 33.766C174.347 33.538 174.239 33.268 174.239 32.956C174.239 32.62 174.347 32.344 174.563 32.128C174.791 31.912 175.073 31.804 175.409 31.804C175.745 31.804 176.021 31.912 176.237 32.128C176.453 32.344 176.561 32.62 176.561 32.956C176.561 33.268 176.453 33.538 176.237 33.766C176.021 33.994 175.745 34.108 175.409 34.108Z" fill="#9CB4C8"/>
<path d="M29.342 57.242L26.514 67H25.086L22.818 59.146L20.466 67L19.052 67.014L16.322 57.242H17.68L19.808 65.516L22.16 57.242H23.588L25.828 65.488L27.97 57.242H29.342ZM30.2602 63.136C30.2602 62.352 30.4189 61.666 30.7362 61.078C31.0535 60.4807 31.4875 60.0187 32.0382 59.692C32.5982 59.3653 33.2189 59.202 33.9002 59.202C34.5722 59.202 35.1555 59.3467 35.6502 59.636C36.1449 59.9253 36.5135 60.2893 36.7562 60.728V59.328H38.0442V67H36.7562V65.572C36.5042 66.02 36.1262 66.3933 35.6222 66.692C35.1275 66.9813 34.5489 67.126 33.8862 67.126C33.2049 67.126 32.5889 66.958 32.0382 66.622C31.4875 66.286 31.0535 65.8147 30.7362 65.208C30.4189 64.6013 30.2602 63.9107 30.2602 63.136ZM36.7562 63.15C36.7562 62.5713 36.6395 62.0673 36.4062 61.638C36.1729 61.2087 35.8555 60.882 35.4542 60.658C35.0622 60.4247 34.6282 60.308 34.1522 60.308C33.6762 60.308 33.2422 60.42 32.8502 60.644C32.4582 60.868 32.1455 61.1947 31.9122 61.624C31.6789 62.0533 31.5622 62.5573 31.5622 63.136C31.5622 63.724 31.6789 64.2373 31.9122 64.676C32.1455 65.1053 32.4582 65.4367 32.8502 65.67C33.2422 65.894 33.6762 66.006 34.1522 66.006C34.6282 66.006 35.0622 65.894 35.4542 65.67C35.8555 65.4367 36.1729 65.1053 36.4062 64.676C36.6395 64.2373 36.7562 63.7287 36.7562 63.15ZM41.4711 56.64V67H40.1971V56.64H41.4711ZM47.9265 67L44.9165 63.612V67H43.6425V56.64H44.9165V62.73L47.8705 59.328H49.6485L46.0365 63.15L49.6625 67H47.9265ZM51.5055 58.082C51.2629 58.082 51.0575 57.998 50.8895 57.83C50.7215 57.662 50.6375 57.4567 50.6375 57.214C50.6375 56.9713 50.7215 56.766 50.8895 56.598C51.0575 56.43 51.2629 56.346 51.5055 56.346C51.7389 56.346 51.9349 56.43 52.0935 56.598C52.2615 56.766 52.3455 56.9713 52.3455 57.214C52.3455 57.4567 52.2615 57.662 52.0935 57.83C51.9349 57.998 51.7389 58.082 51.5055 58.082ZM52.1215 59.328V67H50.8475V59.328H52.1215ZM58.0308 59.188C58.9642 59.188 59.7202 59.4727 60.2988 60.042C60.8775 60.602 61.1668 61.414 61.1668 62.478V67H59.9068V62.66C59.9068 61.8947 59.7155 61.3113 59.3328 60.91C58.9502 60.4993 58.4275 60.294 57.7648 60.294C57.0928 60.294 56.5562 60.504 56.1548 60.924C55.7628 61.344 55.5668 61.9553 55.5668 62.758V67H54.2928V59.328H55.5668V60.42C55.8188 60.028 56.1595 59.7247 56.5888 59.51C57.0275 59.2953 57.5082 59.188 58.0308 59.188ZM66.4119 59.202C67.0746 59.202 67.6533 59.3467 68.1479 59.636C68.6519 59.9253 69.0253 60.2893 69.2679 60.728V59.328H70.5559V67.168C70.5559 67.868 70.4066 68.4887 70.1079 69.03C69.8093 69.5807 69.3799 70.01 68.8199 70.318C68.2693 70.626 67.6253 70.78 66.8879 70.78C65.8799 70.78 65.0399 70.542 64.3679 70.066C63.6959 69.59 63.2993 68.9413 63.1779 68.12H64.4379C64.5779 68.5867 64.8673 68.96 65.3059 69.24C65.7446 69.5293 66.2719 69.674 66.8879 69.674C67.5879 69.674 68.1573 69.4547 68.5959 69.016C69.0439 68.5773 69.2679 67.9613 69.2679 67.168V65.558C69.0159 66.006 68.6426 66.3793 68.1479 66.678C67.6533 66.9767 67.0746 67.126 66.4119 67.126C65.7306 67.126 65.1099 66.958 64.5499 66.622C63.9993 66.286 63.5653 65.8147 63.2479 65.208C62.9306 64.6013 62.7719 63.9107 62.7719 63.136C62.7719 62.352 62.9306 61.666 63.2479 61.078C63.5653 60.4807 63.9993 60.0187 64.5499 59.692C65.1099 59.3653 65.7306 59.202 66.4119 59.202ZM69.2679 63.15C69.2679 62.5713 69.1513 62.0673 68.9179 61.638C68.6846 61.2087 68.3673 60.882 67.9659 60.658C67.5739 60.4247 67.1399 60.308 66.6639 60.308C66.1879 60.308 65.7539 60.42 65.3619 60.644C64.9699 60.868 64.6573 61.1947 64.4239 61.624C64.1906 62.0533 64.0739 62.5573 64.0739 63.136C64.0739 63.724 64.1906 64.2373 64.4239 64.676C64.6573 65.1053 64.9699 65.4367 65.3619 65.67C65.7539 65.894 66.1879 66.006 66.6639 66.006C67.1399 66.006 67.5739 65.894 67.9659 65.67C68.3673 65.4367 68.6846 65.1053 68.9179 64.676C69.1513 64.2373 69.2679 63.7287 69.2679 63.15ZM79.7873 67.126C79.0686 67.126 78.4153 66.9627 77.8273 66.636C77.2486 66.3093 76.7913 65.8473 76.4553 65.25C76.1286 64.6433 75.9653 63.9433 75.9653 63.15C75.9653 62.366 76.1333 61.6753 76.4693 61.078C76.8146 60.4713 77.2813 60.0093 77.8693 59.692C78.4573 59.3653 79.1153 59.202 79.8433 59.202C80.5713 59.202 81.2293 59.3653 81.8173 59.692C82.4053 60.0093 82.8673 60.4667 83.2033 61.064C83.5486 61.6613 83.7213 62.3567 83.7213 63.15C83.7213 63.9433 83.5439 64.6433 83.1893 65.25C82.8439 65.8473 82.3726 66.3093 81.7753 66.636C81.1779 66.9627 80.5153 67.126 79.7873 67.126ZM79.7873 66.006C80.2446 66.006 80.6739 65.8987 81.0753 65.684C81.4766 65.4693 81.7986 65.1473 82.0413 64.718C82.2933 64.2887 82.4193 63.766 82.4193 63.15C82.4193 62.534 82.2979 62.0113 82.0553 61.582C81.8126 61.1527 81.4953 60.8353 81.1033 60.63C80.7113 60.4153 80.2866 60.308 79.8293 60.308C79.3626 60.308 78.9333 60.4153 78.5413 60.63C78.1586 60.8353 77.8506 61.1527 77.6173 61.582C77.3839 62.0113 77.2673 62.534 77.2673 63.15C77.2673 63.7753 77.3793 64.3027 77.6033 64.732C77.8366 65.1613 78.1446 65.4833 78.5273 65.698C78.9099 65.9033 79.3299 66.006 79.7873 66.006ZM92.2004 59.328V67H90.9264V65.866C90.6837 66.258 90.343 66.566 89.9044 66.79C89.475 67.0047 88.999 67.112 88.4764 67.112C87.879 67.112 87.3424 66.9907 86.8664 66.748C86.3904 66.496 86.0124 66.1227 85.7324 65.628C85.4617 65.1333 85.3264 64.5313 85.3264 63.822V59.328H86.5864V63.654C86.5864 64.41 86.7777 64.9933 87.1604 65.404C87.543 65.8053 88.0657 66.006 88.7284 66.006C89.4097 66.006 89.9464 65.796 90.3384 65.376C90.7304 64.956 90.9264 64.3447 90.9264 63.542V59.328H92.2004ZM95.9054 60.378V64.9C95.9054 65.2733 95.9848 65.5393 96.1434 65.698C96.3021 65.8473 96.5774 65.922 96.9694 65.922H97.9074V67H96.7594C96.0501 67 95.5181 66.8367 95.1634 66.51C94.8088 66.1833 94.6314 65.6467 94.6314 64.9V60.378H93.6374V59.328H94.6314V57.396H95.9054V59.328H97.9074V60.378H95.9054ZM102.167 67.126C101.579 67.126 101.052 67.028 100.585 66.832C100.118 66.6267 99.7497 66.3467 99.479 65.992C99.2084 65.628 99.059 65.2127 99.031 64.746H100.347C100.384 65.1287 100.562 65.4413 100.879 65.684C101.206 65.9267 101.63 66.048 102.153 66.048C102.638 66.048 103.021 65.9407 103.301 65.726C103.581 65.5113 103.721 65.2407 103.721 64.914C103.721 64.578 103.572 64.3307 103.273 64.172C102.974 64.004 102.512 63.8407 101.887 63.682C101.318 63.5327 100.851 63.3833 100.487 63.234C100.132 63.0753 99.8244 62.8467 99.563 62.548C99.311 62.24 99.185 61.8387 99.185 61.344C99.185 60.952 99.3017 60.5927 99.535 60.266C99.7684 59.9393 100.1 59.6827 100.529 59.496C100.958 59.3 101.448 59.202 101.999 59.202C102.848 59.202 103.534 59.4167 104.057 59.846C104.58 60.2753 104.86 60.8633 104.897 61.61H103.623C103.595 61.2087 103.432 60.8867 103.133 60.644C102.844 60.4013 102.452 60.28 101.957 60.28C101.5 60.28 101.136 60.378 100.865 60.574C100.594 60.77 100.459 61.0267 100.459 61.344C100.459 61.596 100.538 61.806 100.697 61.974C100.865 62.1327 101.07 62.2633 101.313 62.366C101.565 62.4593 101.91 62.5667 102.349 62.688C102.9 62.8373 103.348 62.9867 103.693 63.136C104.038 63.276 104.332 63.4907 104.575 63.78C104.827 64.0693 104.958 64.4473 104.967 64.914C104.967 65.334 104.85 65.712 104.617 66.048C104.384 66.384 104.052 66.65 103.623 66.846C103.203 67.0327 102.718 67.126 102.167 67.126ZM107.424 58.082C107.181 58.082 106.976 57.998 106.808 57.83C106.64 57.662 106.556 57.4567 106.556 57.214C106.556 56.9713 106.64 56.766 106.808 56.598C106.976 56.43 107.181 56.346 107.424 56.346C107.657 56.346 107.853 56.43 108.012 56.598C108.18 56.766 108.264 56.9713 108.264 57.214C108.264 57.4567 108.18 57.662 108.012 57.83C107.853 57.998 107.657 58.082 107.424 58.082ZM108.04 59.328V67H106.766V59.328H108.04ZM109.735 63.136C109.735 62.352 109.893 61.666 110.211 61.078C110.528 60.4807 110.962 60.0187 111.513 59.692C112.073 59.3653 112.698 59.202 113.389 59.202C113.986 59.202 114.541 59.342 115.055 59.622C115.568 59.8927 115.96 60.252 116.231 60.7V56.64H117.519V67H116.231V65.558C115.979 66.0153 115.605 66.3933 115.111 66.692C114.616 66.9813 114.037 67.126 113.375 67.126C112.693 67.126 112.073 66.958 111.513 66.622C110.962 66.286 110.528 65.8147 110.211 65.208C109.893 64.6013 109.735 63.9107 109.735 63.136ZM116.231 63.15C116.231 62.5713 116.114 62.0673 115.881 61.638C115.647 61.2087 115.33 60.882 114.929 60.658C114.537 60.4247 114.103 60.308 113.627 60.308C113.151 60.308 112.717 60.42 112.325 60.644C111.933 60.868 111.62 61.1947 111.387 61.624C111.153 62.0533 111.037 62.5573 111.037 63.136C111.037 63.724 111.153 64.2373 111.387 64.676C111.62 65.1053 111.933 65.4367 112.325 65.67C112.717 65.894 113.151 66.006 113.627 66.006C114.103 66.006 114.537 65.894 114.929 65.67C115.33 65.4367 115.647 65.1053 115.881 64.676C116.114 64.2373 116.231 63.7287 116.231 63.15ZM126.672 62.87C126.672 63.1127 126.658 63.3693 126.63 63.64H120.498C120.544 64.396 120.801 64.9887 121.268 65.418C121.744 65.838 122.318 66.048 122.99 66.048C123.54 66.048 123.998 65.922 124.362 65.67C124.735 65.4087 124.996 65.0633 125.146 64.634H126.518C126.312 65.3713 125.902 65.9733 125.286 66.44C124.67 66.8973 123.904 67.126 122.99 67.126C122.262 67.126 121.608 66.9627 121.03 66.636C120.46 66.3093 120.012 65.8473 119.686 65.25C119.359 64.6433 119.196 63.9433 119.196 63.15C119.196 62.3567 119.354 61.6613 119.672 61.064C119.989 60.4667 120.432 60.0093 121.002 59.692C121.58 59.3653 122.243 59.202 122.99 59.202C123.718 59.202 124.362 59.3607 124.922 59.678C125.482 59.9953 125.911 60.434 126.21 60.994C126.518 61.5447 126.672 62.17 126.672 62.87ZM125.356 62.604C125.356 62.1187 125.248 61.7033 125.034 61.358C124.819 61.0033 124.525 60.7373 124.152 60.56C123.788 60.3733 123.382 60.28 122.934 60.28C122.29 60.28 121.739 60.4853 121.282 60.896C120.834 61.3067 120.577 61.876 120.512 62.604H125.356ZM132.744 58.082C132.501 58.082 132.296 57.998 132.128 57.83C131.96 57.662 131.876 57.4567 131.876 57.214C131.876 56.9713 131.96 56.766 132.128 56.598C132.296 56.43 132.501 56.346 132.744 56.346C132.977 56.346 133.173 56.43 133.332 56.598C133.5 56.766 133.584 56.9713 133.584 57.214C133.584 57.4567 133.5 57.662 133.332 57.83C133.173 57.998 132.977 58.082 132.744 58.082ZM133.36 59.328V67H132.086V59.328H133.36ZM139.269 59.188C140.202 59.188 140.958 59.4727 141.537 60.042C142.116 60.602 142.405 61.414 142.405 62.478V67H141.145V62.66C141.145 61.8947 140.954 61.3113 140.571 60.91C140.188 60.4993 139.666 60.294 139.003 60.294C138.331 60.294 137.794 60.504 137.393 60.924C137.001 61.344 136.805 61.9553 136.805 62.758V67H135.531V59.328H136.805V60.42C137.057 60.028 137.398 59.7247 137.827 59.51C138.266 59.2953 138.746 59.188 139.269 59.188ZM144.01 63.15C144.01 62.3567 144.169 61.666 144.486 61.078C144.804 60.4807 145.242 60.0187 145.802 59.692C146.372 59.3653 147.02 59.202 147.748 59.202C148.691 59.202 149.466 59.4307 150.072 59.888C150.688 60.3453 151.094 60.98 151.29 61.792H149.918C149.788 61.3253 149.531 60.9567 149.148 60.686C148.775 60.4153 148.308 60.28 147.748 60.28C147.02 60.28 146.432 60.532 145.984 61.036C145.536 61.5307 145.312 62.2353 145.312 63.15C145.312 64.074 145.536 64.788 145.984 65.292C146.432 65.796 147.02 66.048 147.748 66.048C148.308 66.048 148.775 65.9173 149.148 65.656C149.522 65.3947 149.778 65.0213 149.918 64.536H151.29C151.085 65.32 150.674 65.95 150.058 66.426C149.442 66.8927 148.672 67.126 147.748 67.126C147.02 67.126 146.372 66.9627 145.802 66.636C145.242 66.3093 144.804 65.8473 144.486 65.25C144.169 64.6527 144.01 63.9527 144.01 63.15ZM154.264 60.574C154.488 60.1353 154.805 59.7947 155.216 59.552C155.636 59.3093 156.145 59.188 156.742 59.188V60.504H156.406C154.978 60.504 154.264 61.2787 154.264 62.828V67H152.99V59.328H154.264V60.574ZM165.213 62.87C165.213 63.1127 165.199 63.3693 165.171 63.64H159.039C159.085 64.396 159.342 64.9887 159.809 65.418C160.285 65.838 160.859 66.048 161.531 66.048C162.081 66.048 162.539 65.922 162.903 65.67C163.276 65.4087 163.537 65.0633 163.687 64.634H165.059C164.853 65.3713 164.443 65.9733 163.827 66.44C163.211 66.8973 162.445 67.126 161.531 67.126C160.803 67.126 160.149 66.9627 159.571 66.636C159.001 66.3093 158.553 65.8473 158.227 65.25C157.9 64.6433 157.737 63.9433 157.737 63.15C157.737 62.3567 157.895 61.6613 158.213 61.064C158.53 60.4667 158.973 60.0093 159.543 59.692C160.121 59.3653 160.784 59.202 161.531 59.202C162.259 59.202 162.903 59.3607 163.463 59.678C164.023 59.9953 164.452 60.434 164.751 60.994C165.059 61.5447 165.213 62.17 165.213 62.87ZM163.897 62.604C163.897 62.1187 163.789 61.7033 163.575 61.358C163.36 61.0033 163.066 60.7373 162.693 60.56C162.329 60.3733 161.923 60.28 161.475 60.28C160.831 60.28 160.28 60.4853 159.823 60.896C159.375 61.3067 159.118 61.876 159.053 62.604H163.897ZM166.418 63.136C166.418 62.352 166.577 61.666 166.894 61.078C167.212 60.4807 167.646 60.0187 168.196 59.692C168.756 59.3653 169.377 59.202 170.058 59.202C170.73 59.202 171.314 59.3467 171.808 59.636C172.303 59.9253 172.672 60.2893 172.914 60.728V59.328H174.202V67H172.914V65.572C172.662 66.02 172.284 66.3933 171.78 66.692C171.286 66.9813 170.707 67.126 170.044 67.126C169.363 67.126 168.747 66.958 168.196 66.622C167.646 66.286 167.212 65.8147 166.894 65.208C166.577 64.6013 166.418 63.9107 166.418 63.136ZM172.914 63.15C172.914 62.5713 172.798 62.0673 172.564 61.638C172.331 61.2087 172.014 60.882 171.612 60.658C171.22 60.4247 170.786 60.308 170.31 60.308C169.834 60.308 169.4 60.42 169.008 60.644C168.616 60.868 168.304 61.1947 168.07 61.624C167.837 62.0533 167.72 62.5573 167.72 63.136C167.72 63.724 167.837 64.2373 168.07 64.676C168.304 65.1053 168.616 65.4367 169.008 65.67C169.4 65.894 169.834 66.006 170.31 66.006C170.786 66.006 171.22 65.894 171.612 65.67C172.014 65.4367 172.331 65.1053 172.564 64.676C172.798 64.2373 172.914 63.7287 172.914 63.15ZM179.071 67.126C178.483 67.126 177.956 67.028 177.489 66.832C177.023 66.6267 176.654 66.3467 176.383 65.992C176.113 65.628 175.963 65.2127 175.935 64.746H177.251C177.289 65.1287 177.466 65.4413 177.783 65.684C178.11 65.9267 178.535 66.048 179.057 66.048C179.543 66.048 179.925 65.9407 180.205 65.726C180.485 65.5113 180.625 65.2407 180.625 64.914C180.625 64.578 180.476 64.3307 180.177 64.172C179.879 64.004 179.417 63.8407 178.791 63.682C178.222 63.5327 177.755 63.3833 177.391 63.234C177.037 63.0753 176.729 62.8467 176.467 62.548C176.215 62.24 176.089 61.8387 176.089 61.344C176.089 60.952 176.206 60.5927 176.439 60.266C176.673 59.9393 177.004 59.6827 177.433 59.496C177.863 59.3 178.353 59.202 178.903 59.202C179.753 59.202 180.439 59.4167 180.961 59.846C181.484 60.2753 181.764 60.8633 181.801 61.61H180.527C180.499 61.2087 180.336 60.8867 180.037 60.644C179.748 60.4013 179.356 60.28 178.861 60.28C178.404 60.28 178.04 60.378 177.769 60.574C177.499 60.77 177.363 61.0267 177.363 61.344C177.363 61.596 177.443 61.806 177.601 61.974C177.769 62.1327 177.975 62.2633 178.217 62.366C178.469 62.4593 178.815 62.5667 179.253 62.688C179.804 62.8373 180.252 62.9867 180.597 63.136C180.943 63.276 181.237 63.4907 181.479 63.78C181.731 64.0693 181.862 64.4473 181.871 64.914C181.871 65.334 181.755 65.712 181.521 66.048C181.288 66.384 180.957 66.65 180.527 66.846C180.107 67.0327 179.622 67.126 179.071 67.126ZM190.67 62.87C190.67 63.1127 190.656 63.3693 190.628 63.64H184.496C184.542 64.396 184.799 64.9887 185.266 65.418C185.742 65.838 186.316 66.048 186.988 66.048C187.538 66.048 187.996 65.922 188.36 65.67C188.733 65.4087 188.994 65.0633 189.144 64.634H190.516C190.31 65.3713 189.9 65.9733 189.284 66.44C188.668 66.8973 187.902 67.126 186.988 67.126C186.26 67.126 185.606 66.9627 185.028 66.636C184.458 66.3093 184.01 65.8473 183.684 65.25C183.357 64.6433 183.194 63.9433 183.194 63.15C183.194 62.3567 183.352 61.6613 183.67 61.064C183.987 60.4667 184.43 60.0093 185 59.692C185.578 59.3653 186.241 59.202 186.988 59.202C187.716 59.202 188.36 59.3607 188.92 59.678C189.48 59.9953 189.909 60.434 190.208 60.994C190.516 61.5447 190.67 62.17 190.67 62.87ZM189.354 62.604C189.354 62.1187 189.246 61.7033 189.032 61.358C188.817 61.0033 188.523 60.7373 188.15 60.56C187.786 60.3733 187.38 60.28 186.932 60.28C186.288 60.28 185.737 60.4853 185.28 60.896C184.832 61.3067 184.575 61.876 184.51 62.604H189.354ZM195.067 67.126C194.479 67.126 193.952 67.028 193.485 66.832C193.019 66.6267 192.65 66.3467 192.379 65.992C192.109 65.628 191.959 65.2127 191.931 64.746H193.247C193.285 65.1287 193.462 65.4413 193.779 65.684C194.106 65.9267 194.531 66.048 195.053 66.048C195.539 66.048 195.921 65.9407 196.201 65.726C196.481 65.5113 196.621 65.2407 196.621 64.914C196.621 64.578 196.472 64.3307 196.173 64.172C195.875 64.004 195.413 63.8407 194.787 63.682C194.218 63.5327 193.751 63.3833 193.387 63.234C193.033 63.0753 192.725 62.8467 192.463 62.548C192.211 62.24 192.085 61.8387 192.085 61.344C192.085 60.952 192.202 60.5927 192.435 60.266C192.669 59.9393 193 59.6827 193.429 59.496C193.859 59.3 194.349 59.202 194.899 59.202C195.749 59.202 196.435 59.4167 196.957 59.846C197.48 60.2753 197.76 60.8633 197.797 61.61H196.523C196.495 61.2087 196.332 60.8867 196.033 60.644C195.744 60.4013 195.352 60.28 194.857 60.28C194.4 60.28 194.036 60.378 193.765 60.574C193.495 60.77 193.359 61.0267 193.359 61.344C193.359 61.596 193.439 61.806 193.597 61.974C193.765 62.1327 193.971 62.2633 194.213 62.366C194.465 62.4593 194.811 62.5667 195.249 62.688C195.8 62.8373 196.248 62.9867 196.593 63.136C196.939 63.276 197.233 63.4907 197.475 63.78C197.727 64.0693 197.858 64.4473 197.867 64.914C197.867 65.334 197.751 65.712 197.517 66.048C197.284 66.384 196.953 66.65 196.523 66.846C196.103 67.0327 195.618 67.126 195.067 67.126ZM206.114 67.126C205.526 67.126 204.999 67.028 204.532 66.832C204.066 66.6267 203.697 66.3467 203.426 65.992C203.156 65.628 203.006 65.2127 202.978 64.746H204.294C204.332 65.1287 204.509 65.4413 204.826 65.684C205.153 65.9267 205.578 66.048 206.1 66.048C206.586 66.048 206.968 65.9407 207.248 65.726C207.528 65.5113 207.668 65.2407 207.668 64.914C207.668 64.578 207.519 64.3307 207.22 64.172C206.922 64.004 206.46 63.8407 205.834 63.682C205.265 63.5327 204.798 63.3833 204.434 63.234C204.08 63.0753 203.772 62.8467 203.51 62.548C203.258 62.24 203.132 61.8387 203.132 61.344C203.132 60.952 203.249 60.5927 203.482 60.266C203.716 59.9393 204.047 59.6827 204.476 59.496C204.906 59.3 205.396 59.202 205.946 59.202C206.796 59.202 207.482 59.4167 208.004 59.846C208.527 60.2753 208.807 60.8633 208.844 61.61H207.57C207.542 61.2087 207.379 60.8867 207.08 60.644C206.791 60.4013 206.399 60.28 205.904 60.28C205.447 60.28 205.083 60.378 204.812 60.574C204.542 60.77 204.406 61.0267 204.406 61.344C204.406 61.596 204.486 61.806 204.644 61.974C204.812 62.1327 205.018 62.2633 205.26 62.366C205.512 62.4593 205.858 62.5667 206.296 62.688C206.847 62.8373 207.295 62.9867 207.64 63.136C207.986 63.276 208.28 63.4907 208.522 63.78C208.774 64.0693 208.905 64.4473 208.914 64.914C208.914 65.334 208.798 65.712 208.564 66.048C208.331 66.384 208 66.65 207.57 66.846C207.15 67.0327 206.665 67.126 206.114 67.126ZM217.713 62.87C217.713 63.1127 217.699 63.3693 217.671 63.64H211.539C211.585 64.396 211.842 64.9887 212.309 65.418C212.785 65.838 213.359 66.048 214.031 66.048C214.581 66.048 215.039 65.922 215.403 65.67C215.776 65.4087 216.037 65.0633 216.187 64.634H217.559C217.353 65.3713 216.943 65.9733 216.327 66.44C215.711 66.8973 214.945 67.126 214.031 67.126C213.303 67.126 212.649 66.9627 212.071 66.636C211.501 66.3093 211.053 65.8473 210.727 65.25C210.4 64.6433 210.237 63.9433 210.237 63.15C210.237 62.3567 210.395 61.6613 210.713 61.064C211.03 60.4667 211.473 60.0093 212.043 59.692C212.621 59.3653 213.284 59.202 214.031 59.202C214.759 59.202 215.403 59.3607 215.963 59.678C216.523 59.9953 216.952 60.434 217.251 60.994C217.559 61.5447 217.713 62.17 217.713 62.87ZM216.397 62.604C216.397 62.1187 216.289 61.7033 216.075 61.358C215.86 61.0033 215.566 60.7373 215.193 60.56C214.829 60.3733 214.423 60.28 213.975 60.28C213.331 60.28 212.78 60.4853 212.323 60.896C211.875 61.3067 211.618 61.876 211.553 62.604H216.397ZM220.668 60.574C220.892 60.1353 221.21 59.7947 221.62 59.552C222.04 59.3093 222.549 59.188 223.146 59.188V60.504H222.81C221.382 60.504 220.668 61.2787 220.668 62.828V67H219.394V59.328H220.668V60.574ZM227.963 67.126C227.244 67.126 226.591 66.9627 226.003 66.636C225.424 66.3093 224.967 65.8473 224.631 65.25C224.304 64.6433 224.141 63.9433 224.141 63.15C224.141 62.366 224.309 61.6753 224.645 61.078C224.99 60.4713 225.457 60.0093 226.045 59.692C226.633 59.3653 227.291 59.202 228.019 59.202C228.747 59.202 229.405 59.3653 229.993 59.692C230.581 60.0093 231.043 60.4667 231.379 61.064C231.724 61.6613 231.897 62.3567 231.897 63.15C231.897 63.9433 231.72 64.6433 231.365 65.25C231.02 65.8473 230.548 66.3093 229.951 66.636C229.354 66.9627 228.691 67.126 227.963 67.126ZM227.963 66.006C228.42 66.006 228.85 65.8987 229.251 65.684C229.652 65.4693 229.974 65.1473 230.217 64.718C230.469 64.2887 230.595 63.766 230.595 63.15C230.595 62.534 230.474 62.0113 230.231 61.582C229.988 61.1527 229.671 60.8353 229.279 60.63C228.887 60.4153 228.462 60.308 228.005 60.308C227.538 60.308 227.109 60.4153 226.717 60.63C226.334 60.8353 226.026 61.1527 225.793 61.582C225.56 62.0113 225.443 62.534 225.443 63.15C225.443 63.7753 225.555 64.3027 225.779 64.732C226.012 65.1613 226.32 65.4833 226.703 65.698C227.086 65.9033 227.506 66.006 227.963 66.006ZM235.126 60.378V64.9C235.126 65.2733 235.205 65.5393 235.364 65.698C235.523 65.8473 235.798 65.922 236.19 65.922H237.128V67H235.98C235.271 67 234.739 66.8367 234.384 66.51C234.029 66.1833 233.852 65.6467 233.852 64.9V60.378H232.858V59.328H233.852V57.396H235.126V59.328H237.128V60.378H235.126ZM242.018 67.126C241.299 67.126 240.646 66.9627 240.058 66.636C239.479 66.3093 239.022 65.8473 238.686 65.25C238.359 64.6433 238.196 63.9433 238.196 63.15C238.196 62.366 238.364 61.6753 238.7 61.078C239.045 60.4713 239.512 60.0093 240.1 59.692C240.688 59.3653 241.346 59.202 242.074 59.202C242.802 59.202 243.46 59.3653 244.048 59.692C244.636 60.0093 245.098 60.4667 245.434 61.064C245.779 61.6613 245.952 62.3567 245.952 63.15C245.952 63.9433 245.774 64.6433 245.42 65.25C245.074 65.8473 244.603 66.3093 244.006 66.636C243.408 66.9627 242.746 67.126 242.018 67.126ZM242.018 66.006C242.475 66.006 242.904 65.8987 243.306 65.684C243.707 65.4693 244.029 65.1473 244.272 64.718C244.524 64.2887 244.65 63.766 244.65 63.15C244.65 62.534 244.528 62.0113 244.286 61.582C244.043 61.1527 243.726 60.8353 243.334 60.63C242.942 60.4153 242.517 60.308 242.06 60.308C241.593 60.308 241.164 60.4153 240.772 60.63C240.389 60.8353 240.081 61.1527 239.848 61.582C239.614 62.0113 239.498 62.534 239.498 63.15C239.498 63.7753 239.61 64.3027 239.834 64.732C240.067 65.1613 240.375 65.4833 240.758 65.698C241.14 65.9033 241.56 66.006 242.018 66.006ZM251.365 59.188C252.298 59.188 253.054 59.4727 253.633 60.042C254.211 60.602 254.501 61.414 254.501 62.478V67H253.241V62.66C253.241 61.8947 253.049 61.3113 252.667 60.91C252.284 60.4993 251.761 60.294 251.099 60.294C250.427 60.294 249.89 60.504 249.489 60.924C249.097 61.344 248.901 61.9553 248.901 62.758V67H247.627V59.328H248.901V60.42C249.153 60.028 249.493 59.7247 249.923 59.51C250.361 59.2953 250.842 59.188 251.365 59.188ZM257.24 58.082C256.997 58.082 256.792 57.998 256.624 57.83C256.456 57.662 256.372 57.4567 256.372 57.214C256.372 56.9713 256.456 56.766 256.624 56.598C256.792 56.43 256.997 56.346 257.24 56.346C257.473 56.346 257.669 56.43 257.828 56.598C257.996 56.766 258.08 56.9713 258.08 57.214C258.08 57.4567 257.996 57.662 257.828 57.83C257.669 57.998 257.473 58.082 257.24 58.082ZM257.856 59.328V67H256.582V59.328H257.856ZM263.765 59.188C264.699 59.188 265.455 59.4727 266.033 60.042C266.612 60.602 266.901 61.414 266.901 62.478V67H265.641V62.66C265.641 61.8947 265.45 61.3113 265.067 60.91C264.685 60.4993 264.162 60.294 263.499 60.294C262.827 60.294 262.291 60.504 261.889 60.924C261.497 61.344 261.301 61.9553 261.301 62.758V67H260.027V59.328H261.301V60.42C261.553 60.028 261.894 59.7247 262.323 59.51C262.762 59.2953 263.243 59.188 263.765 59.188ZM272.239 63.136C272.239 62.352 272.397 61.666 272.715 61.078C273.032 60.4807 273.466 60.0187 274.017 59.692C274.577 59.3653 275.197 59.202 275.879 59.202C276.551 59.202 277.134 59.3467 277.629 59.636C278.123 59.9253 278.492 60.2893 278.735 60.728V59.328H280.023V67H278.735V65.572C278.483 66.02 278.105 66.3933 277.601 66.692C277.106 66.9813 276.527 67.126 275.865 67.126C275.183 67.126 274.567 66.958 274.017 66.622C273.466 66.286 273.032 65.8147 272.715 65.208C272.397 64.6013 272.239 63.9107 272.239 63.136ZM278.735 63.15C278.735 62.5713 278.618 62.0673 278.385 61.638C278.151 61.2087 277.834 60.882 277.433 60.658C277.041 60.4247 276.607 60.308 276.131 60.308C275.655 60.308 275.221 60.42 274.829 60.644C274.437 60.868 274.124 61.1947 273.891 61.624C273.657 62.0533 273.541 62.5573 273.541 63.136C273.541 63.724 273.657 64.2373 273.891 64.676C274.124 65.1053 274.437 65.4367 274.829 65.67C275.221 65.894 275.655 66.006 276.131 66.006C276.607 66.006 277.041 65.894 277.433 65.67C277.834 65.4367 278.151 65.1053 278.385 64.676C278.618 64.2373 278.735 63.7287 278.735 63.15ZM285.914 59.188C286.847 59.188 287.603 59.4727 288.182 60.042C288.76 60.602 289.05 61.414 289.05 62.478V67H287.79V62.66C287.79 61.8947 287.598 61.3113 287.216 60.91C286.833 60.4993 286.31 60.294 285.648 60.294C284.976 60.294 284.439 60.504 284.038 60.924C283.646 61.344 283.45 61.9553 283.45 62.758V67H282.176V59.328H283.45V60.42C283.702 60.028 284.042 59.7247 284.472 59.51C284.91 59.2953 285.391 59.188 285.914 59.188ZM290.655 63.136C290.655 62.352 290.813 61.666 291.131 61.078C291.448 60.4807 291.882 60.0187 292.433 59.692C292.993 59.3653 293.618 59.202 294.309 59.202C294.906 59.202 295.461 59.342 295.975 59.622C296.488 59.8927 296.88 60.252 297.151 60.7V56.64H298.439V67H297.151V65.558C296.899 66.0153 296.525 66.3933 296.031 66.692C295.536 66.9813 294.957 67.126 294.295 67.126C293.613 67.126 292.993 66.958 292.433 66.622C291.882 66.286 291.448 65.8147 291.131 65.208C290.813 64.6013 290.655 63.9107 290.655 63.136ZM297.151 63.15C297.151 62.5713 297.034 62.0673 296.801 61.638C296.567 61.2087 296.25 60.882 295.849 60.658C295.457 60.4247 295.023 60.308 294.547 60.308C294.071 60.308 293.637 60.42 293.245 60.644C292.853 60.868 292.54 61.1947 292.307 61.624C292.073 62.0533 291.957 62.5573 291.957 63.136C291.957 63.724 292.073 64.2373 292.307 64.676C292.54 65.1053 292.853 65.4367 293.245 65.67C293.637 65.894 294.071 66.006 294.547 66.006C295.023 66.006 295.457 65.894 295.849 65.67C296.25 65.4367 296.567 65.1053 296.801 64.676C297.034 64.2373 297.151 63.7287 297.151 63.15ZM303.848 63.136C303.848 62.352 304.007 61.666 304.324 61.078C304.641 60.4807 305.075 60.0187 305.626 59.692C306.186 59.3653 306.811 59.202 307.502 59.202C308.099 59.202 308.655 59.342 309.168 59.622C309.681 59.8927 310.073 60.252 310.344 60.7V56.64H311.632V67H310.344V65.558C310.092 66.0153 309.719 66.3933 309.224 66.692C308.729 66.9813 308.151 67.126 307.488 67.126C306.807 67.126 306.186 66.958 305.626 66.622C305.075 66.286 304.641 65.8147 304.324 65.208C304.007 64.6013 303.848 63.9107 303.848 63.136ZM310.344 63.15C310.344 62.5713 310.227 62.0673 309.994 61.638C309.761 61.2087 309.443 60.882 309.042 60.658C308.65 60.4247 308.216 60.308 307.74 60.308C307.264 60.308 306.83 60.42 306.438 60.644C306.046 60.868 305.733 61.1947 305.5 61.624C305.267 62.0533 305.15 62.5573 305.15 63.136C305.15 63.724 305.267 64.2373 305.5 64.676C305.733 65.1053 306.046 65.4367 306.438 65.67C306.83 65.894 307.264 66.006 307.74 66.006C308.216 66.006 308.65 65.894 309.042 65.67C309.443 65.4367 309.761 65.1053 309.994 64.676C310.227 64.2373 310.344 63.7287 310.344 63.15ZM317.131 67.126C316.412 67.126 315.759 66.9627 315.171 66.636C314.592 66.3093 314.135 65.8473 313.799 65.25C313.472 64.6433 313.309 63.9433 313.309 63.15C313.309 62.366 313.477 61.6753 313.813 61.078C314.158 60.4713 314.625 60.0093 315.213 59.692C315.801 59.3653 316.459 59.202 317.187 59.202C317.915 59.202 318.573 59.3653 319.161 59.692C319.749 60.0093 320.211 60.4667 320.547 61.064C320.892 61.6613 321.065 62.3567 321.065 63.15C321.065 63.9433 320.888 64.6433 320.533 65.25C320.188 65.8473 319.716 66.3093 319.119 66.636C318.522 66.9627 317.859 67.126 317.131 67.126ZM317.131 66.006C317.588 66.006 318.018 65.8987 318.419 65.684C318.82 65.4693 319.142 65.1473 319.385 64.718C319.637 64.2887 319.763 63.766 319.763 63.15C319.763 62.534 319.642 62.0113 319.399 61.582C319.156 61.1527 318.839 60.8353 318.447 60.63C318.055 60.4153 317.63 60.308 317.173 60.308C316.706 60.308 316.277 60.4153 315.885 60.63C315.502 60.8353 315.194 61.1527 314.961 61.582C314.728 62.0113 314.611 62.534 314.611 63.15C314.611 63.7753 314.723 64.3027 314.947 64.732C315.18 65.1613 315.488 65.4833 315.871 65.698C316.254 65.9033 316.674 66.006 317.131 66.006ZM324.014 60.742C324.266 60.3033 324.639 59.9393 325.134 59.65C325.638 59.3513 326.221 59.202 326.884 59.202C327.565 59.202 328.181 59.3653 328.732 59.692C329.292 60.0187 329.731 60.4807 330.048 61.078C330.365 61.666 330.524 62.352 330.524 63.136C330.524 63.9107 330.365 64.6013 330.048 65.208C329.731 65.8147 329.292 66.286 328.732 66.622C328.181 66.958 327.565 67.126 326.884 67.126C326.231 67.126 325.652 66.9813 325.148 66.692C324.653 66.3933 324.275 66.0247 324.014 65.586V70.64H322.74V59.328H324.014V60.742ZM329.222 63.136C329.222 62.5573 329.105 62.0533 328.872 61.624C328.639 61.1947 328.321 60.868 327.92 60.644C327.528 60.42 327.094 60.308 326.618 60.308C326.151 60.308 325.717 60.4247 325.316 60.658C324.924 60.882 324.607 61.2133 324.364 61.652C324.131 62.0813 324.014 62.5807 324.014 63.15C324.014 63.7287 324.131 64.2373 324.364 64.676C324.607 65.1053 324.924 65.4367 325.316 65.67C325.717 65.894 326.151 66.006 326.618 66.006C327.094 66.006 327.528 65.894 327.92 65.67C328.321 65.4367 328.639 65.1053 328.872 64.676C329.105 64.2373 329.222 63.724 329.222 63.136ZM331.725 63.136C331.725 62.352 331.884 61.666 332.201 61.078C332.518 60.4807 332.952 60.0187 333.503 59.692C334.063 59.3653 334.684 59.202 335.365 59.202C336.037 59.202 336.62 59.3467 337.115 59.636C337.61 59.9253 337.978 60.2893 338.221 60.728V59.328H339.509V67H338.221V65.572C337.969 66.02 337.591 66.3933 337.087 66.692C336.592 66.9813 336.014 67.126 335.351 67.126C334.67 67.126 334.054 66.958 333.503 66.622C332.952 66.286 332.518 65.8147 332.201 65.208C331.884 64.6013 331.725 63.9107 331.725 63.136ZM338.221 63.15C338.221 62.5713 338.104 62.0673 337.871 61.638C337.638 61.2087 337.32 60.882 336.919 60.658C336.527 60.4247 336.093 60.308 335.617 60.308C335.141 60.308 334.707 60.42 334.315 60.644C333.923 60.868 333.61 61.1947 333.377 61.624C333.144 62.0533 333.027 62.5573 333.027 63.136C333.027 63.724 333.144 64.2373 333.377 64.676C333.61 65.1053 333.923 65.4367 334.315 65.67C334.707 65.894 335.141 66.006 335.617 66.006C336.093 66.006 336.527 65.894 336.919 65.67C337.32 65.4367 337.638 65.1053 337.871 64.676C338.104 64.2373 338.221 63.7287 338.221 63.15ZM350.888 59.188C351.485 59.188 352.017 59.314 352.484 59.566C352.951 59.8087 353.319 60.1773 353.59 60.672C353.861 61.1667 353.996 61.7687 353.996 62.478V67H352.736V62.66C352.736 61.8947 352.545 61.3113 352.162 60.91C351.789 60.4993 351.28 60.294 350.636 60.294C349.973 60.294 349.446 60.5087 349.054 60.938C348.662 61.358 348.466 61.9693 348.466 62.772V67H347.206V62.66C347.206 61.8947 347.015 61.3113 346.632 60.91C346.259 60.4993 345.75 60.294 345.106 60.294C344.443 60.294 343.916 60.5087 343.524 60.938C343.132 61.358 342.936 61.9693 342.936 62.772V67H341.662V59.328H342.936V60.434C343.188 60.0327 343.524 59.7247 343.944 59.51C344.373 59.2953 344.845 59.188 345.358 59.188C346.002 59.188 346.571 59.3327 347.066 59.622C347.561 59.9113 347.929 60.336 348.172 60.896C348.387 60.3547 348.741 59.9347 349.236 59.636C349.731 59.3373 350.281 59.188 350.888 59.188ZM356.744 58.082C356.501 58.082 356.296 57.998 356.128 57.83C355.96 57.662 355.876 57.4567 355.876 57.214C355.876 56.9713 355.96 56.766 356.128 56.598C356.296 56.43 356.501 56.346 356.744 56.346C356.977 56.346 357.173 56.43 357.332 56.598C357.5 56.766 357.584 56.9713 357.584 57.214C357.584 57.4567 357.5 57.662 357.332 57.83C357.173 57.998 356.977 58.082 356.744 58.082ZM357.36 59.328V67H356.086V59.328H357.36ZM363.269 59.188C364.202 59.188 364.958 59.4727 365.537 60.042C366.116 60.602 366.405 61.414 366.405 62.478V67H365.145V62.66C365.145 61.8947 364.954 61.3113 364.571 60.91C364.188 60.4993 363.666 60.294 363.003 60.294C362.331 60.294 361.794 60.504 361.393 60.924C361.001 61.344 360.805 61.9553 360.805 62.758V67H359.531V59.328H360.805V60.42C361.057 60.028 361.398 59.7247 361.827 59.51C362.266 59.2953 362.746 59.188 363.269 59.188ZM375.486 62.87C375.486 63.1127 375.472 63.3693 375.444 63.64H369.312C369.359 64.396 369.616 64.9887 370.082 65.418C370.558 65.838 371.132 66.048 371.804 66.048C372.355 66.048 372.812 65.922 373.176 65.67C373.55 65.4087 373.811 65.0633 373.96 64.634H375.332C375.127 65.3713 374.716 65.9733 374.1 66.44C373.484 66.8973 372.719 67.126 371.804 67.126C371.076 67.126 370.423 66.9627 369.844 66.636C369.275 66.3093 368.827 65.8473 368.5 65.25C368.174 64.6433 368.01 63.9433 368.01 63.15C368.01 62.3567 368.169 61.6613 368.486 61.064C368.804 60.4667 369.247 60.0093 369.816 59.692C370.395 59.3653 371.058 59.202 371.804 59.202C372.532 59.202 373.176 59.3607 373.736 59.678C374.296 59.9953 374.726 60.434 375.024 60.994C375.332 61.5447 375.486 62.17 375.486 62.87ZM374.17 62.604C374.17 62.1187 374.063 61.7033 373.848 61.358C373.634 61.0033 373.34 60.7373 372.966 60.56C372.602 60.3733 372.196 60.28 371.748 60.28C371.104 60.28 370.554 60.4853 370.096 60.896C369.648 61.3067 369.392 61.876 369.326 62.604H374.17ZM378.484 65.236L376.916 69.002H376.062L377.084 65.236H378.484ZM23.686 79.328L19.066 90.612H17.75L19.262 86.916L16.168 79.328H17.582L19.99 85.544L22.37 79.328H23.686ZM28.3127 87.126C27.594 87.126 26.9407 86.9627 26.3527 86.636C25.774 86.3093 25.3167 85.8473 24.9807 85.25C24.654 84.6433 24.4907 83.9433 24.4907 83.15C24.4907 82.366 24.6587 81.6753 24.9947 81.078C25.34 80.4713 25.8067 80.0093 26.3947 79.692C26.9827 79.3653 27.6407 79.202 28.3687 79.202C29.0967 79.202 29.7547 79.3653 30.3427 79.692C30.9307 80.0093 31.3927 80.4667 31.7287 81.064C32.074 81.6613 32.2467 82.3567 32.2467 83.15C32.2467 83.9433 32.0693 84.6433 31.7147 85.25C31.3693 85.8473 30.898 86.3093 30.3007 86.636C29.7033 86.9627 29.0407 87.126 28.3127 87.126ZM28.3127 86.006C28.77 86.006 29.1993 85.8987 29.6007 85.684C30.002 85.4693 30.324 85.1473 30.5667 84.718C30.8187 84.2887 30.9447 83.766 30.9447 83.15C30.9447 82.534 30.8233 82.0113 30.5807 81.582C30.338 81.1527 30.0207 80.8353 29.6287 80.63C29.2367 80.4153 28.812 80.308 28.3547 80.308C27.888 80.308 27.4587 80.4153 27.0667 80.63C26.684 80.8353 26.376 81.1527 26.1427 81.582C25.9093 82.0113 25.7927 82.534 25.7927 83.15C25.7927 83.7753 25.9047 84.3027 26.1287 84.732C26.362 85.1613 26.67 85.4833 27.0527 85.698C27.4353 85.9033 27.8553 86.006 28.3127 86.006ZM40.7258 79.328V87H39.4518V85.866C39.2091 86.258 38.8684 86.566 38.4298 86.79C38.0004 87.0047 37.5244 87.112 37.0018 87.112C36.4044 87.112 35.8678 86.9907 35.3918 86.748C34.9158 86.496 34.5378 86.1227 34.2578 85.628C33.9871 85.1333 33.8518 84.5313 33.8518 83.822V79.328H35.1118V83.654C35.1118 84.41 35.3031 84.9933 35.6858 85.404C36.0684 85.8053 36.5911 86.006 37.2538 86.006C37.9351 86.006 38.4718 85.796 38.8638 85.376C39.2558 84.956 39.4518 84.3447 39.4518 83.542V79.328H40.7258ZM44.1508 80.574C44.3748 80.1353 44.6922 79.7947 45.1028 79.552C45.5228 79.3093 46.0315 79.188 46.6288 79.188V80.504H46.2928C44.8648 80.504 44.1508 81.2787 44.1508 82.828V87H42.8768V79.328H44.1508V80.574ZM52.5179 80.42H51.0899L52.4339 77.242H53.3439L52.5179 80.42ZM54.7859 80.42H53.3579L54.7019 77.242H55.6119L54.7859 80.42ZM60.2723 80.378H58.6623V87H57.3883V80.378H56.3943V79.328H57.3883V78.782C57.3883 77.9233 57.6076 77.298 58.0463 76.906C58.4943 76.5047 59.2083 76.304 60.1883 76.304V77.368C59.6283 77.368 59.2316 77.48 58.9983 77.704C58.7743 77.9187 58.6623 78.278 58.6623 78.782V79.328H60.2723V80.378ZM68.7577 82.87C68.7577 83.1127 68.7437 83.3693 68.7157 83.64H62.5837C62.6304 84.396 62.887 84.9887 63.3537 85.418C63.8297 85.838 64.4037 86.048 65.0757 86.048C65.6264 86.048 66.0837 85.922 66.4477 85.67C66.821 85.4087 67.0824 85.0633 67.2317 84.634H68.6037C68.3984 85.3713 67.9877 85.9733 67.3717 86.44C66.7557 86.8973 65.9904 87.126 65.0757 87.126C64.3477 87.126 63.6944 86.9627 63.1157 86.636C62.5464 86.3093 62.0984 85.8473 61.7717 85.25C61.445 84.6433 61.2817 83.9433 61.2817 83.15C61.2817 82.3567 61.4404 81.6613 61.7577 81.064C62.075 80.4667 62.5184 80.0093 63.0877 79.692C63.6664 79.3653 64.329 79.202 65.0757 79.202C65.8037 79.202 66.4477 79.3607 67.0077 79.678C67.5677 79.9953 67.997 80.434 68.2957 80.994C68.6037 81.5447 68.7577 82.17 68.7577 82.87ZM67.4417 82.604C67.4417 82.1187 67.3344 81.7033 67.1197 81.358C66.905 81.0033 66.611 80.7373 66.2377 80.56C65.8737 80.3733 65.4677 80.28 65.0197 80.28C64.3757 80.28 63.825 80.4853 63.3677 80.896C62.9197 81.3067 62.663 81.876 62.5977 82.604H67.4417ZM77.4393 82.87C77.4393 83.1127 77.4253 83.3693 77.3973 83.64H71.2653C71.312 84.396 71.5687 84.9887 72.0353 85.418C72.5113 85.838 73.0853 86.048 73.7573 86.048C74.308 86.048 74.7653 85.922 75.1293 85.67C75.5027 85.4087 75.764 85.0633 75.9133 84.634H77.2853C77.08 85.3713 76.6693 85.9733 76.0533 86.44C75.4373 86.8973 74.672 87.126 73.7573 87.126C73.0293 87.126 72.376 86.9627 71.7973 86.636C71.228 86.3093 70.78 85.8473 70.4533 85.25C70.1267 84.6433 69.9633 83.9433 69.9633 83.15C69.9633 82.3567 70.122 81.6613 70.4393 81.064C70.7567 80.4667 71.2 80.0093 71.7693 79.692C72.348 79.3653 73.0107 79.202 73.7573 79.202C74.4853 79.202 75.1293 79.3607 75.6893 79.678C76.2493 79.9953 76.6787 80.434 76.9773 80.994C77.2853 81.5447 77.4393 82.17 77.4393 82.87ZM76.1233 82.604C76.1233 82.1187 76.016 81.7033 75.8013 81.358C75.5867 81.0033 75.2927 80.7373 74.9193 80.56C74.5553 80.3733 74.1493 80.28 73.7013 80.28C73.0573 80.28 72.5067 80.4853 72.0493 80.896C71.6013 81.3067 71.3447 81.876 71.2793 82.604H76.1233ZM80.395 76.64V87H79.121V76.64H80.395ZM87.8863 81.33V82.408H82.3003V81.33H87.8863ZM93.4412 79.202C94.1039 79.202 94.6826 79.3467 95.1772 79.636C95.6812 79.9253 96.0546 80.2893 96.2972 80.728V79.328H97.5852V87.168C97.5852 87.868 97.4359 88.4887 97.1372 89.03C96.8386 89.5807 96.4092 90.01 95.8492 90.318C95.2986 90.626 94.6546 90.78 93.9172 90.78C92.9092 90.78 92.0692 90.542 91.3972 90.066C90.7252 89.59 90.3286 88.9413 90.2072 88.12H91.4672C91.6072 88.5867 91.8966 88.96 92.3352 89.24C92.7739 89.5293 93.3012 89.674 93.9172 89.674C94.6172 89.674 95.1866 89.4547 95.6252 89.016C96.0732 88.5773 96.2972 87.9613 96.2972 87.168V85.558C96.0452 86.006 95.6719 86.3793 95.1772 86.678C94.6826 86.9767 94.1039 87.126 93.4412 87.126C92.7599 87.126 92.1392 86.958 91.5792 86.622C91.0286 86.286 90.5946 85.8147 90.2772 85.208C89.9599 84.6013 89.8012 83.9107 89.8012 83.136C89.8012 82.352 89.9599 81.666 90.2772 81.078C90.5946 80.4807 91.0286 80.0187 91.5792 79.692C92.1392 79.3653 92.7599 79.202 93.4412 79.202ZM96.2972 83.15C96.2972 82.5713 96.1806 82.0673 95.9472 81.638C95.7139 81.2087 95.3966 80.882 94.9952 80.658C94.6032 80.4247 94.1692 80.308 93.6932 80.308C93.2172 80.308 92.7832 80.42 92.3912 80.644C91.9992 80.868 91.6866 81.1947 91.4532 81.624C91.2199 82.0533 91.1032 82.5573 91.1032 83.136C91.1032 83.724 91.2199 84.2373 91.4532 84.676C91.6866 85.1053 91.9992 85.4367 92.3912 85.67C92.7832 85.894 93.2172 86.006 93.6932 86.006C94.1692 86.006 94.6032 85.894 94.9952 85.67C95.3966 85.4367 95.7139 85.1053 95.9472 84.676C96.1806 84.2373 96.2972 83.7287 96.2972 83.15ZM103.084 87.126C102.365 87.126 101.712 86.9627 101.124 86.636C100.545 86.3093 100.088 85.8473 99.7522 85.25C99.4255 84.6433 99.2622 83.9433 99.2622 83.15C99.2622 82.366 99.4302 81.6753 99.7662 81.078C100.111 80.4713 100.578 80.0093 101.166 79.692C101.754 79.3653 102.412 79.202 103.14 79.202C103.868 79.202 104.526 79.3653 105.114 79.692C105.702 80.0093 106.164 80.4667 106.5 81.064C106.845 81.6613 107.018 82.3567 107.018 83.15C107.018 83.9433 106.841 84.6433 106.486 85.25C106.141 85.8473 105.669 86.3093 105.072 86.636C104.475 86.9627 103.812 87.126 103.084 87.126ZM103.084 86.006C103.541 86.006 103.971 85.8987 104.372 85.684C104.773 85.4693 105.095 85.1473 105.338 84.718C105.59 84.2887 105.716 83.766 105.716 83.15C105.716 82.534 105.595 82.0113 105.352 81.582C105.109 81.1527 104.792 80.8353 104.4 80.63C104.008 80.4153 103.583 80.308 103.126 80.308C102.659 80.308 102.23 80.4153 101.838 80.63C101.455 80.8353 101.147 81.1527 100.914 81.582C100.681 82.0113 100.564 82.534 100.564 83.15C100.564 83.7753 100.676 84.3027 100.9 84.732C101.133 85.1613 101.441 85.4833 101.824 85.698C102.207 85.9033 102.627 86.006 103.084 86.006ZM112.039 87.126C111.321 87.126 110.667 86.9627 110.079 86.636C109.501 86.3093 109.043 85.8473 108.707 85.25C108.381 84.6433 108.217 83.9433 108.217 83.15C108.217 82.366 108.385 81.6753 108.721 81.078C109.067 80.4713 109.533 80.0093 110.121 79.692C110.709 79.3653 111.367 79.202 112.095 79.202C112.823 79.202 113.481 79.3653 114.069 79.692C114.657 80.0093 115.119 80.4667 115.455 81.064C115.801 81.6613 115.973 82.3567 115.973 83.15C115.973 83.9433 115.796 84.6433 115.441 85.25C115.096 85.8473 114.625 86.3093 114.027 86.636C113.43 86.9627 112.767 87.126 112.039 87.126ZM112.039 86.006C112.497 86.006 112.926 85.8987 113.327 85.684C113.729 85.4693 114.051 85.1473 114.293 84.718C114.545 84.2887 114.671 83.766 114.671 83.15C114.671 82.534 114.55 82.0113 114.307 81.582C114.065 81.1527 113.747 80.8353 113.355 80.63C112.963 80.4153 112.539 80.308 112.081 80.308C111.615 80.308 111.185 80.4153 110.793 80.63C110.411 80.8353 110.103 81.1527 109.869 81.582C109.636 82.0113 109.519 82.534 109.519 83.15C109.519 83.7753 109.631 84.3027 109.855 84.732C110.089 85.1613 110.397 85.4833 110.779 85.698C111.162 85.9033 111.582 86.006 112.039 86.006ZM117.172 83.136C117.172 82.352 117.331 81.666 117.648 81.078C117.966 80.4807 118.4 80.0187 118.95 79.692C119.51 79.3653 120.136 79.202 120.826 79.202C121.424 79.202 121.979 79.342 122.492 79.622C123.006 79.8927 123.398 80.252 123.668 80.7V76.64H124.956V87H123.668V85.558C123.416 86.0153 123.043 86.3933 122.548 86.692C122.054 86.9813 121.475 87.126 120.812 87.126C120.131 87.126 119.51 86.958 118.95 86.622C118.4 86.286 117.966 85.8147 117.648 85.208C117.331 84.6013 117.172 83.9107 117.172 83.136ZM123.668 83.15C123.668 82.5713 123.552 82.0673 123.318 81.638C123.085 81.2087 122.768 80.882 122.366 80.658C121.974 80.4247 121.54 80.308 121.064 80.308C120.588 80.308 120.154 80.42 119.762 80.644C119.37 80.868 119.058 81.1947 118.824 81.624C118.591 82.0533 118.474 82.5573 118.474 83.136C118.474 83.724 118.591 84.2373 118.824 84.676C119.058 85.1053 119.37 85.4367 119.762 85.67C120.154 85.894 120.588 86.006 121.064 86.006C121.54 86.006 121.974 85.894 122.366 85.67C122.768 85.4367 123.085 85.1053 123.318 84.676C123.552 84.2373 123.668 83.7287 123.668 83.15ZM130.366 83.15C130.366 82.3567 130.524 81.666 130.842 81.078C131.159 80.4807 131.598 80.0187 132.158 79.692C132.727 79.3653 133.376 79.202 134.104 79.202C135.046 79.202 135.821 79.4307 136.428 79.888C137.044 80.3453 137.45 80.98 137.646 81.792H136.274C136.143 81.3253 135.886 80.9567 135.504 80.686C135.13 80.4153 134.664 80.28 134.104 80.28C133.376 80.28 132.788 80.532 132.34 81.036C131.892 81.5307 131.668 82.2353 131.668 83.15C131.668 84.074 131.892 84.788 132.34 85.292C132.788 85.796 133.376 86.048 134.104 86.048C134.664 86.048 135.13 85.9173 135.504 85.656C135.877 85.3947 136.134 85.0213 136.274 84.536H137.646C137.44 85.32 137.03 85.95 136.414 86.426C135.798 86.8927 135.028 87.126 134.104 87.126C133.376 87.126 132.727 86.9627 132.158 86.636C131.598 86.3093 131.159 85.8473 130.842 85.25C130.524 84.6527 130.366 83.9527 130.366 83.15ZM143.154 79.188C143.732 79.188 144.255 79.314 144.722 79.566C145.188 79.8087 145.552 80.1773 145.814 80.672C146.084 81.1667 146.22 81.7687 146.22 82.478V87H144.96V82.66C144.96 81.8947 144.768 81.3113 144.386 80.91C144.003 80.4993 143.48 80.294 142.818 80.294C142.146 80.294 141.609 80.504 141.208 80.924C140.816 81.344 140.62 81.9553 140.62 82.758V87H139.346V76.64H140.62V80.42C140.872 80.028 141.217 79.7247 141.656 79.51C142.104 79.2953 142.603 79.188 143.154 79.188ZM155.301 82.87C155.301 83.1127 155.287 83.3693 155.259 83.64H149.127C149.173 84.396 149.43 84.9887 149.897 85.418C150.373 85.838 150.947 86.048 151.619 86.048C152.169 86.048 152.627 85.922 152.991 85.67C153.364 85.4087 153.625 85.0633 153.775 84.634H155.147C154.941 85.3713 154.531 85.9733 153.915 86.44C153.299 86.8973 152.533 87.126 151.619 87.126C150.891 87.126 150.237 86.9627 149.659 86.636C149.089 86.3093 148.641 85.8473 148.315 85.25C147.988 84.6433 147.825 83.9433 147.825 83.15C147.825 82.3567 147.983 81.6613 148.301 81.064C148.618 80.4667 149.061 80.0093 149.631 79.692C150.209 79.3653 150.872 79.202 151.619 79.202C152.347 79.202 152.991 79.3607 153.551 79.678C154.111 79.9953 154.54 80.434 154.839 80.994C155.147 81.5447 155.301 82.17 155.301 82.87ZM153.985 82.604C153.985 82.1187 153.877 81.7033 153.663 81.358C153.448 81.0033 153.154 80.7373 152.781 80.56C152.417 80.3733 152.011 80.28 151.563 80.28C150.919 80.28 150.368 80.4853 149.911 80.896C149.463 81.3067 149.206 81.876 149.141 82.604H153.985ZM166.208 79.188C166.806 79.188 167.338 79.314 167.804 79.566C168.271 79.8087 168.64 80.1773 168.91 80.672C169.181 81.1667 169.316 81.7687 169.316 82.478V87H168.056V82.66C168.056 81.8947 167.865 81.3113 167.482 80.91C167.109 80.4993 166.6 80.294 165.956 80.294C165.294 80.294 164.766 80.5087 164.374 80.938C163.982 81.358 163.786 81.9693 163.786 82.772V87H162.526V82.66C162.526 81.8947 162.335 81.3113 161.952 80.91C161.579 80.4993 161.07 80.294 160.426 80.294C159.764 80.294 159.236 80.5087 158.844 80.938C158.452 81.358 158.256 81.9693 158.256 82.772V87H156.982V79.328H158.256V80.434C158.508 80.0327 158.844 79.7247 159.264 79.51C159.694 79.2953 160.165 79.188 160.678 79.188C161.322 79.188 161.892 79.3327 162.386 79.622C162.881 79.9113 163.25 80.336 163.492 80.896C163.707 80.3547 164.062 79.9347 164.556 79.636C165.051 79.3373 165.602 79.188 166.208 79.188ZM172.064 78.082C171.821 78.082 171.616 77.998 171.448 77.83C171.28 77.662 171.196 77.4567 171.196 77.214C171.196 76.9713 171.28 76.766 171.448 76.598C171.616 76.43 171.821 76.346 172.064 76.346C172.297 76.346 172.493 76.43 172.652 76.598C172.82 76.766 172.904 76.9713 172.904 77.214C172.904 77.4567 172.82 77.662 172.652 77.83C172.493 77.998 172.297 78.082 172.064 78.082ZM172.68 79.328V87H171.406V79.328H172.68ZM174.375 83.15C174.375 82.3567 174.534 81.666 174.851 81.078C175.169 80.4807 175.607 80.0187 176.167 79.692C176.737 79.3653 177.385 79.202 178.113 79.202C179.056 79.202 179.831 79.4307 180.437 79.888C181.053 80.3453 181.459 80.98 181.655 81.792H180.283C180.153 81.3253 179.896 80.9567 179.513 80.686C179.14 80.4153 178.673 80.28 178.113 80.28C177.385 80.28 176.797 80.532 176.349 81.036C175.901 81.5307 175.677 82.2353 175.677 83.15C175.677 84.074 175.901 84.788 176.349 85.292C176.797 85.796 177.385 86.048 178.113 86.048C178.673 86.048 179.14 85.9173 179.513 85.656C179.887 85.3947 180.143 85.0213 180.283 84.536H181.655C181.45 85.32 181.039 85.95 180.423 86.426C179.807 86.8927 179.037 87.126 178.113 87.126C177.385 87.126 176.737 86.9627 176.167 86.636C175.607 86.3093 175.169 85.8473 174.851 85.25C174.534 84.6527 174.375 83.9527 174.375 83.15ZM182.879 83.136C182.879 82.352 183.038 81.666 183.355 81.078C183.673 80.4807 184.107 80.0187 184.657 79.692C185.217 79.3653 185.838 79.202 186.519 79.202C187.191 79.202 187.775 79.3467 188.269 79.636C188.764 79.9253 189.133 80.2893 189.375 80.728V79.328H190.663V87H189.375V85.572C189.123 86.02 188.745 86.3933 188.241 86.692C187.747 86.9813 187.168 87.126 186.505 87.126C185.824 87.126 185.208 86.958 184.657 86.622C184.107 86.286 183.673 85.8147 183.355 85.208C183.038 84.6013 182.879 83.9107 182.879 83.136ZM189.375 83.15C189.375 82.5713 189.259 82.0673 189.025 81.638C188.792 81.2087 188.475 80.882 188.073 80.658C187.681 80.4247 187.247 80.308 186.771 80.308C186.295 80.308 185.861 80.42 185.469 80.644C185.077 80.868 184.765 81.1947 184.531 81.624C184.298 82.0533 184.181 82.5573 184.181 83.136C184.181 83.724 184.298 84.2373 184.531 84.676C184.765 85.1053 185.077 85.4367 185.469 85.67C185.861 85.894 186.295 86.006 186.771 86.006C187.247 86.006 187.681 85.894 188.073 85.67C188.475 85.4367 188.792 85.1053 189.025 84.676C189.259 84.2373 189.375 83.7287 189.375 83.15ZM194.09 76.64V87H192.816V76.64H194.09ZM198.978 87.126C198.39 87.126 197.862 87.028 197.396 86.832C196.929 86.6267 196.56 86.3467 196.29 85.992C196.019 85.628 195.87 85.2127 195.842 84.746H197.158C197.195 85.1287 197.372 85.4413 197.69 85.684C198.016 85.9267 198.441 86.048 198.964 86.048C199.449 86.048 199.832 85.9407 200.112 85.726C200.392 85.5113 200.532 85.2407 200.532 84.914C200.532 84.578 200.382 84.3307 200.084 84.172C199.785 84.004 199.323 83.8407 198.698 83.682C198.128 83.5327 197.662 83.3833 197.298 83.234C196.943 83.0753 196.635 82.8467 196.374 82.548C196.122 82.24 195.996 81.8387 195.996 81.344C195.996 80.952 196.112 80.5927 196.346 80.266C196.579 79.9393 196.91 79.6827 197.34 79.496C197.769 79.3 198.259 79.202 198.81 79.202C199.659 79.202 200.345 79.4167 200.868 79.846C201.39 80.2753 201.67 80.8633 201.708 81.61H200.434C200.406 81.2087 200.242 80.8867 199.944 80.644C199.654 80.4013 199.262 80.28 198.768 80.28C198.31 80.28 197.946 80.378 197.676 80.574C197.405 80.77 197.27 81.0267 197.27 81.344C197.27 81.596 197.349 81.806 197.508 81.974C197.676 82.1327 197.881 82.2633 198.124 82.366C198.376 82.4593 198.721 82.5667 199.16 82.688C199.71 82.8373 200.158 82.9867 200.504 83.136C200.849 83.276 201.143 83.4907 201.386 83.78C201.638 84.0693 201.768 84.4473 201.778 84.914C201.778 85.334 201.661 85.712 201.428 86.048C201.194 86.384 200.863 86.65 200.434 86.846C200.014 87.0327 199.528 87.126 198.978 87.126ZM203.982 87.084C203.739 87.084 203.534 87 203.366 86.832C203.198 86.664 203.114 86.4587 203.114 86.216C203.114 85.9733 203.198 85.768 203.366 85.6C203.534 85.432 203.739 85.348 203.982 85.348C204.215 85.348 204.411 85.432 204.57 85.6C204.738 85.768 204.822 85.9733 204.822 86.216C204.822 86.4587 204.738 86.664 204.57 86.832C204.411 87 204.215 87.084 203.982 87.084ZM206.712 77.242H208.126L206.782 80.42H205.886L206.712 77.242ZM208.98 77.242H210.394L209.05 80.42H208.14L208.98 77.242Z" fill="#BFCEDB"/>
<defs>
<linearGradient id="paint0_linear_2247_2253" x1="0" y1="54" x2="408" y2="54" gradientUnits="userSpaceOnUse">
<stop stop-color="#3381D1" stop-opacity="0.06"/>
<stop offset="1" stop-color="#7C3BFF" stop-opacity="0.06"/>
</linearGradient>
</defs>
</svg>
