<svg width="20" height="20" viewBox="0 0 20 20" fill="none" xmlns="http://www.w3.org/2000/svg">
<circle cx="4.16663" cy="4.16675" r="2.5" stroke="#3381D1" stroke-width="1.5"/>
<circle cx="15.8334" cy="15.8333" r="2.5" stroke="#3381D1" stroke-width="1.5"/>
<path d="M9.16664 3.41675C8.75243 3.41675 8.41664 3.75253 8.41664 4.16675C8.41664 4.58096 8.75243 4.91675 9.16664 4.91675V4.16675V3.41675ZM10.8333 15.8334L11.3636 16.3637C11.6565 16.0709 11.6565 15.596 11.3636 15.3031L10.8333 15.8334ZM14.338 7.23952L14.7407 7.87226V7.87226L14.338 7.23952ZM5.66195 12.7606L6.06461 13.3934H6.06461L5.66195 12.7606ZM10.1136 14.0531C9.82075 13.7602 9.34587 13.7602 9.05298 14.0531C8.76009 14.346 8.76009 14.8209 9.05298 15.1137L9.58331 14.5834L10.1136 14.0531ZM9.05298 16.5531C8.76009 16.846 8.76009 17.3209 9.05298 17.6137C9.34587 17.9066 9.82075 17.9066 10.1136 17.6137L9.58331 17.0834L9.05298 16.5531ZM13.4432 4.16675V3.41675H9.16664V4.16675V4.91675H13.4432V4.16675ZM10.8333 15.8334V15.0834H6.55674V15.8334V16.5834H10.8333V15.8334ZM14.338 7.23952L13.9354 6.60677L5.2593 12.1279L5.66195 12.7606L6.06461 13.3934L14.7407 7.87226L14.338 7.23952ZM10.8333 15.8334L11.3636 15.3031L10.1136 14.0531L9.58331 14.5834L9.05298 15.1137L10.303 16.3637L10.8333 15.8334ZM10.8333 15.8334L10.303 15.3031L9.05298 16.5531L9.58331 17.0834L10.1136 17.6137L11.3636 16.3637L10.8333 15.8334ZM6.55674 15.8334V15.0834C5.63967 15.0834 5.2909 13.8857 6.06461 13.3934L5.66195 12.7606L5.2593 12.1279C3.21954 13.4259 4.13898 16.5834 6.55674 16.5834V15.8334ZM13.4432 4.16675V4.91675C14.3603 4.91675 14.7091 6.11441 13.9354 6.60677L14.338 7.23952L14.7407 7.87226C16.7804 6.57423 15.861 3.41675 13.4432 3.41675V4.16675Z" fill="#3381D1"/>
</svg>
