<svg width="20" height="20" viewBox="0 0 20 20" fill="none" xmlns="http://www.w3.org/2000/svg">
<g clip-path="url(#clip0_2130_2088)">
<path d="M13.75 15.5C13.75 15.9603 14.1231 16.3334 14.5834 16.3334C15.0436 16.3334 15.4167 15.9603 15.4167 15.5H14.5834H13.75ZM15.4167 7.25004C15.4167 6.7898 15.0436 6.41671 14.5834 6.41671C14.1231 6.41671 13.75 6.7898 13.75 7.25004H14.5834H15.4167ZM9.16671 15.5C9.16671 15.9603 9.5398 16.3334 10 16.3334C10.4603 16.3334 10.8334 15.9603 10.8334 15.5H10H9.16671ZM10.8334 4.50004C10.8334 4.0398 10.4603 3.66671 10 3.66671C9.5398 3.66671 9.16671 4.0398 9.16671 4.50004H10H10.8334ZM4.58337 15.5C4.58337 15.9603 4.95647 16.3334 5.41671 16.3334C5.87694 16.3334 6.25004 15.9603 6.25004 15.5H5.41671H4.58337ZM6.25004 10.9167C6.25004 10.4565 5.87694 10.0834 5.41671 10.0834C4.95647 10.0834 4.58337 10.4565 4.58337 10.9167H5.41671H6.25004ZM10 19.1667V18.3334C7.81588 18.3334 6.26159 18.3316 5.08192 18.173C3.92622 18.0176 3.25563 17.7256 2.76506 17.235L2.1758 17.8243L1.58655 18.4135C2.4384 19.2654 3.51933 19.6446 4.85984 19.8248C6.17638 20.0018 7.86299 20 10 20V19.1667ZM0.833374 10H4.071e-05C4.071e-05 12.1371 -0.00172907 13.8237 0.175275 15.1402C0.355502 16.4808 0.734691 17.5617 1.58655 18.4135L2.1758 17.8243L2.76506 17.235C2.27448 16.7445 1.98246 16.0739 1.82708 14.9182C1.66848 13.7385 1.66671 12.1842 1.66671 10H0.833374ZM19.1667 10H18.3334C18.3334 12.1842 18.3316 13.7385 18.173 14.9182C18.0176 16.0739 17.7256 16.7445 17.235 17.235L17.8243 17.8243L18.4135 18.4135C19.2654 17.5617 19.6446 16.4808 19.8248 15.1402C20.0018 13.8237 20 12.1371 20 10H19.1667ZM10 19.1667V20C12.1371 20 13.8237 20.0018 15.1402 19.8248C16.4808 19.6446 17.5617 19.2654 18.4135 18.4135L17.8243 17.8243L17.235 17.235C16.7445 17.7256 16.0739 18.0176 14.9182 18.173C13.7385 18.3316 12.1842 18.3334 10 18.3334V19.1667ZM10 0.833374V1.66671C12.1842 1.66671 13.7385 1.66848 14.9182 1.82708C16.0739 1.98246 16.7445 2.27448 17.235 2.76506L17.8243 2.1758L18.4135 1.58655C17.5617 0.734691 16.4808 0.355502 15.1402 0.175275C13.8237 -0.00172907 12.1371 4.071e-05 10 4.071e-05V0.833374ZM19.1667 10H20C20 7.86299 20.0018 6.17638 19.8248 4.85984C19.6446 3.51933 19.2654 2.4384 18.4135 1.58655L17.8243 2.1758L17.235 2.76506C17.7256 3.25563 18.0176 3.92622 18.173 5.08192C18.3316 6.26159 18.3334 7.81588 18.3334 10H19.1667ZM10 0.833374V4.071e-05C7.86299 4.071e-05 6.17638 -0.00172907 4.85984 0.175275C3.51933 0.355502 2.4384 0.734691 1.58655 1.58655L2.1758 2.1758L2.76506 2.76506C3.25563 2.27448 3.92622 1.98246 5.08192 1.82708C6.26159 1.66848 7.81588 1.66671 10 1.66671V0.833374ZM0.833374 10H1.66671C1.66671 7.81588 1.66848 6.26159 1.82708 5.08192C1.98246 3.92622 2.27448 3.25563 2.76506 2.76506L2.1758 2.1758L1.58655 1.58655C0.734691 2.4384 0.355502 3.51933 0.175275 4.85984C-0.00172907 6.17638 4.071e-05 7.86299 4.071e-05 10H0.833374ZM14.5834 15.5H15.4167V7.25004H14.5834H13.75V15.5H14.5834ZM10 15.5H10.8334V4.50004H10H9.16671V15.5H10ZM5.41671 15.5H6.25004V10.9167H5.41671H4.58337V15.5H5.41671Z" fill="#3381D1"/>
</g>
<defs>
<clipPath id="clip0_2130_2088">
<rect width="20" height="20" fill="white"/>
</clipPath>
</defs>
</svg>
