<svg width="408" height="100" viewBox="0 0 408 100" fill="none" xmlns="http://www.w3.org/2000/svg">
<path d="M0 16C0 7.16345 7.16344 0 16 0H392C400.837 0 408 7.16344 408 16V84C408 92.8366 400.837 100 392 100H16C7.16344 100 0 92.8366 0 84V16Z" fill="url(#paint0_linear_82_396)"/>
<path d="M24.6255 22.1664C24.4959 22.1664 24.3615 22.1616 24.2319 22.1616C22.6863 22.1616 21.1455 22.1616 19.5999 22.1616C19.4079 22.1616 19.2351 22.128 19.1535 21.936C19.0671 21.744 19.1535 21.5952 19.2783 21.4512C19.7967 20.88 20.3055 20.2992 20.8191 19.7232C21.0351 19.4832 21.0351 19.3248 20.8191 19.08C20.3055 18.4992 19.7871 17.9136 19.2687 17.3376C19.1391 17.1936 19.0719 17.0448 19.1535 16.8672C19.2351 16.6848 19.3983 16.6416 19.5855 16.6416C21.1935 16.6416 22.8063 16.6416 24.4143 16.6416C24.4863 16.6416 24.5583 16.6416 24.6303 16.6368C25.0383 16.6368 25.4463 16.6368 25.8543 16.6368C26.3103 16.7184 26.4687 16.9152 26.4687 17.3808C26.4687 18.5616 26.4687 19.7472 26.4687 20.928C26.4687 21.0048 26.4735 21.0816 26.4783 21.1584C26.4783 21.2544 26.4687 21.3504 26.4687 21.4416C26.4687 21.8928 26.3055 22.0848 25.8543 22.1712C25.4463 22.1712 25.0383 22.1712 24.6255 22.1712V22.1664Z" fill="#D6352D"/>
<path d="M25.8543 22.1664C26.3055 22.08 26.4639 21.888 26.4687 21.4368C26.4687 21.3408 26.4735 21.2448 26.4783 21.1536C26.7999 20.9424 27.1167 20.7312 27.4383 20.5248C27.9567 20.1888 28.5183 20.3136 28.8447 20.8464C29.1183 21.288 29.3871 21.7344 29.6511 22.1808C29.7087 22.2816 29.7519 22.296 29.8527 22.2288C31.0911 21.3984 32.3295 20.5728 33.5679 19.752C33.6735 19.68 33.6639 19.632 33.6015 19.5456C33.4671 19.3584 33.3375 19.1616 33.2079 18.9696C33.0879 18.7968 33.0591 18.6144 33.1647 18.432C33.2703 18.24 33.4431 18.1584 33.6591 18.1824C34.4319 18.2592 35.2047 18.336 35.9775 18.4128C36.1215 18.4272 36.2607 18.4416 36.4047 18.4608C36.7887 18.5088 36.9663 18.7728 36.8559 19.152C36.6303 19.92 36.4047 20.688 36.1791 21.456C36.1455 21.5712 36.1167 21.6864 36.0783 21.7968C36.0111 21.9792 35.8815 22.0992 35.6895 22.128C35.4879 22.1616 35.3247 22.0896 35.2047 21.9216C35.0799 21.744 34.9551 21.5712 34.8447 21.384C34.7679 21.2544 34.7103 21.2496 34.5855 21.3312C33.0783 22.344 31.5615 23.352 30.0495 24.36C29.9007 24.4608 29.7471 24.552 29.5599 24.5712C29.1471 24.6144 28.8207 24.4656 28.5999 24.1104C28.3263 23.664 28.0527 23.2128 27.7839 22.7616C27.7167 22.6512 27.6735 22.6272 27.5583 22.704C27.0495 23.0496 26.5359 23.3856 26.0175 23.7264C25.9647 23.76 25.9167 23.8128 25.8447 23.8128C25.8447 23.2656 25.8447 22.7136 25.8447 22.1664H25.8543Z" fill="#2BA869"/>
<path d="M28.9264 31.0368C29.3584 31.1184 29.536 31.3248 29.536 31.7568C29.536 31.9968 29.536 32.2368 29.536 32.4768C29.536 32.7792 29.4352 32.88 29.1424 32.88C26.5408 32.88 23.9392 32.88 21.3376 32.88C21.0592 32.88 20.9584 32.7792 20.9584 32.5008C20.9584 32.2608 20.9584 32.0208 20.9584 31.7808C20.9584 31.3056 21.1072 31.1232 21.5728 31.0272C21.8368 31.0272 22.1008 31.0272 22.3648 31.0272C24.5536 31.0272 26.7424 31.0272 28.936 31.0272L28.9264 31.0368Z" fill="#06293F"/>
<path d="M28.9263 31.0368C26.7375 31.0368 24.5487 31.0368 22.3551 31.0368C22.0911 31.0368 21.8271 31.0368 21.5631 31.0368C21.5631 30.648 21.5631 30.2592 21.5631 29.8704C21.5631 29.4528 21.8127 29.208 22.2351 29.208C23.0271 29.208 23.8239 29.208 24.6159 29.2032C25.0239 29.2032 25.4319 29.2032 25.8399 29.2032C26.6223 29.2032 27.4047 29.208 28.1871 29.208C28.6767 29.208 28.9119 29.4432 28.9167 29.928C28.9167 30.2976 28.9167 30.6672 28.9167 31.0368H28.9263Z" fill="#0B365E"/>
<path d="M25.8496 29.1936C25.4416 29.1936 25.0336 29.1936 24.6256 29.1936C24.6256 26.8512 24.6256 24.504 24.6256 22.1616C25.0336 22.1616 25.4416 22.1616 25.8544 22.1616C25.8544 22.7088 25.8544 23.2608 25.8544 23.808C25.8544 25.6032 25.8544 27.3984 25.8544 29.1936H25.8496Z" fill="#C3CDD5"/>
<path d="M25.8496 16.6272C25.4416 16.6272 25.0336 16.6272 24.6256 16.6272C24.6256 16.3344 24.6256 16.0416 24.6256 15.7488C24.6256 15.3696 24.88 15.1152 25.2496 15.1152C25.6144 15.1152 25.8448 15.36 25.8448 15.744C25.8448 16.0368 25.8448 16.3296 25.8448 16.6224L25.8496 16.6272Z" fill="#C3CDD5"/>
<path d="M57.914 18.12V30H56.132V23.124L56.276 19.848H56.258L52.64 30H51.038L47.42 19.848H47.402L47.546 23.124V30H45.764V18.12H48.626L51.02 24.996L51.848 27.822H51.884L52.73 24.996L55.106 18.12H57.914ZM62.1457 19.488C61.7257 19.488 61.4017 19.386 61.1737 19.182C60.9577 18.966 60.8497 18.666 60.8497 18.282C60.8497 17.898 60.9577 17.604 61.1737 17.4C61.4017 17.196 61.7257 17.094 62.1457 17.094C62.5537 17.094 62.8657 17.196 63.0817 17.4C63.3097 17.604 63.4237 17.898 63.4237 18.282C63.4237 18.666 63.3097 18.966 63.0817 19.182C62.8657 19.386 62.5537 19.488 62.1457 19.488ZM63.0997 21V30H61.1737V21H63.0997ZM67.9851 16.95V27.48C67.9851 27.924 68.0631 28.23 68.2191 28.398C68.3751 28.566 68.6331 28.65 68.9931 28.65C69.2091 28.65 69.3891 28.638 69.5331 28.614C69.6891 28.578 69.8811 28.518 70.1091 28.434L69.8931 29.874C69.6891 29.97 69.4551 30.042 69.1911 30.09C68.9271 30.15 68.6631 30.18 68.3991 30.18C67.5951 30.18 67.0011 29.976 66.6171 29.568C66.2451 29.148 66.0591 28.506 66.0591 27.642V16.95H67.9851ZM75.6806 30.18C74.7806 30.18 73.9886 29.994 73.3046 29.622C72.6206 29.25 72.0866 28.716 71.7026 28.02C71.3306 27.312 71.1446 26.472 71.1446 25.5C71.1446 24.528 71.3306 23.694 71.7026 22.998C72.0866 22.29 72.6146 21.75 73.2866 21.378C73.9586 21.006 74.7206 20.82 75.5726 20.82C76.4486 20.82 77.1926 21 77.8046 21.36C78.4166 21.72 78.8846 22.212 79.2086 22.836C79.5326 23.46 79.6946 24.168 79.6946 24.96C79.6946 25.176 79.6886 25.38 79.6766 25.572C79.6646 25.764 79.6466 25.932 79.6226 26.076H72.3866V24.6H78.7766L77.8226 24.888C77.8226 24.072 77.6186 23.448 77.2106 23.016C76.8026 22.572 76.2446 22.35 75.5366 22.35C75.0206 22.35 74.5706 22.47 74.1866 22.71C73.8026 22.95 73.5086 23.31 73.3046 23.79C73.1006 24.258 72.9986 24.834 72.9986 25.518C72.9986 26.19 73.1066 26.76 73.3226 27.228C73.5386 27.696 73.8446 28.05 74.2406 28.29C74.6366 28.53 75.1046 28.65 75.6446 28.65C76.2446 28.65 76.7306 28.536 77.1026 28.308C77.4746 28.08 77.7686 27.762 77.9846 27.354L79.5146 28.074C79.2986 28.506 79.0046 28.884 78.6326 29.208C78.2726 29.52 77.8406 29.76 77.3366 29.928C76.8326 30.096 76.2806 30.18 75.6806 30.18ZM85.5468 30.18C84.6468 30.18 83.8248 30.006 83.0808 29.658C82.3368 29.31 81.7488 28.818 81.3168 28.182L82.6488 27.03C82.9128 27.522 83.2908 27.918 83.7828 28.218C84.2868 28.506 84.8868 28.65 85.5828 28.65C86.1348 28.65 86.5728 28.554 86.8968 28.362C87.2208 28.17 87.3828 27.9 87.3828 27.552C87.3828 27.324 87.3048 27.126 87.1488 26.958C87.0048 26.778 86.7228 26.64 86.3028 26.544L84.4128 26.148C83.4528 25.956 82.7688 25.65 82.3608 25.23C81.9528 24.798 81.7488 24.252 81.7488 23.592C81.7488 23.1 81.8928 22.644 82.1808 22.224C82.4688 21.804 82.8888 21.468 83.4408 21.216C84.0048 20.952 84.6768 20.82 85.4568 20.82C86.3568 20.82 87.1248 20.982 87.7608 21.306C88.3968 21.618 88.8828 22.068 89.2188 22.656L87.8868 23.772C87.6588 23.292 87.3228 22.938 86.8788 22.71C86.4348 22.47 85.9728 22.35 85.4928 22.35C85.1088 22.35 84.7788 22.398 84.5028 22.494C84.2268 22.59 84.0168 22.722 83.8728 22.89C83.7288 23.058 83.6568 23.256 83.6568 23.484C83.6568 23.724 83.7468 23.934 83.9268 24.114C84.1068 24.294 84.4308 24.432 84.8988 24.528L86.9508 24.96C87.8148 25.128 88.4208 25.416 88.7688 25.824C89.1288 26.22 89.3088 26.706 89.3088 27.282C89.3088 27.858 89.1588 28.368 88.8588 28.812C88.5588 29.244 88.1268 29.58 87.5628 29.82C86.9988 30.06 86.3268 30.18 85.5468 30.18ZM94.2822 18.354V27.3C94.2822 27.744 94.3962 28.068 94.6242 28.272C94.8642 28.476 95.1822 28.578 95.5782 28.578C95.9022 28.578 96.1842 28.53 96.4242 28.434C96.6642 28.326 96.8862 28.182 97.0902 28.002L97.5222 29.406C97.2462 29.646 96.9042 29.838 96.4962 29.982C96.1002 30.114 95.6562 30.18 95.1642 30.18C94.6482 30.18 94.1742 30.096 93.7422 29.928C93.3102 29.76 92.9742 29.49 92.7342 29.118C92.4942 28.734 92.3682 28.236 92.3562 27.624V18.894L94.2822 18.354ZM97.3782 21V22.512H90.6282V21H97.3782ZM103.189 20.82C104.065 20.82 104.839 21.006 105.511 21.378C106.183 21.75 106.705 22.29 107.077 22.998C107.461 23.694 107.653 24.528 107.653 25.5C107.653 26.472 107.461 27.312 107.077 28.02C106.705 28.716 106.183 29.25 105.511 29.622C104.839 29.994 104.065 30.18 103.189 30.18C102.313 30.18 101.539 29.994 100.867 29.622C100.195 29.25 99.6671 28.716 99.2831 28.02C98.8991 27.312 98.7071 26.472 98.7071 25.5C98.7071 24.528 98.8991 23.694 99.2831 22.998C99.6671 22.29 100.195 21.75 100.867 21.378C101.539 21.006 102.313 20.82 103.189 20.82ZM103.189 22.332C102.649 22.332 102.187 22.458 101.803 22.71C101.431 22.95 101.143 23.304 100.939 23.772C100.735 24.24 100.633 24.816 100.633 25.5C100.633 26.172 100.735 26.748 100.939 27.228C101.143 27.696 101.431 28.056 101.803 28.308C102.187 28.548 102.649 28.668 103.189 28.668C103.729 28.668 104.185 28.548 104.557 28.308C104.929 28.056 105.217 27.696 105.421 27.228C105.625 26.748 105.727 26.172 105.727 25.5C105.727 24.816 105.625 24.24 105.421 23.772C105.217 23.304 104.929 22.95 104.557 22.71C104.185 22.458 103.729 22.332 103.189 22.332ZM110.076 30V21H111.786L111.912 23.34L111.66 23.088C111.828 22.572 112.068 22.146 112.38 21.81C112.704 21.462 113.082 21.21 113.514 21.054C113.958 20.898 114.426 20.82 114.918 20.82C115.554 20.82 116.124 20.946 116.628 21.198C117.144 21.438 117.552 21.804 117.852 22.296C118.152 22.788 118.302 23.412 118.302 24.168V30H116.376V24.762C116.376 23.874 116.19 23.262 115.818 22.926C115.458 22.578 115.002 22.404 114.45 22.404C114.054 22.404 113.67 22.5 113.298 22.692C112.926 22.872 112.614 23.166 112.362 23.574C112.122 23.982 112.002 24.528 112.002 25.212V30H110.076ZM125.181 30.18C124.281 30.18 123.489 29.994 122.805 29.622C122.121 29.25 121.587 28.716 121.203 28.02C120.831 27.312 120.645 26.472 120.645 25.5C120.645 24.528 120.831 23.694 121.203 22.998C121.587 22.29 122.115 21.75 122.787 21.378C123.459 21.006 124.221 20.82 125.073 20.82C125.949 20.82 126.693 21 127.305 21.36C127.917 21.72 128.385 22.212 128.709 22.836C129.033 23.46 129.195 24.168 129.195 24.96C129.195 25.176 129.189 25.38 129.177 25.572C129.165 25.764 129.147 25.932 129.123 26.076H121.887V24.6H128.277L127.323 24.888C127.323 24.072 127.119 23.448 126.711 23.016C126.303 22.572 125.745 22.35 125.037 22.35C124.521 22.35 124.071 22.47 123.687 22.71C123.303 22.95 123.009 23.31 122.805 23.79C122.601 24.258 122.499 24.834 122.499 25.518C122.499 26.19 122.607 26.76 122.823 27.228C123.039 27.696 123.345 28.05 123.741 28.29C124.137 28.53 124.605 28.65 125.145 28.65C125.745 28.65 126.231 28.536 126.603 28.308C126.975 28.08 127.269 27.762 127.485 27.354L129.015 28.074C128.799 28.506 128.505 28.884 128.133 29.208C127.773 29.52 127.341 29.76 126.837 29.928C126.333 30.096 125.781 30.18 125.181 30.18Z" fill="#9CB4C8"/>
<path d="M141.276 20.272H137.064V23.008C137.248 22.752 137.52 22.544 137.88 22.384C138.24 22.216 138.628 22.132 139.044 22.132C139.708 22.132 140.248 22.272 140.664 22.552C141.08 22.824 141.376 23.18 141.552 23.62C141.736 24.052 141.828 24.512 141.828 25C141.828 25.576 141.72 26.092 141.504 26.548C141.288 27.004 140.956 27.364 140.508 27.628C140.068 27.892 139.52 28.024 138.864 28.024C138.024 28.024 137.344 27.808 136.824 27.376C136.304 26.944 135.988 26.368 135.876 25.648H136.944C137.048 26.104 137.268 26.46 137.604 26.716C137.94 26.972 138.364 27.1 138.876 27.1C139.508 27.1 139.984 26.912 140.304 26.536C140.624 26.152 140.784 25.648 140.784 25.024C140.784 24.4 140.624 23.92 140.304 23.584C139.984 23.24 139.512 23.068 138.888 23.068C138.464 23.068 138.092 23.172 137.772 23.38C137.46 23.58 137.232 23.856 137.088 24.208H136.056V19.312H141.276V20.272ZM147.659 16.696L144.371 30.04H143.291L146.567 16.696H147.659ZM154.758 20.272H150.546V23.008C150.73 22.752 151.002 22.544 151.362 22.384C151.722 22.216 152.11 22.132 152.526 22.132C153.19 22.132 153.73 22.272 154.146 22.552C154.562 22.824 154.858 23.18 155.034 23.62C155.218 24.052 155.31 24.512 155.31 25C155.31 25.576 155.202 26.092 154.986 26.548C154.77 27.004 154.438 27.364 153.99 27.628C153.55 27.892 153.002 28.024 152.346 28.024C151.506 28.024 150.826 27.808 150.306 27.376C149.786 26.944 149.47 26.368 149.358 25.648H150.426C150.53 26.104 150.75 26.46 151.086 26.716C151.422 26.972 151.846 27.1 152.358 27.1C152.99 27.1 153.466 26.912 153.786 26.536C154.106 26.152 154.266 25.648 154.266 25.024C154.266 24.4 154.106 23.92 153.786 23.584C153.466 23.24 152.994 23.068 152.37 23.068C151.946 23.068 151.574 23.172 151.254 23.38C150.942 23.58 150.714 23.856 150.57 24.208H149.538V19.312H154.758V20.272ZM156.881 23.572C156.881 22.196 157.105 21.124 157.553 20.356C158.001 19.58 158.785 19.192 159.905 19.192C161.017 19.192 161.797 19.58 162.245 20.356C162.693 21.124 162.917 22.196 162.917 23.572C162.917 24.972 162.693 26.06 162.245 26.836C161.797 27.612 161.017 28 159.905 28C158.785 28 158.001 27.612 157.553 26.836C157.105 26.06 156.881 24.972 156.881 23.572ZM161.837 23.572C161.837 22.876 161.789 22.288 161.693 21.808C161.605 21.32 161.417 20.928 161.129 20.632C160.849 20.336 160.441 20.188 159.905 20.188C159.361 20.188 158.945 20.336 158.657 20.632C158.377 20.928 158.189 21.32 158.093 21.808C158.005 22.288 157.961 22.876 157.961 23.572C157.961 24.292 158.005 24.896 158.093 25.384C158.189 25.872 158.377 26.264 158.657 26.56C158.945 26.856 159.361 27.004 159.905 27.004C160.441 27.004 160.849 26.856 161.129 26.56C161.417 26.264 161.605 25.872 161.693 25.384C161.789 24.896 161.837 24.292 161.837 23.572ZM173.868 21.424V28H172.776V27.028C172.568 27.364 172.276 27.628 171.9 27.82C171.532 28.004 171.124 28.096 170.676 28.096C170.164 28.096 169.704 27.992 169.296 27.784C168.888 27.568 168.564 27.248 168.324 26.824C168.092 26.4 167.976 25.884 167.976 25.276V21.424H169.056V25.132C169.056 25.78 169.22 26.28 169.548 26.632C169.876 26.976 170.324 27.148 170.892 27.148C171.476 27.148 171.936 26.968 172.272 26.608C172.608 26.248 172.776 25.724 172.776 25.036V21.424H173.868ZM179.036 21.304C179.836 21.304 180.484 21.548 180.98 22.036C181.476 22.516 181.724 23.212 181.724 24.124V28H180.644V24.28C180.644 23.624 180.48 23.124 180.152 22.78C179.824 22.428 179.376 22.252 178.808 22.252C178.232 22.252 177.772 22.432 177.428 22.792C177.092 23.152 176.924 23.676 176.924 24.364V28H175.832V21.424H176.924V22.36C177.14 22.024 177.432 21.764 177.8 21.58C178.176 21.396 178.588 21.304 179.036 21.304ZM184.719 19.12V28H183.627V19.12H184.719ZM189.568 28.108C188.952 28.108 188.392 27.968 187.888 27.688C187.392 27.408 187 27.012 186.712 26.5C186.432 25.98 186.292 25.38 186.292 24.7C186.292 24.028 186.436 23.436 186.724 22.924C187.02 22.404 187.42 22.008 187.924 21.736C188.428 21.456 188.992 21.316 189.616 21.316C190.24 21.316 190.804 21.456 191.308 21.736C191.812 22.008 192.208 22.4 192.496 22.912C192.792 23.424 192.94 24.02 192.94 24.7C192.94 25.38 192.788 25.98 192.484 26.5C192.188 27.012 191.784 27.408 191.272 27.688C190.76 27.968 190.192 28.108 189.568 28.108ZM189.568 27.148C189.96 27.148 190.328 27.056 190.672 26.872C191.016 26.688 191.292 26.412 191.5 26.044C191.716 25.676 191.824 25.228 191.824 24.7C191.824 24.172 191.72 23.724 191.512 23.356C191.304 22.988 191.032 22.716 190.696 22.54C190.36 22.356 189.996 22.264 189.604 22.264C189.204 22.264 188.836 22.356 188.5 22.54C188.172 22.716 187.908 22.988 187.708 23.356C187.508 23.724 187.408 24.172 187.408 24.7C187.408 25.236 187.504 25.688 187.696 26.056C187.896 26.424 188.16 26.7 188.488 26.884C188.816 27.06 189.176 27.148 189.568 27.148ZM194.088 24.7C194.088 24.02 194.224 23.428 194.496 22.924C194.768 22.412 195.144 22.016 195.624 21.736C196.112 21.456 196.668 21.316 197.292 21.316C198.1 21.316 198.764 21.512 199.284 21.904C199.812 22.296 200.16 22.84 200.328 23.536H199.152C199.04 23.136 198.82 22.82 198.492 22.588C198.172 22.356 197.772 22.24 197.292 22.24C196.668 22.24 196.164 22.456 195.78 22.888C195.396 23.312 195.204 23.916 195.204 24.7C195.204 25.492 195.396 26.104 195.78 26.536C196.164 26.968 196.668 27.184 197.292 27.184C197.772 27.184 198.172 27.072 198.492 26.848C198.812 26.624 199.032 26.304 199.152 25.888H200.328C200.152 26.56 199.8 27.1 199.272 27.508C198.744 27.908 198.084 28.108 197.292 28.108C196.668 28.108 196.112 27.968 195.624 27.688C195.144 27.408 194.768 27.012 194.496 26.5C194.224 25.988 194.088 25.388 194.088 24.7ZM205.577 28L202.997 25.096V28H201.905V19.12H202.997V24.34L205.529 21.424H207.053L203.957 24.7L207.065 28H205.577ZM214.201 24.46C214.201 24.668 214.189 24.888 214.165 25.12H208.909C208.949 25.768 209.169 26.276 209.569 26.644C209.977 27.004 210.469 27.184 211.045 27.184C211.517 27.184 211.909 27.076 212.221 26.86C212.541 26.636 212.765 26.34 212.893 25.972H214.069C213.893 26.604 213.541 27.12 213.013 27.52C212.485 27.912 211.829 28.108 211.045 28.108C210.421 28.108 209.861 27.968 209.365 27.688C208.877 27.408 208.493 27.012 208.213 26.5C207.933 25.98 207.793 25.38 207.793 24.7C207.793 24.02 207.929 23.424 208.201 22.912C208.473 22.4 208.853 22.008 209.341 21.736C209.837 21.456 210.405 21.316 211.045 21.316C211.669 21.316 212.221 21.452 212.701 21.724C213.181 21.996 213.549 22.372 213.805 22.852C214.069 23.324 214.201 23.86 214.201 24.46ZM213.073 24.232C213.073 23.816 212.981 23.46 212.797 23.164C212.613 22.86 212.361 22.632 212.041 22.48C211.729 22.32 211.381 22.24 210.997 22.24C210.445 22.24 209.973 22.416 209.581 22.768C209.197 23.12 208.977 23.608 208.921 24.232H213.073ZM215.354 24.688C215.354 24.016 215.49 23.428 215.762 22.924C216.034 22.412 216.406 22.016 216.878 21.736C217.358 21.456 217.894 21.316 218.486 21.316C218.998 21.316 219.474 21.436 219.914 21.676C220.354 21.908 220.69 22.216 220.922 22.6V19.12H222.026V28H220.922V26.764C220.706 27.156 220.386 27.48 219.962 27.736C219.538 27.984 219.042 28.108 218.474 28.108C217.89 28.108 217.358 27.964 216.878 27.676C216.406 27.388 216.034 26.984 215.762 26.464C215.49 25.944 215.354 25.352 215.354 24.688ZM220.922 24.7C220.922 24.204 220.822 23.772 220.622 23.404C220.422 23.036 220.15 22.756 219.806 22.564C219.47 22.364 219.098 22.264 218.69 22.264C218.282 22.264 217.91 22.36 217.574 22.552C217.238 22.744 216.97 23.024 216.77 23.392C216.57 23.76 216.47 24.192 216.47 24.688C216.47 25.192 216.57 25.632 216.77 26.008C216.97 26.376 217.238 26.66 217.574 26.86C217.91 27.052 218.282 27.148 218.69 27.148C219.098 27.148 219.47 27.052 219.806 26.86C220.15 26.66 220.422 26.376 220.622 26.008C220.822 25.632 220.922 25.196 220.922 24.7Z" fill="#32D583"/>
<path d="M22.37 63L18.352 58.548V63H17.078V53.242H18.352V57.764L22.384 53.242H23.994L19.57 58.128L24.036 63H22.37ZM32.4589 58.87C32.4589 59.1127 32.4449 59.3693 32.4169 59.64H26.2849C26.3315 60.396 26.5882 60.9887 27.0549 61.418C27.5309 61.838 28.1049 62.048 28.7769 62.048C29.3275 62.048 29.7849 61.922 30.1489 61.67C30.5222 61.4087 30.7835 61.0633 30.9329 60.634H32.3049C32.0995 61.3713 31.6889 61.9733 31.0729 62.44C30.4569 62.8973 29.6915 63.126 28.7769 63.126C28.0489 63.126 27.3955 62.9627 26.8169 62.636C26.2475 62.3093 25.7995 61.8473 25.4729 61.25C25.1462 60.6433 24.9829 59.9433 24.9829 59.15C24.9829 58.3567 25.1415 57.6613 25.4589 57.064C25.7762 56.4667 26.2195 56.0093 26.7889 55.692C27.3675 55.3653 28.0302 55.202 28.7769 55.202C29.5049 55.202 30.1489 55.3607 30.7089 55.678C31.2689 55.9953 31.6982 56.434 31.9969 56.994C32.3049 57.5447 32.4589 58.17 32.4589 58.87ZM31.1429 58.604C31.1429 58.1187 31.0355 57.7033 30.8209 57.358C30.6062 57.0033 30.3122 56.7373 29.9389 56.56C29.5749 56.3733 29.1689 56.28 28.7209 56.28C28.0769 56.28 27.5262 56.4853 27.0689 56.896C26.6209 57.3067 26.3642 57.876 26.2989 58.604H31.1429ZM41.1405 58.87C41.1405 59.1127 41.1265 59.3693 41.0985 59.64H34.9665C35.0132 60.396 35.2698 60.9887 35.7365 61.418C36.2125 61.838 36.7865 62.048 37.4585 62.048C38.0092 62.048 38.4665 61.922 38.8305 61.67C39.2038 61.4087 39.4652 61.0633 39.6145 60.634H40.9865C40.7812 61.3713 40.3705 61.9733 39.7545 62.44C39.1385 62.8973 38.3732 63.126 37.4585 63.126C36.7305 63.126 36.0772 62.9627 35.4985 62.636C34.9292 62.3093 34.4812 61.8473 34.1545 61.25C33.8278 60.6433 33.6645 59.9433 33.6645 59.15C33.6645 58.3567 33.8232 57.6613 34.1405 57.064C34.4578 56.4667 34.9012 56.0093 35.4705 55.692C36.0492 55.3653 36.7118 55.202 37.4585 55.202C38.1865 55.202 38.8305 55.3607 39.3905 55.678C39.9505 55.9953 40.3798 56.434 40.6785 56.994C40.9865 57.5447 41.1405 58.17 41.1405 58.87ZM39.8245 58.604C39.8245 58.1187 39.7172 57.7033 39.5025 57.358C39.2878 57.0033 38.9938 56.7373 38.6205 56.56C38.2565 56.3733 37.8505 56.28 37.4025 56.28C36.7585 56.28 36.2078 56.4853 35.7505 56.896C35.3025 57.3067 35.0458 57.876 34.9805 58.604H39.8245ZM44.0961 56.742C44.3481 56.3033 44.7215 55.9393 45.2161 55.65C45.7201 55.3513 46.3035 55.202 46.9661 55.202C47.6475 55.202 48.2635 55.3653 48.8141 55.692C49.3741 56.0187 49.8128 56.4807 50.1301 57.078C50.4475 57.666 50.6061 58.352 50.6061 59.136C50.6061 59.9107 50.4475 60.6013 50.1301 61.208C49.8128 61.8147 49.3741 62.286 48.8141 62.622C48.2635 62.958 47.6475 63.126 46.9661 63.126C46.3128 63.126 45.7341 62.9813 45.2301 62.692C44.7355 62.3933 44.3575 62.0247 44.0961 61.586V66.64H42.8221V55.328H44.0961V56.742ZM49.3041 59.136C49.3041 58.5573 49.1875 58.0533 48.9541 57.624C48.7208 57.1947 48.4035 56.868 48.0021 56.644C47.6101 56.42 47.1761 56.308 46.7001 56.308C46.2335 56.308 45.7995 56.4247 45.3981 56.658C45.0061 56.882 44.6888 57.2133 44.4461 57.652C44.2128 58.0813 44.0961 58.5807 44.0961 59.15C44.0961 59.7287 44.2128 60.2373 44.4461 60.676C44.6888 61.1053 45.0061 61.4367 45.3981 61.67C45.7995 61.894 46.2335 62.006 46.7001 62.006C47.1761 62.006 47.6101 61.894 48.0021 61.67C48.4035 61.4367 48.7208 61.1053 48.9541 60.676C49.1875 60.2373 49.3041 59.724 49.3041 59.136ZM62.8195 55.328V63H61.5455V61.866C61.3028 62.258 60.9622 62.566 60.5235 62.79C60.0942 63.0047 59.6182 63.112 59.0955 63.112C58.4982 63.112 57.9615 62.9907 57.4855 62.748C57.0095 62.496 56.6315 62.1227 56.3515 61.628C56.0808 61.1333 55.9455 60.5313 55.9455 59.822V55.328H57.2055V59.654C57.2055 60.41 57.3968 60.9933 57.7795 61.404C58.1622 61.8053 58.6848 62.006 59.3475 62.006C60.0288 62.006 60.5655 61.796 60.9575 61.376C61.3495 60.956 61.5455 60.3447 61.5455 59.542V55.328H62.8195ZM66.2446 56.742C66.4966 56.3033 66.8699 55.9393 67.3646 55.65C67.8686 55.3513 68.4519 55.202 69.1146 55.202C69.7959 55.202 70.4119 55.3653 70.9626 55.692C71.5226 56.0187 71.9612 56.4807 72.2786 57.078C72.5959 57.666 72.7546 58.352 72.7546 59.136C72.7546 59.9107 72.5959 60.6013 72.2786 61.208C71.9612 61.8147 71.5226 62.286 70.9626 62.622C70.4119 62.958 69.7959 63.126 69.1146 63.126C68.4612 63.126 67.8826 62.9813 67.3786 62.692C66.8839 62.3933 66.5059 62.0247 66.2446 61.586V66.64H64.9706V55.328H66.2446V56.742ZM71.4526 59.136C71.4526 58.5573 71.3359 58.0533 71.1026 57.624C70.8692 57.1947 70.5519 56.868 70.1506 56.644C69.7586 56.42 69.3246 56.308 68.8486 56.308C68.3819 56.308 67.9479 56.4247 67.5466 56.658C67.1546 56.882 66.8372 57.2133 66.5946 57.652C66.3612 58.0813 66.2446 58.5807 66.2446 59.15C66.2446 59.7287 66.3612 60.2373 66.5946 60.676C66.8372 61.1053 67.1546 61.4367 67.5466 61.67C67.9479 61.894 68.3819 62.006 68.8486 62.006C69.3246 62.006 69.7586 61.894 70.1506 61.67C70.5519 61.4367 70.8692 61.1053 71.1026 60.676C71.3359 60.2373 71.4526 59.724 71.4526 59.136ZM79.7179 56.378V60.9C79.7179 61.2733 79.7973 61.5393 79.9559 61.698C80.1146 61.8473 80.3899 61.922 80.7819 61.922H81.7199V63H80.5719C79.8626 63 79.3306 62.8367 78.9759 62.51C78.6213 62.1833 78.4439 61.6467 78.4439 60.9V56.378H77.4499V55.328H78.4439V53.396H79.7179V55.328H81.7199V56.378H79.7179ZM87.0715 55.188C87.6502 55.188 88.1729 55.314 88.6395 55.566C89.1062 55.8087 89.4702 56.1773 89.7315 56.672C90.0022 57.1667 90.1375 57.7687 90.1375 58.478V63H88.8775V58.66C88.8775 57.8947 88.6862 57.3113 88.3035 56.91C87.9209 56.4993 87.3982 56.294 86.7355 56.294C86.0635 56.294 85.5269 56.504 85.1255 56.924C84.7335 57.344 84.5375 57.9553 84.5375 58.758V63H83.2635V52.64H84.5375V56.42C84.7895 56.028 85.1349 55.7247 85.5735 55.51C86.0215 55.2953 86.5209 55.188 87.0715 55.188ZM99.2186 58.87C99.2186 59.1127 99.2046 59.3693 99.1766 59.64H93.0446C93.0913 60.396 93.348 60.9887 93.8146 61.418C94.2906 61.838 94.8646 62.048 95.5366 62.048C96.0873 62.048 96.5446 61.922 96.9086 61.67C97.282 61.4087 97.5433 61.0633 97.6926 60.634H99.0646C98.8593 61.3713 98.4486 61.9733 97.8326 62.44C97.2166 62.8973 96.4513 63.126 95.5366 63.126C94.8086 63.126 94.1553 62.9627 93.5766 62.636C93.0073 62.3093 92.5593 61.8473 92.2326 61.25C91.906 60.6433 91.7426 59.9433 91.7426 59.15C91.7426 58.3567 91.9013 57.6613 92.2186 57.064C92.536 56.4667 92.9793 56.0093 93.5486 55.692C94.1273 55.3653 94.79 55.202 95.5366 55.202C96.2646 55.202 96.9086 55.3607 97.4686 55.678C98.0286 55.9953 98.458 56.434 98.7566 56.994C99.0646 57.5447 99.2186 58.17 99.2186 58.87ZM97.9026 58.604C97.9026 58.1187 97.7953 57.7033 97.5806 57.358C97.366 57.0033 97.072 56.7373 96.6986 56.56C96.3346 56.3733 95.9286 56.28 95.4806 56.28C94.8366 56.28 94.286 56.4853 93.8286 56.896C93.3806 57.3067 93.124 57.876 93.0586 58.604H97.9026ZM107.797 55.202C108.459 55.202 109.038 55.3467 109.533 55.636C110.037 55.9253 110.41 56.2893 110.653 56.728V55.328H111.941V63.168C111.941 63.868 111.791 64.4887 111.493 65.03C111.194 65.5807 110.765 66.01 110.205 66.318C109.654 66.626 109.01 66.78 108.273 66.78C107.265 66.78 106.425 66.542 105.753 66.066C105.081 65.59 104.684 64.9413 104.563 64.12H105.823C105.963 64.5867 106.252 64.96 106.691 65.24C107.129 65.5293 107.657 65.674 108.273 65.674C108.973 65.674 109.542 65.4547 109.981 65.016C110.429 64.5773 110.653 63.9613 110.653 63.168V61.558C110.401 62.006 110.027 62.3793 109.533 62.678C109.038 62.9767 108.459 63.126 107.797 63.126C107.115 63.126 106.495 62.958 105.935 62.622C105.384 62.286 104.95 61.8147 104.633 61.208C104.315 60.6013 104.157 59.9107 104.157 59.136C104.157 58.352 104.315 57.666 104.633 57.078C104.95 56.4807 105.384 56.0187 105.935 55.692C106.495 55.3653 107.115 55.202 107.797 55.202ZM110.653 59.15C110.653 58.5713 110.536 58.0673 110.303 57.638C110.069 57.2087 109.752 56.882 109.351 56.658C108.959 56.4247 108.525 56.308 108.049 56.308C107.573 56.308 107.139 56.42 106.747 56.644C106.355 56.868 106.042 57.1947 105.809 57.624C105.575 58.0533 105.459 58.5573 105.459 59.136C105.459 59.724 105.575 60.2373 105.809 60.676C106.042 61.1053 106.355 61.4367 106.747 61.67C107.139 61.894 107.573 62.006 108.049 62.006C108.525 62.006 108.959 61.894 109.351 61.67C109.752 61.4367 110.069 61.1053 110.303 60.676C110.536 60.2373 110.653 59.7287 110.653 59.15ZM115.368 56.574C115.592 56.1353 115.909 55.7947 116.32 55.552C116.74 55.3093 117.248 55.188 117.846 55.188V56.504H117.51C116.082 56.504 115.368 57.2787 115.368 58.828V63H114.094V55.328H115.368V56.574ZM126.316 58.87C126.316 59.1127 126.302 59.3693 126.274 59.64H120.142C120.189 60.396 120.446 60.9887 120.912 61.418C121.388 61.838 121.962 62.048 122.634 62.048C123.185 62.048 123.642 61.922 124.006 61.67C124.38 61.4087 124.641 61.0633 124.79 60.634H126.162C125.957 61.3713 125.546 61.9733 124.93 62.44C124.314 62.8973 123.549 63.126 122.634 63.126C121.906 63.126 121.253 62.9627 120.674 62.636C120.105 62.3093 119.657 61.8473 119.33 61.25C119.004 60.6433 118.84 59.9433 118.84 59.15C118.84 58.3567 118.999 57.6613 119.316 57.064C119.634 56.4667 120.077 56.0093 120.646 55.692C121.225 55.3653 121.888 55.202 122.634 55.202C123.362 55.202 124.006 55.3607 124.566 55.678C125.126 55.9953 125.556 56.434 125.854 56.994C126.162 57.5447 126.316 58.17 126.316 58.87ZM125 58.604C125 58.1187 124.893 57.7033 124.678 57.358C124.464 57.0033 124.17 56.7373 123.796 56.56C123.432 56.3733 123.026 56.28 122.578 56.28C121.934 56.28 121.384 56.4853 120.926 56.896C120.478 57.3067 120.222 57.876 120.156 58.604H125ZM127.522 59.136C127.522 58.352 127.681 57.666 127.998 57.078C128.315 56.4807 128.749 56.0187 129.3 55.692C129.86 55.3653 130.481 55.202 131.162 55.202C131.834 55.202 132.417 55.3467 132.912 55.636C133.407 55.9253 133.775 56.2893 134.018 56.728V55.328H135.306V63H134.018V61.572C133.766 62.02 133.388 62.3933 132.884 62.692C132.389 62.9813 131.811 63.126 131.148 63.126C130.467 63.126 129.851 62.958 129.3 62.622C128.749 62.286 128.315 61.8147 127.998 61.208C127.681 60.6013 127.522 59.9107 127.522 59.136ZM134.018 59.15C134.018 58.5713 133.901 58.0673 133.668 57.638C133.435 57.2087 133.117 56.882 132.716 56.658C132.324 56.4247 131.89 56.308 131.414 56.308C130.938 56.308 130.504 56.42 130.112 56.644C129.72 56.868 129.407 57.1947 129.174 57.624C128.941 58.0533 128.824 58.5573 128.824 59.136C128.824 59.724 128.941 60.2373 129.174 60.676C129.407 61.1053 129.72 61.4367 130.112 61.67C130.504 61.894 130.938 62.006 131.414 62.006C131.89 62.006 132.324 61.894 132.716 61.67C133.117 61.4367 133.435 61.1053 133.668 60.676C133.901 60.2373 134.018 59.7287 134.018 59.15ZM139.013 56.378V60.9C139.013 61.2733 139.092 61.5393 139.251 61.698C139.41 61.8473 139.685 61.922 140.077 61.922H141.015V63H139.867C139.158 63 138.626 62.8367 138.271 62.51C137.916 62.1833 137.739 61.6467 137.739 60.9V56.378H136.745V55.328H137.739V53.396H139.013V55.328H141.015V56.378H139.013ZM156.511 55.328L154.117 63H152.801L150.953 56.91L149.105 63H147.789L145.381 55.328H146.683L148.447 61.768L150.351 55.328H151.653L153.515 61.782L155.251 55.328H156.511ZM161.121 63.126C160.403 63.126 159.749 62.9627 159.161 62.636C158.583 62.3093 158.125 61.8473 157.789 61.25C157.463 60.6433 157.299 59.9433 157.299 59.15C157.299 58.366 157.467 57.6753 157.803 57.078C158.149 56.4713 158.615 56.0093 159.203 55.692C159.791 55.3653 160.449 55.202 161.177 55.202C161.905 55.202 162.563 55.3653 163.151 55.692C163.739 56.0093 164.201 56.4667 164.537 57.064C164.883 57.6613 165.055 58.3567 165.055 59.15C165.055 59.9433 164.878 60.6433 164.523 61.25C164.178 61.8473 163.707 62.3093 163.109 62.636C162.512 62.9627 161.849 63.126 161.121 63.126ZM161.121 62.006C161.579 62.006 162.008 61.8987 162.409 61.684C162.811 61.4693 163.133 61.1473 163.375 60.718C163.627 60.2887 163.753 59.766 163.753 59.15C163.753 58.534 163.632 58.0113 163.389 57.582C163.147 57.1527 162.829 56.8353 162.437 56.63C162.045 56.4153 161.621 56.308 161.163 56.308C160.697 56.308 160.267 56.4153 159.875 56.63C159.493 56.8353 159.185 57.1527 158.951 57.582C158.718 58.0113 158.601 58.534 158.601 59.15C158.601 59.7753 158.713 60.3027 158.937 60.732C159.171 61.1613 159.479 61.4833 159.861 61.698C160.244 61.9033 160.664 62.006 161.121 62.006ZM168.004 56.574C168.228 56.1353 168.546 55.7947 168.956 55.552C169.376 55.3093 169.885 55.188 170.482 55.188V56.504H170.146C168.718 56.504 168.004 57.2787 168.004 58.828V63H166.73V55.328H168.004V56.574ZM176.237 63L173.227 59.612V63H171.953V52.64H173.227V58.73L176.181 55.328H177.959L174.347 59.15L177.973 63H176.237ZM179.564 63.084C179.321 63.084 179.116 63 178.948 62.832C178.78 62.664 178.696 62.4587 178.696 62.216C178.696 61.9733 178.78 61.768 178.948 61.6C179.116 61.432 179.321 61.348 179.564 61.348C179.797 61.348 179.993 61.432 180.152 61.6C180.32 61.768 180.404 61.9733 180.404 62.216C180.404 62.4587 180.32 62.664 180.152 62.832C179.993 63 179.797 63.084 179.564 63.084ZM192.662 53.242L189.484 59.318V63H188.21V59.318L185.018 53.242H186.432L188.84 58.184L191.248 53.242H192.662ZM197.352 63.126C196.633 63.126 195.98 62.9627 195.392 62.636C194.813 62.3093 194.356 61.8473 194.02 61.25C193.693 60.6433 193.53 59.9433 193.53 59.15C193.53 58.366 193.698 57.6753 194.034 57.078C194.379 56.4713 194.846 56.0093 195.434 55.692C196.022 55.3653 196.68 55.202 197.408 55.202C198.136 55.202 198.794 55.3653 199.382 55.692C199.97 56.0093 200.432 56.4667 200.768 57.064C201.113 57.6613 201.286 58.3567 201.286 59.15C201.286 59.9433 201.108 60.6433 200.754 61.25C200.408 61.8473 199.937 62.3093 199.34 62.636C198.742 62.9627 198.08 63.126 197.352 63.126ZM197.352 62.006C197.809 62.006 198.238 61.8987 198.64 61.684C199.041 61.4693 199.363 61.1473 199.606 60.718C199.858 60.2887 199.984 59.766 199.984 59.15C199.984 58.534 199.862 58.0113 199.62 57.582C199.377 57.1527 199.06 56.8353 198.668 56.63C198.276 56.4153 197.851 56.308 197.394 56.308C196.927 56.308 196.498 56.4153 196.106 56.63C195.723 56.8353 195.415 57.1527 195.182 57.582C194.948 58.0113 194.832 58.534 194.832 59.15C194.832 59.7753 194.944 60.3027 195.168 60.732C195.401 61.1613 195.709 61.4833 196.092 61.698C196.474 61.9033 196.894 62.006 197.352 62.006ZM209.765 55.328V63H208.491V61.866C208.248 62.258 207.907 62.566 207.469 62.79C207.039 63.0047 206.563 63.112 206.041 63.112C205.443 63.112 204.907 62.9907 204.431 62.748C203.955 62.496 203.577 62.1227 203.297 61.628C203.026 61.1333 202.891 60.5313 202.891 59.822V55.328H204.151V59.654C204.151 60.41 204.342 60.9933 204.725 61.404C205.107 61.8053 205.63 62.006 206.293 62.006C206.974 62.006 207.511 61.796 207.903 61.376C208.295 60.956 208.491 60.3447 208.491 59.542V55.328H209.765ZM212.112 53.242H213.526L212.182 56.42H211.286L212.112 53.242ZM216.252 56.574C216.476 56.1353 216.794 55.7947 217.204 55.552C217.624 55.3093 218.133 55.188 218.73 55.188V56.504H218.394C216.966 56.504 216.252 57.2787 216.252 58.828V63H214.978V55.328H216.252V56.574ZM227.201 58.87C227.201 59.1127 227.187 59.3693 227.159 59.64H221.027C221.074 60.396 221.33 60.9887 221.797 61.418C222.273 61.838 222.847 62.048 223.519 62.048C224.07 62.048 224.527 61.922 224.891 61.67C225.264 61.4087 225.526 61.0633 225.675 60.634H227.047C226.842 61.3713 226.431 61.9733 225.815 62.44C225.199 62.8973 224.434 63.126 223.519 63.126C222.791 63.126 222.138 62.9627 221.559 62.636C220.99 62.3093 220.542 61.8473 220.215 61.25C219.888 60.6433 219.725 59.9433 219.725 59.15C219.725 58.3567 219.884 57.6613 220.201 57.064C220.518 56.4667 220.962 56.0093 221.531 55.692C222.11 55.3653 222.772 55.202 223.519 55.202C224.247 55.202 224.891 55.3607 225.451 55.678C226.011 55.9953 226.44 56.434 226.739 56.994C227.047 57.5447 227.201 58.17 227.201 58.87ZM225.885 58.604C225.885 58.1187 225.778 57.7033 225.563 57.358C225.348 57.0033 225.054 56.7373 224.681 56.56C224.317 56.3733 223.911 56.28 223.463 56.28C222.819 56.28 222.268 56.4853 221.811 56.896C221.363 57.3067 221.106 57.876 221.041 58.604H225.885ZM232.139 59.136C232.139 58.352 232.298 57.666 232.615 57.078C232.932 56.4807 233.366 56.0187 233.917 55.692C234.477 55.3653 235.102 55.202 235.793 55.202C236.39 55.202 236.946 55.342 237.459 55.622C237.972 55.8927 238.364 56.252 238.635 56.7V52.64H239.923V63H238.635V61.558C238.383 62.0153 238.01 62.3933 237.515 62.692C237.02 62.9813 236.442 63.126 235.779 63.126C235.098 63.126 234.477 62.958 233.917 62.622C233.366 62.286 232.932 61.8147 232.615 61.208C232.298 60.6013 232.139 59.9107 232.139 59.136ZM238.635 59.15C238.635 58.5713 238.518 58.0673 238.285 57.638C238.052 57.2087 237.734 56.882 237.333 56.658C236.941 56.4247 236.507 56.308 236.031 56.308C235.555 56.308 235.121 56.42 234.729 56.644C234.337 56.868 234.024 57.1947 233.791 57.624C233.558 58.0533 233.441 58.5573 233.441 59.136C233.441 59.724 233.558 60.2373 233.791 60.676C234.024 61.1053 234.337 61.4367 234.729 61.67C235.121 61.894 235.555 62.006 236.031 62.006C236.507 62.006 236.941 61.894 237.333 61.67C237.734 61.4367 238.052 61.1053 238.285 60.676C238.518 60.2373 238.635 59.7287 238.635 59.15ZM245.422 63.126C244.703 63.126 244.05 62.9627 243.462 62.636C242.883 62.3093 242.426 61.8473 242.09 61.25C241.763 60.6433 241.6 59.9433 241.6 59.15C241.6 58.366 241.768 57.6753 242.104 57.078C242.449 56.4713 242.916 56.0093 243.504 55.692C244.092 55.3653 244.75 55.202 245.478 55.202C246.206 55.202 246.864 55.3653 247.452 55.692C248.04 56.0093 248.502 56.4667 248.838 57.064C249.183 57.6613 249.356 58.3567 249.356 59.15C249.356 59.9433 249.179 60.6433 248.824 61.25C248.479 61.8473 248.007 62.3093 247.41 62.636C246.813 62.9627 246.15 63.126 245.422 63.126ZM245.422 62.006C245.879 62.006 246.309 61.8987 246.71 61.684C247.111 61.4693 247.433 61.1473 247.676 60.718C247.928 60.2887 248.054 59.766 248.054 59.15C248.054 58.534 247.933 58.0113 247.69 57.582C247.447 57.1527 247.13 56.8353 246.738 56.63C246.346 56.4153 245.921 56.308 245.464 56.308C244.997 56.308 244.568 56.4153 244.176 56.63C243.793 56.8353 243.485 57.1527 243.252 57.582C243.019 58.0113 242.902 58.534 242.902 59.15C242.902 59.7753 243.014 60.3027 243.238 60.732C243.471 61.1613 243.779 61.4833 244.162 61.698C244.545 61.9033 244.965 62.006 245.422 62.006ZM251.689 54.082C251.446 54.082 251.241 53.998 251.073 53.83C250.905 53.662 250.821 53.4567 250.821 53.214C250.821 52.9713 250.905 52.766 251.073 52.598C251.241 52.43 251.446 52.346 251.689 52.346C251.922 52.346 252.118 52.43 252.277 52.598C252.445 52.766 252.529 52.9713 252.529 53.214C252.529 53.4567 252.445 53.662 252.277 53.83C252.118 53.998 251.922 54.082 251.689 54.082ZM252.305 55.328V63H251.031V55.328H252.305ZM258.214 55.188C259.148 55.188 259.904 55.4727 260.482 56.042C261.061 56.602 261.35 57.414 261.35 58.478V63H260.09V58.66C260.09 57.8947 259.899 57.3113 259.516 56.91C259.134 56.4993 258.611 56.294 257.948 56.294C257.276 56.294 256.74 56.504 256.338 56.924C255.946 57.344 255.75 57.9553 255.75 58.758V63H254.476V55.328H255.75V56.42C256.002 56.028 256.343 55.7247 256.772 55.51C257.211 55.2953 257.692 55.188 258.214 55.188ZM266.596 55.202C267.258 55.202 267.837 55.3467 268.332 55.636C268.836 55.9253 269.209 56.2893 269.452 56.728V55.328H270.74V63.168C270.74 63.868 270.59 64.4887 270.292 65.03C269.993 65.5807 269.564 66.01 269.004 66.318C268.453 66.626 267.809 66.78 267.072 66.78C266.064 66.78 265.224 66.542 264.552 66.066C263.88 65.59 263.483 64.9413 263.362 64.12H264.622C264.762 64.5867 265.051 64.96 265.49 65.24C265.928 65.5293 266.456 65.674 267.072 65.674C267.772 65.674 268.341 65.4547 268.78 65.016C269.228 64.5773 269.452 63.9613 269.452 63.168V61.558C269.2 62.006 268.826 62.3793 268.332 62.678C267.837 62.9767 267.258 63.126 266.596 63.126C265.914 63.126 265.294 62.958 264.734 62.622C264.183 62.286 263.749 61.8147 263.432 61.208C263.114 60.6013 262.956 59.9107 262.956 59.136C262.956 58.352 263.114 57.666 263.432 57.078C263.749 56.4807 264.183 56.0187 264.734 55.692C265.294 55.3653 265.914 55.202 266.596 55.202ZM269.452 59.15C269.452 58.5713 269.335 58.0673 269.102 57.638C268.868 57.2087 268.551 56.882 268.15 56.658C267.758 56.4247 267.324 56.308 266.848 56.308C266.372 56.308 265.938 56.42 265.546 56.644C265.154 56.868 264.841 57.1947 264.608 57.624C264.374 58.0533 264.258 58.5573 264.258 59.136C264.258 59.724 264.374 60.2373 264.608 60.676C264.841 61.1053 265.154 61.4367 265.546 61.67C265.938 61.894 266.372 62.006 266.848 62.006C267.324 62.006 267.758 61.894 268.15 61.67C268.551 61.4367 268.868 61.1053 269.102 60.676C269.335 60.2373 269.452 59.7287 269.452 59.15ZM20.2 76.378H18.59V83H17.316V76.378H16.322V75.328H17.316V74.782C17.316 73.9233 17.5353 73.298 17.974 72.906C18.422 72.5047 19.136 72.304 20.116 72.304V73.368C19.556 73.368 19.1593 73.48 18.926 73.704C18.702 73.9187 18.59 74.278 18.59 74.782V75.328H20.2V76.378ZM21.2094 79.136C21.2094 78.352 21.3681 77.666 21.6854 77.078C22.0028 76.4807 22.4368 76.0187 22.9874 75.692C23.5474 75.3653 24.1681 75.202 24.8494 75.202C25.5214 75.202 26.1048 75.3467 26.5994 75.636C27.0941 75.9253 27.4628 76.2893 27.7054 76.728V75.328H28.9934V83H27.7054V81.572C27.4534 82.02 27.0754 82.3933 26.5714 82.692C26.0768 82.9813 25.4981 83.126 24.8354 83.126C24.1541 83.126 23.5381 82.958 22.9874 82.622C22.4368 82.286 22.0028 81.8147 21.6854 81.208C21.3681 80.6013 21.2094 79.9107 21.2094 79.136ZM27.7054 79.15C27.7054 78.5713 27.5888 78.0673 27.3554 77.638C27.1221 77.2087 26.8048 76.882 26.4034 76.658C26.0114 76.4247 25.5774 76.308 25.1014 76.308C24.6254 76.308 24.1914 76.42 23.7994 76.644C23.4074 76.868 23.0948 77.1947 22.8614 77.624C22.6281 78.0533 22.5114 78.5573 22.5114 79.136C22.5114 79.724 22.6281 80.2373 22.8614 80.676C23.0948 81.1053 23.4074 81.4367 23.7994 81.67C24.1914 81.894 24.6254 82.006 25.1014 82.006C25.5774 82.006 26.0114 81.894 26.4034 81.67C26.8048 81.4367 27.1221 81.1053 27.3554 80.676C27.5888 80.2373 27.7054 79.7287 27.7054 79.15ZM34.8844 75.188C35.8177 75.188 36.5737 75.4727 37.1524 76.042C37.731 76.602 38.0204 77.414 38.0204 78.478V83H36.7604V78.66C36.7604 77.8947 36.569 77.3113 36.1864 76.91C35.8037 76.4993 35.281 76.294 34.6184 76.294C33.9464 76.294 33.4097 76.504 33.0084 76.924C32.6164 77.344 32.4204 77.9553 32.4204 78.758V83H31.1464V75.328H32.4204V76.42C32.6724 76.028 33.013 75.7247 33.4424 75.51C33.881 75.2953 34.3617 75.188 34.8844 75.188ZM41.6554 76.378V80.9C41.6554 81.2733 41.7348 81.5393 41.8934 81.698C42.0521 81.8473 42.3274 81.922 42.7194 81.922H43.6574V83H42.5094C41.8001 83 41.2681 82.8367 40.9134 82.51C40.5588 82.1833 40.3814 81.6467 40.3814 80.9V76.378H39.3874V75.328H40.3814V73.396H41.6554V75.328H43.6574V76.378H41.6554ZM44.725 79.136C44.725 78.352 44.8837 77.666 45.201 77.078C45.5184 76.4807 45.9524 76.0187 46.503 75.692C47.063 75.3653 47.6837 75.202 48.365 75.202C49.037 75.202 49.6204 75.3467 50.115 75.636C50.6097 75.9253 50.9784 76.2893 51.221 76.728V75.328H52.509V83H51.221V81.572C50.969 82.02 50.591 82.3933 50.087 82.692C49.5924 82.9813 49.0137 83.126 48.351 83.126C47.6697 83.126 47.0537 82.958 46.503 82.622C45.9524 82.286 45.5184 81.8147 45.201 81.208C44.8837 80.6013 44.725 79.9107 44.725 79.136ZM51.221 79.15C51.221 78.5713 51.1044 78.0673 50.871 77.638C50.6377 77.2087 50.3204 76.882 49.919 76.658C49.527 76.4247 49.093 76.308 48.617 76.308C48.141 76.308 47.707 76.42 47.315 76.644C46.923 76.868 46.6104 77.1947 46.377 77.624C46.1437 78.0533 46.027 78.5573 46.027 79.136C46.027 79.724 46.1437 80.2373 46.377 80.676C46.6104 81.1053 46.923 81.4367 47.315 81.67C47.707 81.894 48.141 82.006 48.617 82.006C49.093 82.006 49.527 81.894 49.919 81.67C50.3204 81.4367 50.6377 81.1053 50.871 80.676C51.1044 80.2373 51.221 79.7287 51.221 79.15ZM57.378 83.126C56.79 83.126 56.2627 83.028 55.796 82.832C55.3293 82.6267 54.9607 82.3467 54.69 81.992C54.4193 81.628 54.27 81.2127 54.242 80.746H55.558C55.5953 81.1287 55.7727 81.4413 56.09 81.684C56.4167 81.9267 56.8413 82.048 57.364 82.048C57.8493 82.048 58.232 81.9407 58.512 81.726C58.792 81.5113 58.932 81.2407 58.932 80.914C58.932 80.578 58.7827 80.3307 58.484 80.172C58.1853 80.004 57.7233 79.8407 57.098 79.682C56.5287 79.5327 56.062 79.3833 55.698 79.234C55.3433 79.0753 55.0353 78.8467 54.774 78.548C54.522 78.24 54.396 77.8387 54.396 77.344C54.396 76.952 54.5127 76.5927 54.746 76.266C54.9793 75.9393 55.3107 75.6827 55.74 75.496C56.1693 75.3 56.6593 75.202 57.21 75.202C58.0593 75.202 58.7453 75.4167 59.268 75.846C59.7907 76.2753 60.0707 76.8633 60.108 77.61H58.834C58.806 77.2087 58.6427 76.8867 58.344 76.644C58.0547 76.4013 57.6627 76.28 57.168 76.28C56.7107 76.28 56.3467 76.378 56.076 76.574C55.8053 76.77 55.67 77.0267 55.67 77.344C55.67 77.596 55.7493 77.806 55.908 77.974C56.076 78.1327 56.2813 78.2633 56.524 78.366C56.776 78.4593 57.1213 78.5667 57.56 78.688C58.1107 78.8373 58.5587 78.9867 58.904 79.136C59.2493 79.276 59.5433 79.4907 59.786 79.78C60.038 80.0693 60.1687 80.4473 60.178 80.914C60.178 81.334 60.0613 81.712 59.828 82.048C59.5947 82.384 59.2633 82.65 58.834 82.846C58.414 83.0327 57.9287 83.126 57.378 83.126ZM63.5304 76.378V80.9C63.5304 81.2733 63.6098 81.5393 63.7684 81.698C63.9271 81.8473 64.2024 81.922 64.5944 81.922H65.5324V83H64.3844C63.6751 83 63.1431 82.8367 62.7884 82.51C62.4338 82.1833 62.2564 81.6467 62.2564 80.9V76.378H61.2624V75.328H62.2564V73.396H63.5304V75.328H65.5324V76.378H63.5304ZM67.734 74.082C67.4914 74.082 67.286 73.998 67.118 73.83C66.95 73.662 66.866 73.4567 66.866 73.214C66.866 72.9713 66.95 72.766 67.118 72.598C67.286 72.43 67.4914 72.346 67.734 72.346C67.9674 72.346 68.1634 72.43 68.322 72.598C68.49 72.766 68.574 72.9713 68.574 73.214C68.574 73.4567 68.49 73.662 68.322 73.83C68.1634 73.998 67.9674 74.082 67.734 74.082ZM68.35 75.328V83H67.076V75.328H68.35ZM70.0454 79.15C70.0454 78.3567 70.204 77.666 70.5214 77.078C70.8387 76.4807 71.2774 76.0187 71.8374 75.692C72.4067 75.3653 73.0554 75.202 73.7834 75.202C74.726 75.202 75.5007 75.4307 76.1074 75.888C76.7234 76.3453 77.1294 76.98 77.3254 77.792H75.9534C75.8227 77.3253 75.566 76.9567 75.1834 76.686C74.81 76.4153 74.3434 76.28 73.7834 76.28C73.0554 76.28 72.4674 76.532 72.0194 77.036C71.5714 77.5307 71.3474 78.2353 71.3474 79.15C71.3474 80.074 71.5714 80.788 72.0194 81.292C72.4674 81.796 73.0554 82.048 73.7834 82.048C74.3434 82.048 74.81 81.9173 75.1834 81.656C75.5567 81.3947 75.8134 81.0213 75.9534 80.536H77.3254C77.12 81.32 76.7094 81.95 76.0934 82.426C75.4774 82.8927 74.7074 83.126 73.7834 83.126C73.0554 83.126 72.4067 82.9627 71.8374 82.636C71.2774 82.3093 70.8387 81.8473 70.5214 81.25C70.204 80.6527 70.0454 79.9527 70.0454 79.15ZM84.0317 76.742C84.2837 76.3033 84.657 75.9393 85.1517 75.65C85.6557 75.3513 86.239 75.202 86.9017 75.202C87.583 75.202 88.199 75.3653 88.7497 75.692C89.3097 76.0187 89.7484 76.4807 90.0657 77.078C90.383 77.666 90.5417 78.352 90.5417 79.136C90.5417 79.9107 90.383 80.6013 90.0657 81.208C89.7484 81.8147 89.3097 82.286 88.7497 82.622C88.199 82.958 87.583 83.126 86.9017 83.126C86.2484 83.126 85.6697 82.9813 85.1657 82.692C84.671 82.3933 84.293 82.0247 84.0317 81.586V86.64H82.7577V75.328H84.0317V76.742ZM89.2397 79.136C89.2397 78.5573 89.123 78.0533 88.8897 77.624C88.6564 77.1947 88.339 76.868 87.9377 76.644C87.5457 76.42 87.1117 76.308 86.6357 76.308C86.169 76.308 85.735 76.4247 85.3337 76.658C84.9417 76.882 84.6244 77.2133 84.3817 77.652C84.1484 78.0813 84.0317 78.5807 84.0317 79.15C84.0317 79.7287 84.1484 80.2373 84.3817 80.676C84.6244 81.1053 84.9417 81.4367 85.3337 81.67C85.735 81.894 86.169 82.006 86.6357 82.006C87.1117 82.006 87.5457 81.894 87.9377 81.67C88.339 81.4367 88.6564 81.1053 88.8897 80.676C89.123 80.2373 89.2397 79.724 89.2397 79.136ZM93.4926 76.574C93.7166 76.1353 94.034 75.7947 94.4446 75.552C94.8646 75.3093 95.3733 75.188 95.9706 75.188V76.504H95.6346C94.2066 76.504 93.4926 77.2787 93.4926 78.828V83H92.2186V75.328H93.4926V76.574ZM100.787 83.126C100.069 83.126 99.4153 82.9627 98.8273 82.636C98.2486 82.3093 97.7913 81.8473 97.4553 81.25C97.1286 80.6433 96.9653 79.9433 96.9653 79.15C96.9653 78.366 97.1333 77.6753 97.4693 77.078C97.8146 76.4713 98.2813 76.0093 98.8693 75.692C99.4573 75.3653 100.115 75.202 100.843 75.202C101.571 75.202 102.229 75.3653 102.817 75.692C103.405 76.0093 103.867 76.4667 104.203 77.064C104.549 77.6613 104.721 78.3567 104.721 79.15C104.721 79.9433 104.544 80.6433 104.189 81.25C103.844 81.8473 103.373 82.3093 102.775 82.636C102.178 82.9627 101.515 83.126 100.787 83.126ZM100.787 82.006C101.245 82.006 101.674 81.8987 102.075 81.684C102.477 81.4693 102.799 81.1473 103.041 80.718C103.293 80.2887 103.419 79.766 103.419 79.15C103.419 78.534 103.298 78.0113 103.055 77.582C102.813 77.1527 102.495 76.8353 102.103 76.63C101.711 76.4153 101.287 76.308 100.829 76.308C100.363 76.308 99.9333 76.4153 99.5413 76.63C99.1586 76.8353 98.8506 77.1527 98.6173 77.582C98.3839 78.0113 98.2673 78.534 98.2673 79.15C98.2673 79.7753 98.3793 80.3027 98.6033 80.732C98.8366 81.1613 99.1446 81.4833 99.5273 81.698C99.9099 81.9033 100.33 82.006 100.787 82.006ZM109.56 75.202C110.223 75.202 110.802 75.3467 111.296 75.636C111.8 75.9253 112.174 76.2893 112.416 76.728V75.328H113.704V83.168C113.704 83.868 113.555 84.4887 113.256 85.03C112.958 85.5807 112.528 86.01 111.968 86.318C111.418 86.626 110.774 86.78 110.036 86.78C109.028 86.78 108.188 86.542 107.516 86.066C106.844 85.59 106.448 84.9413 106.326 84.12H107.586C107.726 84.5867 108.016 84.96 108.454 85.24C108.893 85.5293 109.42 85.674 110.036 85.674C110.736 85.674 111.306 85.4547 111.744 85.016C112.192 84.5773 112.416 83.9613 112.416 83.168V81.558C112.164 82.006 111.791 82.3793 111.296 82.678C110.802 82.9767 110.223 83.126 109.56 83.126C108.879 83.126 108.258 82.958 107.698 82.622C107.148 82.286 106.714 81.8147 106.396 81.208C106.079 80.6013 105.92 79.9107 105.92 79.136C105.92 78.352 106.079 77.666 106.396 77.078C106.714 76.4807 107.148 76.0187 107.698 75.692C108.258 75.3653 108.879 75.202 109.56 75.202ZM112.416 79.15C112.416 78.5713 112.3 78.0673 112.066 77.638C111.833 77.2087 111.516 76.882 111.114 76.658C110.722 76.4247 110.288 76.308 109.812 76.308C109.336 76.308 108.902 76.42 108.51 76.644C108.118 76.868 107.806 77.1947 107.572 77.624C107.339 78.0533 107.222 78.5573 107.222 79.136C107.222 79.724 107.339 80.2373 107.572 80.676C107.806 81.1053 108.118 81.4367 108.51 81.67C108.902 81.894 109.336 82.006 109.812 82.006C110.288 82.006 110.722 81.894 111.114 81.67C111.516 81.4367 111.833 81.1053 112.066 80.676C112.3 80.2373 112.416 79.7287 112.416 79.15ZM117.131 76.574C117.355 76.1353 117.673 75.7947 118.083 75.552C118.503 75.3093 119.012 75.188 119.609 75.188V76.504H119.273C117.845 76.504 117.131 77.2787 117.131 78.828V83H115.857V75.328H117.131V76.574ZM128.08 78.87C128.08 79.1127 128.066 79.3693 128.038 79.64H121.906C121.953 80.396 122.209 80.9887 122.676 81.418C123.152 81.838 123.726 82.048 124.398 82.048C124.949 82.048 125.406 81.922 125.77 81.67C126.143 81.4087 126.405 81.0633 126.554 80.634H127.926C127.721 81.3713 127.31 81.9733 126.694 82.44C126.078 82.8973 125.313 83.126 124.398 83.126C123.67 83.126 123.017 82.9627 122.438 82.636C121.869 82.3093 121.421 81.8473 121.094 81.25C120.767 80.6433 120.604 79.9433 120.604 79.15C120.604 78.3567 120.763 77.6613 121.08 77.064C121.397 76.4667 121.841 76.0093 122.41 75.692C122.989 75.3653 123.651 75.202 124.398 75.202C125.126 75.202 125.77 75.3607 126.33 75.678C126.89 75.9953 127.319 76.434 127.618 76.994C127.926 77.5447 128.08 78.17 128.08 78.87ZM126.764 78.604C126.764 78.1187 126.657 77.7033 126.442 77.358C126.227 77.0033 125.933 76.7373 125.56 76.56C125.196 76.3733 124.79 76.28 124.342 76.28C123.698 76.28 123.147 76.4853 122.69 76.896C122.242 77.3067 121.985 77.876 121.92 78.604H126.764ZM132.478 83.126C131.89 83.126 131.362 83.028 130.896 82.832C130.429 82.6267 130.06 82.3467 129.79 81.992C129.519 81.628 129.37 81.2127 129.342 80.746H130.658C130.695 81.1287 130.872 81.4413 131.19 81.684C131.516 81.9267 131.941 82.048 132.464 82.048C132.949 82.048 133.332 81.9407 133.612 81.726C133.892 81.5113 134.032 81.2407 134.032 80.914C134.032 80.578 133.882 80.3307 133.584 80.172C133.285 80.004 132.823 79.8407 132.198 79.682C131.628 79.5327 131.162 79.3833 130.798 79.234C130.443 79.0753 130.135 78.8467 129.874 78.548C129.622 78.24 129.496 77.8387 129.496 77.344C129.496 76.952 129.612 76.5927 129.846 76.266C130.079 75.9393 130.41 75.6827 130.84 75.496C131.269 75.3 131.759 75.202 132.31 75.202C133.159 75.202 133.845 75.4167 134.368 75.846C134.89 76.2753 135.17 76.8633 135.208 77.61H133.934C133.906 77.2087 133.742 76.8867 133.444 76.644C133.154 76.4013 132.762 76.28 132.268 76.28C131.81 76.28 131.446 76.378 131.176 76.574C130.905 76.77 130.77 77.0267 130.77 77.344C130.77 77.596 130.849 77.806 131.008 77.974C131.176 78.1327 131.381 78.2633 131.624 78.366C131.876 78.4593 132.221 78.5667 132.66 78.688C133.21 78.8373 133.658 78.9867 134.004 79.136C134.349 79.276 134.643 79.4907 134.886 79.78C135.138 80.0693 135.268 80.4473 135.278 80.914C135.278 81.334 135.161 81.712 134.928 82.048C134.694 82.384 134.363 82.65 133.934 82.846C133.514 83.0327 133.028 83.126 132.478 83.126ZM139.792 83.126C139.204 83.126 138.677 83.028 138.21 82.832C137.743 82.6267 137.375 82.3467 137.104 81.992C136.833 81.628 136.684 81.2127 136.656 80.746H137.972C138.009 81.1287 138.187 81.4413 138.504 81.684C138.831 81.9267 139.255 82.048 139.778 82.048C140.263 82.048 140.646 81.9407 140.926 81.726C141.206 81.5113 141.346 81.2407 141.346 80.914C141.346 80.578 141.197 80.3307 140.898 80.172C140.599 80.004 140.137 79.8407 139.512 79.682C138.943 79.5327 138.476 79.3833 138.112 79.234C137.757 79.0753 137.449 78.8467 137.188 78.548C136.936 78.24 136.81 77.8387 136.81 77.344C136.81 76.952 136.927 76.5927 137.16 76.266C137.393 75.9393 137.725 75.6827 138.154 75.496C138.583 75.3 139.073 75.202 139.624 75.202C140.473 75.202 141.159 75.4167 141.682 75.846C142.205 76.2753 142.485 76.8633 142.522 77.61H141.248C141.22 77.2087 141.057 76.8867 140.758 76.644C140.469 76.4013 140.077 76.28 139.582 76.28C139.125 76.28 138.761 76.378 138.49 76.574C138.219 76.77 138.084 77.0267 138.084 77.344C138.084 77.596 138.163 77.806 138.322 77.974C138.49 78.1327 138.695 78.2633 138.938 78.366C139.19 78.4593 139.535 78.5667 139.974 78.688C140.525 78.8373 140.973 78.9867 141.318 79.136C141.663 79.276 141.957 79.4907 142.2 79.78C142.452 80.0693 142.583 80.4473 142.592 80.914C142.592 81.334 142.475 81.712 142.242 82.048C142.009 82.384 141.677 82.65 141.248 82.846C140.828 83.0327 140.343 83.126 139.792 83.126ZM146.043 73.242L145.889 80.242H144.825L144.671 73.242H146.043ZM145.413 83.084C145.17 83.084 144.965 83 144.797 82.832C144.629 82.664 144.545 82.4587 144.545 82.216C144.545 81.9733 144.629 81.768 144.797 81.6C144.965 81.432 145.17 81.348 145.413 81.348C145.646 81.348 145.842 81.432 146.001 81.6C146.169 81.768 146.253 81.9733 146.253 82.216C146.253 82.4587 146.169 82.664 146.001 82.832C145.842 83 145.646 83.084 145.413 83.084Z" fill="#869BAD"/>
<g clip-path="url(#clip0_82_396)">
<g opacity="0.32">
<path d="M337.754 83.7188C337.139 83.8155 336.46 83.801 335.854 83.8266C334.82 83.8701 333.784 83.9061 332.749 83.9344C330.276 84.0014 327.794 84.056 325.326 83.8978C324.287 83.8314 322.814 83.8356 321.926 83.4403C321.173 83.1045 321.303 82.6104 322.042 82.3105C322.957 81.9387 328.573 81.4944 328.573 81.4944C329.723 81.4156 330.878 81.3582 332.032 81.3161C333.73 81.2539 335.673 81.0079 337.309 81.4384C338.321 81.7044 339.854 82.9884 338.463 83.5357C338.244 83.622 338.005 83.6794 337.754 83.7188H337.754Z" fill="#49484C"/>
</g>
<g opacity="0.32">
<path d="M382.22 82.126C381.546 82.2517 380.801 82.2331 380.137 82.2663C379.003 82.3229 377.867 82.3699 376.732 82.4065C374.021 82.4936 371.299 82.5648 368.594 82.3595C367.455 82.2732 365.84 82.2787 364.866 81.7639C364.039 81.3272 364.182 80.6838 364.992 80.2941C365.995 79.8103 372.154 79.232 372.154 79.232C373.414 79.129 374.68 79.0551 375.945 78.9998C377.807 78.9182 379.938 78.5983 381.732 79.1587C382.842 79.5056 384.522 81.1758 382.998 81.8883C382.758 82.0002 382.495 82.0755 382.221 82.1267L382.22 82.126Z" fill="#49484C"/>
</g>
<path d="M334.682 32.7515C334.544 32.5331 334.682 28.9446 334.682 28.9446L331.571 27.4375V30.8878C331.571 30.8878 334.819 32.9698 334.682 32.7515Z" fill="#CC9B73"/>
<path d="M332.92 39.0564C332.92 39.0564 335.814 45.3019 337.202 46.3433C337.414 46.5022 337.719 46.4338 337.948 46.3578C338.352 46.2237 338.727 45.9964 339.082 45.7635C339.56 45.4505 340.015 45.1008 340.459 44.7408C340.964 44.3317 341.455 43.9047 341.937 43.4693C342.423 43.0312 342.901 42.5834 343.372 42.1294C343.793 41.7245 344.209 41.3147 344.62 40.9008C344.897 40.6223 345.178 40.3473 345.445 40.0591C345.632 39.8573 345.864 39.6915 345.999 39.4462C346.135 39.1967 346.015 38.7164 345.81 38.5133C345.549 38.2535 345.406 38.0938 345.079 37.9121C344.69 37.6958 344.267 37.8423 343.876 37.9853C343.938 37.9625 343.713 37.6951 343.652 37.6854C343.566 37.6723 343.417 37.6972 343.347 37.7559C343.276 37.816 343.246 37.9107 343.227 38.0012C343.168 38.2825 343.055 38.5478 343.01 38.8339C342.963 39.1366 343.016 39.4289 343.049 39.7295C343.049 39.7295 338.574 43.5543 338.462 43.1003C338.423 42.9421 336.867 38.9168 336.355 38.0641L332.92 39.0557V39.0564Z" fill="#CC9B73"/>
<path d="M325.973 35.9475C325.973 35.9475 322.116 38.7828 321.924 39.9354C321.733 41.088 321.95 41.323 322.172 41.4066C322.394 41.4902 329.021 44.8562 329.021 44.8562L329.169 43.3394C329.169 43.3394 325.349 40.4558 324.789 40.2505C324.789 40.2505 327.166 38.7558 327.551 38.2486C327.937 37.7414 325.973 35.9475 325.973 35.9475Z" fill="#CC9B73"/>
<path d="M327.781 43.3097C327.781 43.3097 328.372 44.2909 327.781 46.1056H334.75C334.75 46.1056 334.13 44.4699 334.337 43.9938C334.543 43.5177 327.78 43.3097 327.78 43.3097H327.781Z" fill="#CC9B73"/>
<path d="M327.751 38.7392C327.751 38.7392 326.788 43.3815 325.864 44.1734C325.864 44.1734 334.278 44.5293 335.518 44.4395L336.611 44.454L333.274 38.1049L327.751 38.7392Z" fill="#755CCD"/>
<path d="M332.92 39.0564C332.92 39.0564 335.814 45.3019 337.202 46.3433C337.414 46.5022 337.719 46.4338 337.948 46.3578C338.352 46.2237 338.727 45.9964 339.082 45.7635C339.56 45.4505 340.015 45.1008 340.459 44.7408C340.964 44.3317 341.455 43.9047 341.937 43.4693C342.423 43.0312 342.901 42.5834 343.372 42.1294C343.793 41.7245 344.209 41.3147 344.62 40.9008C344.897 40.6223 345.178 40.3473 345.445 40.0591C345.632 39.8573 345.864 39.6915 345.999 39.4462C346.135 39.1967 346.015 38.7164 345.81 38.5133C345.549 38.2535 345.406 38.0938 345.079 37.9121C344.69 37.6958 344.267 37.8423 343.876 37.9853C343.938 37.9625 343.713 37.6951 343.652 37.6854C343.566 37.6723 343.417 37.6972 343.347 37.7559C343.276 37.816 343.246 37.9107 343.227 38.0012C343.168 38.2825 343.055 38.5478 343.01 38.8339C342.963 39.1366 343.016 39.4289 343.049 39.7295C343.049 39.7295 338.574 43.5543 338.462 43.1003C338.423 42.9421 336.867 38.9168 336.355 38.0641L332.92 39.0557V39.0564Z" fill="#CC9B73"/>
<path d="M323.478 35.9233C323.478 35.9233 329.012 33.0383 331.324 30.9832C331.324 30.9832 332.124 30.1747 333.668 31.4413C335.213 32.708 337.772 37.2874 337.772 37.2874L337.925 37.5161L333.318 40.4537L332.456 39.0018L327.751 39.2845L327.086 39.6355C327.086 39.6355 325.132 36.5466 323.478 35.9233Z" fill="#755CCD"/>
<path d="M324.827 55.2658C324.827 55.2658 323.026 59.6082 322.671 60.9467C322.671 60.9467 319.411 60.4706 312.827 65.5068L309.983 67.13L309.559 68.6399C309.559 68.6399 311.015 69.4332 311.212 69.4332C311.409 69.4332 311.37 69.116 311.527 69.0366C311.685 68.9571 323.262 64.1593 324.285 63.7627C325.309 63.366 328.932 59.5198 329.247 57.9332C329.562 56.3473 324.827 55.2665 324.827 55.2665L324.827 55.2658Z" fill="#CC9B73"/>
<path d="M332.476 58.2275C332.476 58.2275 336.178 63.8021 336.453 64.1987L336.729 64.5954C336.729 64.5954 334.958 66.4984 333.54 74.1522L332.831 78.4946L335.519 77.662C335.519 77.662 339.565 66.1819 340.037 65.6264C340.51 65.0715 337.596 55.5146 337.596 55.5146L332.477 58.2282L332.476 58.2275Z" fill="#CC9B73"/>
<path d="M330.32 55.9202L329.877 58.2103C329.877 58.2103 326.244 58.7458 323.439 53.8382L326.569 48.6506L330.32 55.9195L330.32 55.9202Z" fill="#B33B69"/>
<path d="M334.879 46.1056L337.925 55.1967C337.925 55.1967 337.871 57.8537 331.728 58.6864L329.257 54.6418C329.257 54.6418 323.616 53.125 327.337 47.2064L327.456 45.9377L334.878 46.1063L334.879 46.1056Z" fill="#FE6E8D"/>
<path d="M340.054 81.4246C340.058 81.6782 339.925 81.8875 339.617 82.1826C339.077 82.7002 337.862 82.448 337.217 82.3346C336.368 82.1875 335.534 81.947 334.673 81.871C333.95 81.8067 332.018 82.2566 331.643 81.3499C331.452 80.8883 331.64 80.4088 331.797 80.1296C331.836 80.3935 331.912 80.4509 332.056 80.5172C332.273 80.6161 333.611 80.4779 334.459 80.6755C335.305 80.8745 337.274 81.4688 338.042 81.7666C338.544 81.9608 339.401 82.032 339.855 81.6761C339.956 81.5973 340.019 81.513 340.055 81.4253L340.054 81.4246Z" fill="#3D3C3B"/>
<path d="M338.042 81.7653C337.274 81.4681 335.305 80.8731 334.459 80.6741C333.612 80.4765 332.273 80.6147 332.056 80.5159C331.89 80.4399 331.816 80.3756 331.783 80.0011C331.778 79.9534 331.774 79.9023 331.771 79.8463C331.768 79.7641 331.764 79.6701 331.761 79.5643C331.741 78.7911 332.725 77.2446 332.725 77.2446C332.725 77.2446 333.513 78.0178 333.809 78.0178C334.105 78.0178 334.536 78.0178 335.148 77.4229C335.758 76.8279 336.486 77.2646 336.703 77.324C336.919 77.3835 337.037 78.1761 337.096 78.2949C337.213 78.5292 337.417 78.7586 337.661 78.979C337.799 79.1041 337.951 79.225 338.109 79.3432C338.179 79.3978 338.253 79.4517 338.326 79.5035C338.495 79.6238 338.665 79.7406 338.826 79.8497C338.888 79.8926 338.95 79.934 339.009 79.9748C339.189 80.0985 339.351 80.2139 339.479 80.3176C339.482 80.321 339.487 80.3245 339.491 80.3272C339.868 80.6334 340.4 81.2484 339.854 81.6754C339.399 82.0313 338.543 81.9601 338.041 81.7653H338.042Z" fill="#755CCD"/>
<path d="M338.109 79.3432L336.777 79.7406C336.652 79.7772 336.52 79.706 336.482 79.5802C336.476 79.5574 336.473 79.536 336.473 79.5139C336.473 79.4116 336.54 79.3149 336.642 79.2845L337.661 78.9797C337.799 79.1048 337.951 79.2257 338.109 79.3439L338.109 79.3432Z" fill="#3D3C3B"/>
<path d="M338.826 79.8497L337.535 80.236C337.41 80.2727 337.278 80.2001 337.241 80.0757C337.234 80.0529 337.231 80.0308 337.231 80.008C337.231 79.9057 337.297 79.809 337.4 79.7793L338.326 79.5035C338.495 79.6238 338.665 79.7406 338.826 79.8497H338.826Z" fill="#3D3C3B"/>
<path d="M339.492 80.3272L338.244 80.6997C338.119 80.7363 337.987 80.6651 337.95 80.5393C337.943 80.5165 337.94 80.4944 337.94 80.473C337.94 80.3707 338.006 80.274 338.109 80.2443L339.009 79.9755C339.189 80.0992 339.351 80.2146 339.479 80.3182C339.483 80.3217 339.488 80.3251 339.491 80.3279L339.492 80.3272Z" fill="#3D3C3B"/>
<path d="M336.875 25.9304C336.994 25.6298 336.693 25.4874 336.389 25.3071C335.965 24.2768 335.67 23.3432 334.751 22.5471C333.893 21.8036 332.686 21.315 331.542 21.7462C329.93 22.3543 329.336 24.5476 330.218 26.6442C330.399 27.0775 330.635 27.4824 330.908 27.8424C331.949 29.2266 334.033 29.901 335.233 29.2611C335.918 28.8976 335.952 28.9916 336.279 28.2695C336.487 27.8107 336.762 27.0015 336.672 26.2185C336.743 26.1522 336.821 26.0686 336.875 25.9297V25.9304Z" fill="#CC9B73"/>
<path d="M334.684 22.2493C334.647 22.0316 334.652 21.7912 334.656 21.5583C334.66 21.3717 334.663 21.1789 334.647 20.9944C334.595 20.4457 334.526 19.915 334.251 19.4645C333.966 18.9994 333.39 18.6912 332.863 18.4521C332.808 18.4273 332.745 18.4521 332.72 18.5053C332.697 18.5599 332.72 18.6242 332.774 18.6491C333.272 18.875 333.814 19.1632 334.068 19.5771C334.319 19.989 334.383 20.492 334.431 21.0145C334.444 21.1527 334.444 21.2999 334.442 21.445C334.153 20.1576 333.381 18.097 330.888 18.96C330.888 18.96 330.079 19.1591 330.044 20.4589C330.047 20.3697 328.4 20.3158 328.247 20.3283C327.707 20.369 327.144 20.5757 326.828 21.0207C326.513 21.4643 326.548 22.1761 327 22.4794C326.41 22.4269 325.813 22.4829 325.243 22.6398C325.232 22.6411 325.222 22.6418 325.209 22.6418C323.609 22.769 322.763 23.5719 322.334 24.2243C322.302 24.274 322.315 24.3417 322.365 24.3756C322.384 24.3874 322.404 24.3936 322.424 24.3936C322.459 24.3936 322.494 24.3756 322.514 24.3445C322.811 23.894 323.324 23.3653 324.178 23.0703C323.858 23.2465 323.555 23.4628 323.327 23.7495C323.089 24.0529 322.94 24.4406 322.979 24.8248C322.162 24.7405 321.294 24.7716 320.536 25.1219C320.052 25.3458 319.671 25.73 319.415 26.1965C319.155 26.6698 319.017 27.204 318.933 27.7361C318.838 28.3359 319.193 28.7201 319.433 28.935C319.706 29.1775 320.043 29.342 320.392 29.4415C321.72 29.8174 317.173 30.8298 317.71 32.6009C318.249 34.3713 320.087 34.2987 321.792 33.3942C323.496 32.491 324.86 31.4254 325.523 31.6417C325.592 31.6645 325.666 31.6915 325.743 31.7226C324.553 32.0522 322.74 33.2905 321.254 34.421C320.005 35.3712 318.315 34.5807 318.297 34.5724C318.244 34.5475 318.18 34.5696 318.154 34.6235C318.128 34.6781 318.152 34.7424 318.205 34.7686C318.251 34.79 318.935 35.1128 319.772 35.1128C320.29 35.1128 320.865 34.9891 321.384 34.5952C323.544 32.9533 324.9 32.4668 325.781 32.3348C326.294 32.5719 326.347 32.8828 326.835 33.1675C327.101 33.323 327.699 32.9035 327.927 33.1081C328.16 33.3168 328.827 33.5151 329.146 33.4723C329.483 33.4267 329.786 33.2311 330.029 32.9899C330.298 32.7225 330.497 32.3991 330.733 32.1033C330.965 31.8117 331.24 31.5581 331.474 31.2679C331.693 30.9956 331.851 30.6819 332.043 30.3903C332.202 30.1471 332.382 29.9301 332.424 29.6309C332.482 29.2225 332.388 28.8016 332.244 28.4209C332.139 28.1452 331.866 27.4963 331.529 27.1653C331.41 27.2558 331.262 27.3104 331.101 27.3104C330.709 27.3104 330.391 26.9904 330.391 26.5952C330.391 26.1999 330.709 25.88 331.101 25.88C331.101 25.8758 331.092 25.6899 331.752 25.3023C332.666 24.7633 333.097 23.6763 332.916 23.1705C332.734 22.6639 334.048 22.7006 334.385 22.5244C334.722 22.3481 334.627 22.3758 334.627 22.3758C334.625 22.3723 334.623 22.3689 334.622 22.364C334.665 22.344 334.691 22.2984 334.682 22.25L334.684 22.2493Z" fill="#3D3C3B"/>
<path d="M335.563 25.2186C335.431 25.2186 335.323 25.1104 335.323 24.9768C335.323 24.8432 335.431 24.7349 335.563 24.7349C335.696 24.7349 335.804 24.8432 335.804 24.9768C335.804 25.1104 335.696 25.2186 335.563 25.2186Z" fill="#3D3C3B"/>
<path d="M335.935 24.0142C335.932 24.0273 335.478 24.0342 335.434 24.0377C335.169 24.0591 334.891 24.0847 334.659 24.2284C334.56 24.2899 334.483 24.3784 334.41 24.4696C334.342 24.5546 334.271 24.679 334.177 24.7349C334.175 24.7004 334.19 24.6638 334.202 24.6313C334.267 24.4516 334.333 24.263 334.442 24.104C334.593 23.8836 334.907 23.7413 335.161 23.6791C335.413 23.6183 336.018 23.6072 335.935 24.0149V24.0142Z" fill="#3D3C3B"/>
<g opacity="0.77">
<path d="M335.745 44.4429L335.518 44.4402C335.021 44.4754 333.372 44.4402 331.574 44.3849H331.57C331.57 44.3849 333.643 43.1846 333.525 40.321C334.08 41.4501 334.935 43.1238 335.744 44.4436L335.745 44.4429Z" fill="#3D3D6B"/>
</g>
<path d="M327.086 39.6362C327.086 39.6362 326.428 39.6217 326.07 39.4089L326.668 38.9887L327.086 39.6362H327.086Z" fill="#3D3D6B"/>
<g opacity="0.77">
<path d="M324.821 36.841C324.638 36.9889 324.444 37.1485 324.246 37.3164C324.135 37.371 323.478 35.924 323.478 35.924C323.919 36.0899 324.38 36.4305 324.821 36.841Z" fill="#3D3D6B"/>
</g>
<path d="M337.925 37.5168C337.925 37.5168 337.608 38.2977 336.755 38.8754L336.534 38.4034L337.925 37.5168Z" fill="#3D3D6B"/>
<path d="M310.304 74.6139C310.289 74.6864 310.267 74.7555 310.236 74.8163C309.948 75.3788 308.754 74.7749 308.417 74.5095C307.919 74.117 307.691 73.133 307.539 72.5505C307.292 71.5962 307.044 70.6425 306.791 69.6896C306.62 69.0435 306.226 68.5176 306.015 67.9075C305.942 67.6932 306.158 67.3615 306.336 67.233C306.41 67.1798 306.607 67.1536 306.813 67.1411C306.808 67.1508 306.803 67.1591 306.798 67.1688C306.7 67.347 308.216 68.6358 308.492 71.5312C308.767 74.4259 309.928 74.6042 309.949 74.723C309.951 74.7382 309.949 74.7514 309.944 74.7624C309.972 74.7507 310.005 74.7389 310.051 74.723C310.173 74.6823 310.254 74.6456 310.306 74.6145L310.304 74.6139Z" fill="#3D3C3B"/>
<path d="M311.999 69.8139C311.932 70.0807 311.513 70.1491 311.424 70.4386C311.406 70.496 311.378 70.6991 311.337 70.9873C311.318 71.1241 311.296 71.2796 311.27 71.4489C311.253 71.5595 311.236 71.6749 311.217 71.7951C311.194 71.9423 311.168 72.0964 311.142 72.2519C311.124 72.3479 311.106 72.4467 311.089 72.5449C311.059 72.6934 311.03 72.842 310.997 72.9871C310.843 73.6857 310.646 74.3077 310.401 74.5233C310.401 74.5537 310.356 74.5813 310.336 74.5958C310.223 74.6739 310.08 74.7202 309.95 74.7561C309.985 74.7465 309.875 74.6559 309.866 74.6504C309.81 74.6145 309.754 74.5765 309.7 74.5371C309.591 74.4583 309.49 74.3706 309.401 74.2697C309.167 74.0036 309.001 73.6823 308.876 73.352C308.66 72.7819 308.555 72.171 308.496 71.5657C308.495 71.5539 308.494 71.5422 308.493 71.5304C308.216 68.635 306.701 67.3463 306.799 67.168C306.898 66.9897 306.976 66.772 307.803 66.6124C308.629 66.4542 310.442 66.4742 310.442 66.4742C310.256 66.8474 309.849 67.6724 310.123 68.0746C310.192 68.1755 310.302 68.2377 310.409 68.2964C310.978 68.6095 311.813 68.8997 311.99 69.6156C312.014 69.693 312.015 69.758 312.001 69.8139H311.999Z" fill="#755CCD"/>
<path d="M311.336 70.986V70.9874C311.317 71.1242 311.295 71.2797 311.269 71.449L310.246 70.5879C310.162 70.5175 310.151 70.3917 310.22 70.3074C310.26 70.2611 310.317 70.2362 310.374 70.2362C310.418 70.2362 310.464 70.2514 310.5 70.2825L311.336 70.9867V70.986Z" fill="#3D3C3B"/>
<path d="M311.216 71.7951C311.193 71.9423 311.168 72.0964 311.141 72.2519L310.054 71.337C309.97 71.2665 309.959 71.1393 310.029 71.0564C310.068 71.0087 310.125 70.9852 310.182 70.9852C310.226 70.9852 310.271 70.9997 310.308 71.0301L311.216 71.7951Z" fill="#3D3C3B"/>
<path d="M311.087 72.5442C311.058 72.6928 311.028 72.8414 310.995 72.9865L309.965 72.1193C309.882 72.0488 309.871 71.923 309.941 71.8387C309.98 71.791 310.035 71.7675 310.092 71.7675C310.136 71.7675 310.183 71.7827 310.219 71.8138L311.087 72.5442Z" fill="#3D3C3B"/>
<path opacity="0.77" d="M328.428 35.4803L327.603 39.3632L327.086 39.6362C327.086 39.6362 326.388 38.5333 325.474 37.5127L328.428 35.4803Z" fill="#3D3D6B"/>
<path d="M381.943 18.5793C381.794 18.7589 381.639 18.7914 381.533 18.8509C381.455 18.893 381.404 18.9497 381.394 19.0865C381.37 19.4127 380.99 19.7734 380.952 19.6815C380.916 19.593 381.055 16.6707 381.078 16.4834C381.078 16.5705 381.313 17.1115 381.519 17.5358C381.533 17.5662 381.549 17.5959 381.565 17.6236C381.785 17.9878 382.201 18.2711 381.943 18.58L381.943 18.5793Z" fill="#CC9B73"/>
<path d="M385.613 60.2419C385.778 59.2744 385.193 57.8551 383.219 55.2174C382.974 54.8899 382.721 54.5464 382.463 54.1906C380.476 55.384 378.738 56.8006 377.18 58.4017C378.785 59.7968 380.15 60.9356 381.274 61.6315C380.719 62.7765 380.128 64.2477 379.721 65.9435C379.392 67.3145 379.001 69.0946 378.678 70.8691C378.243 73.2884 377.939 75.6953 378.094 77.0414C378.162 77.6619 378.33 78.0648 378.634 78.1332C378.976 78.214 379.373 77.8665 379.79 77.2584C380.604 76.0546 381.499 73.8343 382.213 71.8552C382.654 70.6397 383.027 69.5106 383.275 68.7657C383.987 66.6145 385.998 62.2679 385.614 60.2419H385.613Z" fill="#CC9B73"/>
<path d="M364.419 53.0787C363.169 55.9278 362.204 58.1937 362.011 59.7236C360.721 59.924 359.099 60.2923 357.392 60.9682C355.926 61.5514 354.013 62.3578 352.211 63.2202C349.166 64.6658 346.446 66.26 346.787 67.1162C347.154 68.0408 350.608 67.3208 353.596 66.5206C355 66.1419 356.299 65.7514 357.125 65.4971C359.423 64.802 364.558 63.8788 365.661 62.2383C366.483 61.7601 367.491 60.7063 368.898 58.7479C368.992 58.618 369.087 58.486 369.184 58.3533C367.774 56.3915 366.58 54.2251 364.42 53.0801L364.419 53.0787Z" fill="#CC9B73"/>
<path d="M380.435 15.2748C380.771 15.4544 380.291 15.1476 380.584 15.4296C382.426 17.2062 381.274 21.5327 380.195 21.9756C379.796 22.1394 378.803 22.0358 378.43 22.6805C378.057 23.3259 377.292 25.5655 376.297 26.4155L373.464 22.9106C373.607 22.6003 373.75 22.2838 373.893 21.968C374.061 21.6018 374.458 20.4851 374.471 20.2743C374.477 20.1873 374.508 20.1258 374.514 20.0511C374.52 19.9516 374.377 19.7471 374.408 19.6725C374.458 19.5605 374.719 19.5978 374.819 19.5543C374.955 19.4921 375.098 19.356 375.216 19.2502C375.464 19.027 375.769 18.8529 375.999 18.611C376.253 18.363 376.465 18.034 376.676 17.7424C377.478 16.6444 378.552 15.4904 379.938 15.2299C380.149 15.1863 380.31 15.2112 380.434 15.2734L380.435 15.2748Z" fill="#CC9B73"/>
<path d="M383.621 55.2596C383.621 55.2596 382.92 56.6416 381.3 58.1474C380.704 58.705 380.132 59.1825 379.686 59.5481C379.146 59.982 378.792 60.2363 378.792 60.2363C378.792 60.2363 373.348 56.6416 370.225 53.4436C369.995 53.2079 369.772 52.9723 369.567 52.7436C366.631 49.3969 367.444 45.7338 367.444 45.7338L370.542 43.224C370.542 43.224 376.277 41.3955 376.767 44.4886C377.252 47.5809 383.62 55.2603 383.62 55.2603L383.621 55.2596Z" fill="#56548C"/>
<path d="M379.685 59.5488C379.144 59.9827 378.833 60.2688 378.833 60.2688C378.833 60.2688 373.446 56.719 370.321 53.5182L374.744 48.6921C374.744 48.6921 374.744 52.7553 375.844 54.7275C376.64 56.1669 379.686 59.5481 379.686 59.5481L379.685 59.5488Z" fill="#3D3D6B"/>
<path d="M369.065 59.5612C369.065 59.5612 364 57.0701 362.746 55.2976C362.646 55.1553 369.003 42.4998 369.151 42.419C369.3 42.3381 373.763 41.4771 373.826 41.4647C373.975 41.4336 374.887 42.8592 374.987 42.9891C375.688 43.9123 376.389 44.8362 377.091 45.7594C377.395 46.1685 377.7 46.5838 378.016 46.9804C377.551 47.5381 377.377 48.1393 377.122 48.8089C376.93 49.3292 376.737 49.8565 376.551 50.3893C376.433 50.7362 376.334 51.1515 376.067 51.4058C375.533 51.9074 374.801 52.2239 374.223 52.6703C373.478 53.2467 372.988 54.0462 372.448 54.8084C371.889 55.5892 371.331 56.3763 370.772 57.1572C370.207 57.9567 369.637 58.7562 369.065 59.5619V59.5612Z" fill="#56548C"/>
<path d="M378.857 39.753C378.814 39.4987 376.64 38.5188 375.969 38.7731C375.291 39.0274 374.863 39.5236 374.372 39.2942C374.018 39.1283 370.108 36.2993 367.695 34.7548C368.478 34.0251 369.32 33.1503 370.142 32.2188C368.895 31.2734 367.902 30.1802 366.833 29.0055C366.313 29.6993 365.788 30.4269 365.314 31.1311C364.183 32.8041 363.343 34.5814 363.358 35.6919C363.354 35.7858 363.362 35.8826 363.383 35.9828C363.383 35.9828 363.383 35.9842 363.383 35.9848C363.386 35.9973 363.39 36.0097 363.392 36.0229C363.422 36.1659 363.473 36.2924 363.546 36.3995C363.678 36.6323 363.884 36.8783 364.181 37.1368C365.772 38.5202 369.903 39.7357 371.941 40.4496C373.979 41.1627 374.637 41.4668 375.427 42.0935C376.21 42.7141 377.347 42.8191 377.782 41.8827C378.217 40.9464 377.924 40.679 378.26 40.4371C378.595 40.1953 378.906 40.0094 378.856 39.7551L378.857 39.753Z" fill="#CC9B73"/>
<path d="M372.201 23.1497C372.201 23.1497 368.991 24.755 365.167 30.6736C365.167 30.6736 365.849 31.6901 367.166 32.7805C368.438 33.8406 369.177 34.0389 369.177 34.0389L371.424 31.6528L372.201 23.1497Z" fill="#BC4676"/>
<path d="M367.445 45.7338C367.159 45.8022 370.393 36.4499 369.915 33.909C369.431 31.3681 368.326 26.8004 370.288 24.6748C372.249 22.5492 374.074 22.3695 375.651 22.865C377.234 23.3667 379.301 25.6913 379.555 29.7877C379.804 33.8841 378.016 46.9859 378.016 46.9859C378.016 46.9859 369.233 45.2881 367.446 45.7338H367.445Z" fill="#FE587C"/>
<path d="M391.606 28.5563C390.811 27.7747 390.432 27.9793 390.308 27.5577C390.177 27.13 390.103 26.7451 389.823 26.7016C389.55 26.658 387.779 28.5127 387.798 29.2818C387.81 30.0572 388.158 30.6715 387.755 31.0868C387.468 31.3812 383.338 34.2296 380.883 36.1251C380.534 35.1079 380.092 33.9981 379.599 32.8938C378.255 33.8481 376.682 34.0202 375.14 34.3243C375.635 35.2723 376.187 36.2819 376.739 37.2031C377.775 38.932 379.028 40.4433 380.042 40.9035C380.168 40.9698 380.309 41.0161 380.466 41.0355C380.476 41.0369 380.487 41.0376 380.498 41.039C380.522 41.0417 380.548 41.0438 380.574 41.0445C380.598 41.0459 380.621 41.0466 380.644 41.0459C380.995 41.0459 381.416 40.9249 381.921 40.6388C383.891 39.5222 386.606 35.7692 388.059 33.958C389.513 32.1468 390.06 31.5885 390.973 31.0177C391.892 30.4407 392.401 29.3302 391.607 28.5549L391.606 28.5563Z" fill="#CC9B73"/>
<path d="M380.759 33.4315C380.759 33.4315 379.425 34.2185 377.768 35.0298C376.104 35.8487 374.646 35.9592 374.646 35.9592C374.637 35.953 374.539 35.7215 374.381 35.3401C373.721 33.7417 372.047 29.5092 371.772 28.1631C371.48 26.7133 372.939 24.6983 373.814 24.3396C376.006 23.4337 377.402 25.1018 378.017 25.8696C378.245 26.157 378.68 27.2696 379.138 28.557C379.917 30.7427 380.76 33.4315 380.76 33.4315H380.759Z" fill="#F7668B"/>
<path d="M353.596 66.5199C350.607 67.3201 347.153 68.0394 346.787 67.1155C346.445 66.2594 349.166 64.6652 352.21 63.2195L353.596 66.5199Z" fill="#3D3C3B"/>
<path d="M382.212 71.8552C381.498 73.8343 380.603 76.0546 379.789 77.2584L378.093 77.0414C377.938 75.6953 378.242 73.2884 378.677 70.8691L382.212 71.8552Z" fill="#3D3C3B"/>
<path d="M378.35 44.3766C378.208 45.5106 378.35 48.0024 378.35 48.0024C378.35 48.0024 377.916 49.0811 376.252 48.4426C368.294 45.3689 366.904 48.0522 366.116 47.6369C365.818 47.4883 366.86 46.7876 367.338 45.1022C367.817 43.4223 369.827 38.7682 369.827 38.7682L378.35 44.3773L378.35 44.3766Z" fill="#FE587C"/>
<path d="M381.169 12.7719C381.154 12.7318 381.138 12.6911 381.108 12.662C380.963 12.5238 380.34 12.6918 380.154 12.7139C379.816 12.7533 379.479 12.7968 379.141 12.8251C379.094 12.8293 379.047 12.832 379 12.8362C379.89 12.5605 380.153 12.2087 380.167 12.1894C380.206 12.1362 380.194 12.0615 380.141 12.0235C380.089 11.9848 380.014 11.9966 379.977 12.0498C379.973 12.0553 379.553 12.6144 377.837 12.8376C377.425 12.8915 377.096 12.9467 376.831 13.0013C376.008 13.0794 375.081 13.2646 374.628 14.0158C374.559 14.1318 374.51 14.3108 374.439 14.4207C374.278 14.297 374.041 14.2652 373.377 14.2963C373.312 14.2998 373.262 14.3551 373.264 14.4207C373.267 14.4863 373.323 14.5361 373.388 14.534C373.879 14.5105 374.095 14.5195 374.224 14.5734C374.166 14.5928 374.102 14.6114 374.032 14.6425C373.597 14.8346 373.342 15.2568 373.187 15.6908C372.876 16.5283 373.038 17.446 373.404 18.24C373.579 18.6187 373.789 18.9842 373.982 19.3567C374.069 19.5239 374.15 19.6856 374.2 19.8715C374.249 20.0574 374.275 20.244 374.342 20.4236C374.355 20.4485 374.367 20.4796 374.392 20.492C374.41 20.5045 374.441 20.5107 374.467 20.5107C375.101 20.5542 377.353 20.4948 376.673 19.8404C375.738 18.9393 376.436 18.3692 376.97 18.2821C377.498 18.1889 377.703 19.6359 378.3 19.4313C378.89 19.2206 378.113 17.6077 378.79 17.3161C379.498 17.012 378.865 16.2802 379.393 15.7965C379.629 15.5858 380.213 15.6542 380.487 15.4987C380.517 15.48 380.549 15.4552 380.586 15.4303C381.374 14.9058 381.464 13.5839 381.17 12.7719H381.169Z" fill="#3D3C3B"/>
<path d="M380.946 17.5434C380.946 17.6996 380.821 17.8261 380.666 17.8261C380.51 17.8261 380.385 17.6996 380.385 17.5434C380.385 17.3873 380.51 17.2608 380.666 17.2608C380.821 17.2608 380.946 17.3873 380.946 17.5434Z" fill="#3D3C3B"/>
<path d="M381.427 16.7522C381.427 16.7522 381.423 16.7557 381.421 16.7571C381.414 16.7619 381.404 16.7619 381.395 16.7612C380.992 16.7446 380.569 16.6707 380.18 16.8158C380.06 16.8607 379.948 16.925 379.839 16.9927C379.739 17.0542 379.623 17.1544 379.51 17.1841C379.511 17.1482 379.55 17.0825 379.572 17.0501C379.605 17.0031 379.643 16.9609 379.684 16.9195C379.792 16.8075 379.898 16.6797 380.025 16.5892C380.333 16.3673 380.764 16.3114 381.13 16.3784C381.23 16.3964 381.335 16.4288 381.398 16.5097C381.446 16.5719 381.461 16.6589 381.436 16.7336C381.434 16.7405 381.431 16.7474 381.427 16.7522Z" fill="#3D3C3B"/>
<path d="M365.407 30.9942C365.376 31.0398 365.345 31.0854 365.315 31.1304C365.296 31.1587 365.277 31.187 365.258 31.2153C365.149 31.0523 365.167 30.6736 365.167 30.6736H365.169L365.171 30.6777C365.186 30.6998 365.266 30.8139 365.408 30.9942H365.407Z" fill="#892959"/>
<path d="M369.177 34.0389C368.951 34.0776 368.594 34.005 368.491 33.9822C368.547 33.9263 368.602 33.8703 368.658 33.8129C368.983 33.9836 369.164 34.0347 369.176 34.0389H369.177H369.177Z" fill="#892959"/>
<path d="M380.759 33.4315C380.759 33.4315 380.913 33.7694 380.25 34.4314L380.014 33.8544L380.759 33.4308V33.4315Z" fill="#892959"/>
<g opacity="0.47">
<path d="M380.759 33.4322C380.759 33.4322 379.425 34.2186 377.768 35.0305C376.104 35.8494 374.645 35.9599 374.645 35.9599C374.637 35.9544 374.537 35.7222 374.381 35.3408C374.36 35.291 374.338 35.2385 374.316 35.1832C375.659 34.4673 379.34 32.2788 379.15 28.8645C379.148 28.8251 379.163 28.7615 379.185 28.691C379.95 30.8512 380.759 33.4322 380.759 33.4322Z" fill="#B33B69"/>
</g>
<path d="M349.594 73.4764C349.575 73.56 349.548 73.6381 349.512 73.7072C349.185 74.345 347.937 73.607 347.589 73.2898C347.073 72.8213 346.867 71.6811 346.728 71.0046C346.5 69.8982 346.272 68.7905 346.038 67.6856C345.879 66.9358 345.482 66.3187 345.28 65.607C345.209 65.3596 345.452 64.9851 345.645 64.8434C345.726 64.784 345.938 64.7598 346.157 64.7529C346.151 64.7639 346.146 64.7743 346.14 64.7847C346.028 64.9857 347.593 66.5212 347.78 69.8644C347.964 73.2048 349.192 73.4501 349.21 73.5883C349.212 73.6063 349.209 73.6215 349.203 73.6332C349.233 73.6201 349.269 73.6084 349.318 73.5918C349.452 73.5489 349.538 73.5095 349.594 73.4764H349.594Z" fill="#3D3C3B"/>
<path d="M351.576 68.0124C351.495 68.3165 351.046 68.3808 350.941 68.7118C350.92 68.7767 350.882 69.0103 350.828 69.3399C350.802 69.4968 350.773 69.6751 350.738 69.8685C350.716 69.995 350.694 70.1277 350.669 70.2652C350.638 70.4338 350.607 70.61 350.572 70.7883C350.549 70.8989 350.526 71.0115 350.504 71.1234C350.467 71.2934 350.43 71.4634 350.39 71.6293C350.2 72.4274 349.967 73.1364 349.699 73.3762C349.699 73.3831 349.688 73.4729 349.318 73.5925C349.27 73.6091 349.233 73.6215 349.203 73.6339C349.209 73.6215 349.212 73.607 349.21 73.589C349.192 73.4515 347.963 73.2055 347.779 69.8651C347.593 66.5233 346.028 64.9871 346.139 64.7854C346.251 64.5836 346.342 64.3355 347.228 64.1814C348.114 64.028 350.041 64.1151 350.041 64.1151C349.83 64.538 349.366 65.4729 349.643 65.9463C349.712 66.0651 349.827 66.1405 349.938 66.2116C350.532 66.5917 351.409 66.9552 351.572 67.7851C351.594 67.8749 351.593 67.9496 351.576 68.0138L351.576 68.0124Z" fill="#56548C"/>
<path d="M350.828 69.3378V69.3392C350.802 69.4961 350.773 69.6743 350.738 69.8678L349.682 68.841C349.595 68.7574 349.587 68.6115 349.665 68.5169C349.709 68.4651 349.77 68.4381 349.831 68.4402C349.879 68.4416 349.925 68.4609 349.963 68.4982L350.827 69.3378H350.828Z" fill="#3D3C3B"/>
<path d="M350.669 70.2645C350.638 70.4331 350.607 70.6093 350.572 70.7876L349.449 69.6965C349.363 69.6129 349.356 69.4657 349.433 69.3724C349.476 69.3192 349.538 69.2936 349.598 69.2957C349.646 69.2971 349.693 69.3151 349.731 69.3524L350.669 70.2645Z" fill="#3D3C3B"/>
<path d="M350.504 71.1228C350.467 71.2928 350.43 71.4628 350.389 71.6286L349.325 70.5941C349.239 70.5105 349.232 70.3647 349.31 70.2701C349.353 70.2168 349.413 70.1913 349.473 70.1934C349.521 70.1947 349.569 70.2141 349.607 70.2514L350.504 71.1221V71.1228Z" fill="#3D3C3B"/>
<path d="M385.509 79.6818C385.504 79.9568 385.352 80.1793 385.007 80.4875C384.401 81.0265 383.095 80.7066 382.399 80.5587C381.485 80.3645 380.591 80.0736 379.661 79.9568C378.881 79.858 376.77 80.2699 376.398 79.2727C376.208 78.7648 376.431 78.2535 376.612 77.9556C376.645 78.2438 376.725 78.3087 376.878 78.3861C377.109 78.5029 378.564 78.4055 379.476 78.6515C380.384 78.9003 382.495 79.621 383.316 79.9741C383.851 80.2035 384.778 80.3141 385.284 79.9465C385.396 79.8642 385.469 79.7751 385.509 79.6811L385.509 79.6818Z" fill="#3D3C3B"/>
<path d="M383.316 79.9734C382.496 79.621 380.385 78.8996 379.476 78.6515C378.566 78.4041 377.11 78.5016 376.879 78.3862C376.702 78.297 376.624 78.2245 376.603 77.8174C376.599 77.7656 376.597 77.7103 376.596 77.6495C376.596 77.5604 376.595 77.4588 376.596 77.3434C376.605 76.5045 377.731 74.8675 377.731 74.8675C377.731 74.8675 378.555 75.7361 378.875 75.7478C379.194 75.7596 379.663 75.7762 380.348 75.1556C381.033 74.5351 381.804 75.0361 382.037 75.1093C382.269 75.1819 382.367 76.0457 382.426 76.1763C382.544 76.4347 382.755 76.6918 383.012 76.9398C383.156 77.0808 383.317 77.2183 383.483 77.3517C383.558 77.4139 383.635 77.4747 383.712 77.5341C383.891 77.6709 384.07 77.8036 384.241 77.9287C384.306 77.9778 384.372 78.0247 384.434 78.071C384.624 78.212 384.795 78.3433 384.93 78.4608C384.934 78.4649 384.939 78.4691 384.943 78.4718C385.34 78.818 385.892 79.5056 385.285 79.9465C384.778 80.3148 383.853 80.2035 383.317 79.9734H383.316Z" fill="#56548C"/>
<path d="M383.483 77.3516L382.024 77.7303C381.888 77.7656 381.748 77.6827 381.712 77.5451C381.706 77.5203 381.704 77.4968 381.704 77.4726C381.709 77.362 381.785 77.2597 381.897 77.2307L383.013 76.9405C383.158 77.0815 383.318 77.219 383.484 77.3523L383.483 77.3516Z" fill="#3D3C3B"/>
<path d="M384.24 77.9287L382.826 78.297C382.688 78.3323 382.548 78.2479 382.513 78.1118C382.506 78.0869 382.505 78.0628 382.505 78.0379C382.509 77.9273 382.585 77.825 382.697 77.7967L383.711 77.5341C383.889 77.6709 384.069 77.8036 384.239 77.9287H384.24Z" fill="#3D3C3B"/>
<path d="M384.943 78.4718L383.576 78.8263C383.439 78.8616 383.298 78.7787 383.264 78.6411C383.257 78.6163 383.256 78.5921 383.257 78.5686C383.261 78.458 383.336 78.3557 383.449 78.3274L384.435 78.071C384.625 78.212 384.796 78.3433 384.931 78.4608C384.934 78.4649 384.94 78.4691 384.943 78.4718H384.943Z" fill="#3D3C3B"/>
<path d="M374.645 35.9599C374.645 35.9599 375.616 35.8017 375.898 35.725L376.106 36.1113C376.106 36.1113 375.497 36.2667 374.645 35.9592V35.9599Z" fill="#892959"/>
</g>
<defs>
<linearGradient id="paint0_linear_82_396" x1="0" y1="50" x2="408" y2="50" gradientUnits="userSpaceOnUse">
<stop stop-color="#3381D1" stop-opacity="0.05"/>
<stop offset="1" stop-color="#7C3BFF" stop-opacity="0.05"/>
</linearGradient>
<clipPath id="clip0_82_396">
<rect width="86" height="72" fill="white" transform="matrix(-1 0 0 1 392 12)"/>
</clipPath>
</defs>
</svg>
