<svg width="20" height="20" viewBox="0 0 20 20" fill="none" xmlns="http://www.w3.org/2000/svg">
<circle cx="15.4167" cy="3.75002" r="2.08333" stroke="#DFE6ED" stroke-width="1.5"/>
<path d="M7.5 14.1667L6.66603 15.1675C6.05166 15.9047 5.74448 16.2733 5.32454 16.47C4.9046 16.6667 4.42477 16.6667 3.4651 16.6667H2.5" stroke="#DFE6ED" stroke-width="1.5" stroke-linecap="round"/>
<path d="M11.25 18.3334C11.25 18.7476 11.5858 19.0834 12 19.0834C12.4142 19.0834 12.75 18.7476 12.75 18.3334H12H11.25ZM10.4704 13.5383L10.9233 12.9404L10.9233 12.9404L10.4704 13.5383ZM11.4574 14.3843L12.0447 13.9178L12.0447 13.9178L11.4574 14.3843ZM11.9216 15.3183L12.648 15.1319L12.648 15.1319L11.9216 15.3183ZM11.3376 9.72176C11.644 9.44313 11.6666 8.9688 11.388 8.6623C11.1094 8.35581 10.635 8.33322 10.3285 8.61185L10.833 9.16681L11.3376 9.72176ZM9.04332 10.9705L9.74653 11.2313L9.74653 11.2313L9.04332 10.9705ZM9.10136 12.2668L8.42428 12.5894L8.42428 12.5894L9.10136 12.2668ZM12 16.6159H11.25V18.3334H12H12.75V16.6159H12ZM10.4704 13.5383L10.0175 14.1361C10.5758 14.559 10.7466 14.6953 10.8702 14.8509L11.4574 14.3843L12.0447 13.9178C11.7757 13.5792 11.4193 13.3162 10.9233 12.9404L10.4704 13.5383ZM12 16.6159H12.75C12.75 15.9936 12.7555 15.5508 12.648 15.1319L11.9216 15.3183L11.1951 15.5046C11.2445 15.697 11.25 15.9155 11.25 16.6159H12ZM11.4574 14.3843L10.8702 14.8509C11.0232 15.0435 11.134 15.2663 11.1951 15.5046L11.9216 15.3183L12.648 15.1319C12.5345 14.6893 12.3289 14.2756 12.0447 13.9178L11.4574 14.3843ZM10.833 9.16681L10.3285 8.61185C9.98285 8.92612 9.54006 9.30979 9.19835 9.63323C9.02276 9.79943 8.85235 9.96942 8.71209 10.1311C8.58692 10.2753 8.42548 10.4795 8.34012 10.7097L9.04332 10.9705L9.74653 11.2313C9.73174 11.2712 9.73691 11.2388 9.84504 11.1141C9.93809 11.0069 10.0677 10.8758 10.2295 10.7226C10.5625 10.4074 10.944 10.0795 11.3376 9.72176L10.833 9.16681ZM10.4704 13.5383L10.9233 12.9404C10.5155 12.6315 10.245 12.4258 10.0514 12.2536C9.86207 12.085 9.80337 11.9966 9.77845 11.9443L9.10136 12.2668L8.42428 12.5894C8.57396 12.9036 8.80165 13.1493 9.05411 13.374C9.30236 13.595 9.62909 13.8418 10.0175 14.1361L10.4704 13.5383ZM9.04332 10.9705L8.34012 10.7097C8.11309 11.3219 8.14345 12 8.42428 12.5894L9.10136 12.2668L9.77845 11.9443C9.67193 11.7207 9.66041 11.4635 9.74653 11.2313L9.04332 10.9705Z" fill="#DFE6ED"/>
<path d="M4.52977 7.35054L4.15927 6.69845L4.15927 6.69845L4.52977 7.35054ZM2.96287 7.37822C2.60273 7.58285 2.47666 8.04068 2.68128 8.40082C2.88591 8.76096 3.34374 8.88703 3.70388 8.68241L3.33337 8.03031L2.96287 7.37822ZM11.1722 6.13097L10.8867 6.82451L10.8867 6.82451L11.1722 6.13097ZM8.70566 5.53572L8.65127 4.7877L8.65127 4.7877L8.70566 5.53572ZM17.5 10.75C17.9143 10.75 18.25 10.4142 18.25 10C18.25 9.5858 17.9143 9.25001 17.5 9.25001V10V10.75ZM13.1401 7.94683L12.4693 8.28224L12.4693 8.28224L13.1401 7.94683ZM4.52977 7.35054L4.15927 6.69845L2.96287 7.37822L3.33337 8.03031L3.70388 8.68241L4.90028 8.00263L4.52977 7.35054ZM11.1722 6.13097L11.4577 5.43743C10.3393 4.97706 9.69985 4.71145 8.65127 4.7877L8.70566 5.53572L8.76006 6.28375C9.41348 6.23624 9.74877 6.35609 10.8867 6.82451L11.1722 6.13097ZM4.52977 7.35054L4.90028 8.00263C6.99556 6.81214 7.84259 6.35046 8.76006 6.28375L8.70566 5.53572L8.65127 4.7877C7.31692 4.88473 6.13063 5.57835 4.15927 6.69845L4.52977 7.35054ZM16.4622 10V10.75H17.5V10V9.25001H16.4622V10ZM13.1401 7.94683L12.4693 8.28224C13.2255 9.79465 14.7713 10.75 16.4622 10.75V10V9.25001C15.3395 9.25001 14.3131 8.61566 13.8109 7.61143L13.1401 7.94683ZM13.1401 7.94683L13.8109 7.61143C13.3155 6.62049 12.4717 5.85484 11.4577 5.43743L11.1722 6.13097L10.8867 6.82451C11.5764 7.10838 12.1408 7.62532 12.4693 8.28224L13.1401 7.94683Z" fill="#DFE6ED"/>
</svg>
