<svg width="20" height="20" viewBox="0 0 20 20" fill="none" xmlns="http://www.w3.org/2000/svg">
<path d="M18.3333 13.1436C17.0102 12.8319 16.3296 12.066 15.7666 11.2141C15.4137 10.6803 14.6378 10.7128 14.2546 11.2251C13.3783 12.3965 12.0703 13.3333 9.99996 13.3333C7.91117 13.3333 6.59834 12.1413 5.72205 11.0196C5.35597 10.551 4.65511 10.5572 4.33469 11.0582C3.75061 11.9713 3.06998 12.813 1.66663 13.1436" stroke="#DFE6ED" stroke-width="1.5" stroke-linecap="round" stroke-linejoin="round"/>
<path d="M18.3333 17.3103C17.0102 16.9986 16.3296 16.2327 15.7666 15.3808C15.4137 14.847 14.6378 14.8795 14.2546 15.3918C13.3783 16.5631 12.0703 17.5 9.99996 17.5C7.91117 17.5 6.59834 16.308 5.72205 15.1863C5.35597 14.7177 4.65511 14.7239 4.33469 15.2249C3.75061 16.138 3.06998 16.9796 1.66663 17.3103" stroke="#DFE6ED" stroke-width="1.5" stroke-linecap="round" stroke-linejoin="round"/>
<path d="M3.33337 9.58331L6.23081 7.84485C6.89449 7.44665 7.04046 6.54714 6.53677 5.9595L5.71367 4.99922C5.31099 4.52942 5.33789 3.8288 5.77542 3.39127C6.25841 2.90828 7.04874 2.93296 7.50066 3.44513L12.9167 9.58331" stroke="#DFE6ED" stroke-width="1.5" stroke-linecap="round" stroke-linejoin="round"/>
<path d="M14.1667 6.66667C15.3173 6.66667 16.25 5.73393 16.25 4.58333C16.25 3.43274 15.3173 2.5 14.1667 2.5C13.0161 2.5 12.0834 3.43274 12.0834 4.58333C12.0834 5.73393 13.0161 6.66667 14.1667 6.66667Z" stroke="#DFE6ED" stroke-width="1.5" stroke-linecap="round" stroke-linejoin="round"/>
</svg>
