<svg width="19" height="20" viewBox="0 0 19 20" fill="none" xmlns="http://www.w3.org/2000/svg">
<path d="M11.356 15.5577H16.6589V16.6154C16.6589 17.2699 16.3796 17.8977 15.8823 18.3605C15.3851 18.8233 14.7107 19.0833 14.0075 19.0833C13.3043 19.0833 12.6298 18.8233 12.1326 18.3605C11.6354 17.8977 11.356 17.2699 11.356 16.6154V15.5577ZM1.50774 14.5C1.50774 15.1545 1.78709 15.7823 2.28433 16.2451C2.78158 16.7079 3.45599 16.9679 4.1592 16.9679C4.86241 16.9679 5.53682 16.7079 6.03406 16.2451C6.5313 15.7823 6.81065 15.1545 6.81065 14.5V13.4423H1.50774V14.5ZM4.1592 0.75C1.83728 0.75 -0.713805 7.80128 1.7672 10.6218H6.55119C9.0322 7.80128 6.48112 0.75 4.1592 0.75ZM16.3995 12.7372C18.8805 9.91667 16.3294 2.86538 14.0075 2.86538C11.6855 2.86538 9.13447 9.91667 11.6155 12.7372H16.3995Z" stroke="#3381D1" stroke-width="1.5" stroke-linejoin="round"/>
</svg>
