<svg width="20" height="20" viewBox="0 0 20 20" fill="none" xmlns="http://www.w3.org/2000/svg">
<path d="M12.0833 3.75002C12.0833 4.90061 11.1506 5.83335 9.99996 5.83335C8.84937 5.83335 7.91663 4.90061 7.91663 3.75002C7.91663 2.59943 8.84937 1.66669 9.99996 1.66669C11.1506 1.66669 12.0833 2.59943 12.0833 3.75002Z" stroke="#DFE6ED" stroke-width="1.5"/>
<path d="M17.5 14.1667L16.5353 13.8417C16.3459 13.778 16.1659 13.689 15.9998 13.5771L15.9155 13.5203C15.3435 13.135 15 12.4864 15 11.7919C15 9.76094 13.5469 8.02766 11.5643 7.69378L10.822 7.56877C10.4167 7.49995 9.58333 7.50006 9.178 7.56877L8.4357 7.69378C6.45311 8.02766 5 9.76094 5 11.7919C5 12.4864 4.65647 13.135 4.08454 13.5203L4.00018 13.5771C3.83414 13.689 3.65407 13.778 3.46475 13.8417L2.5 14.1667" stroke="#DFE6ED" stroke-width="1.5" stroke-linecap="round" stroke-linejoin="round"/>
<path d="M7.91671 13.3333L7.14629 14.3605C7.02332 14.5245 6.96184 14.6065 6.89283 14.6786C6.72202 14.8572 6.51364 14.9956 6.28278 15.0837C6.1895 15.1193 6.09009 15.1441 5.89127 15.1938L4.39676 15.5675C3.7718 15.7237 3.33337 16.2852 3.33337 16.9294C3.33337 17.7048 3.96191 18.3333 4.73726 18.3333H5.30706C6.73055 18.3333 8.11564 17.8716 9.25443 17.0175L10.8334 15.8333M12.0834 13.3333L12.689 14.1408C12.9752 14.5224 13.1183 14.7132 13.304 14.8542C13.3599 14.8966 13.4184 14.9354 13.4791 14.9704C13.6812 15.0869 13.9126 15.1448 14.3753 15.2605L15.6033 15.5675C16.2283 15.7237 16.6667 16.2852 16.6667 16.9294C16.6667 17.7048 16.0382 18.3333 15.2628 18.3333H14.4814C14.0128 18.3333 13.7785 18.3333 13.5462 18.3203C12.86 18.282 12.1811 18.1589 11.525 17.9538C11.303 17.8844 11.0836 17.8021 10.6448 17.6376L9.16671 17.0833" stroke="#DFE6ED" stroke-width="1.5" stroke-linecap="round" stroke-linejoin="round"/>
</svg>
